SplineFontDB: 3.0
FontName: PowerRedandBlueMod
FullName: Power Red and Blue Mod
FamilyName: Power Red and Blue Mod
Weight: Book
Copyright: (c) 2008 Peter O. http://www.upokecenter.com/\nHacked up by comex, who doesn't know what he's doing.
Version: 1.0
ItalicAngle: 0
UnderlinePosition: 34
UnderlineWidth: 68
Ascent: 1720
Descent: 180
sfntRevision: 0x00010000
woffMajor: 1
woffMinor: 0
LayerCount: 2
Layer: 0 1 "Back"  1
Layer: 1 1 "Fore"  0
XUID: [1021 1015 1071357517 8026]
FSType: 0
OS2Version: 1
OS2_WeightWidthSlopeOnly: 0
OS2_UseTypoMetrics: 0
CreationTime: 879794810
ModificationTime: 1393625341
PfmFamily: 81
TTFWeight: 400
TTFWidth: 5
LineGap: 256
VLineGap: 0
OS2TypoAscent: -50
OS2TypoAOffset: 1
OS2TypoDescent: 350
OS2TypoDOffset: 1
OS2TypoLinegap: 256
OS2WinAscent: 0
OS2WinAOffset: 1
OS2WinDescent: 0
OS2WinDOffset: 1
HheadAscent: -50
HheadAOffset: 1
HheadDescent: 350
HheadDOffset: 1
OS2Vendor: 'PfEd'
OS2CodePages: 00000003.00000000
OS2UnicodeRanges: 00000003.00060000.00000010.00000000
MarkAttachClasses: 1
DEI: 91125
ShortTable: maxp 16
  1
  0
  196
  56
  14
  0
  0
  1
  0
  0
  0
  0
  0
  0
  0
  0
EndShort
LangName: 1033 "" "" "Regular" "" "" "Version 1.0" "" "" "Peter O." "Peter O." "" "" "http://www.upokecenter.com/" 
GaspTable: 1 65535 2 0
Encoding: UnicodeBmp
UnicodeInterp: none
NameList: Adobe Glyph List
DisplaySize: -24
AntiAlias: 1
FitToEm: 1
WinInfo: 0 26 14
BeginPrivate: 0
EndPrivate
Grid
629.5 1762 m 0
 629.5 -2334 l 0
EndSplineSet
TeXData: 1 0 0 259936 129968 86645 606518 1048576 86645 783286 444596 497025 792723 393216 433062 380633 303038 157286 324010 404750 52429 2506097 1059062 262144
BeginChars: 65539 201

StartChar: .notdef
Encoding: 65536 -1 0
Width: 942
VWidth: 2048
Flags: W
LayerCount: 2
Fore
SplineSet
0 1727 m 1,0,-1
 785 1727 l 1,1,-1
 785 0 l 1,2,-1
 0 0 l 1,3,-1
 0 1727 l 1,4,-1
 0 1727 l 1,0,-1
157 1570 m 1,5,-1
 157 157 l 1,6,-1
 628 157 l 1,7,-1
 628 1570 l 1,8,-1
 157 1570 l 1,9,-1
 157 1570 l 1,5,-1
EndSplineSet
Validated: 5
EndChar

StartChar: exclam
Encoding: 33 33 4
Width: 471
VWidth: 2048
GlyphClass: 2
Flags: W
LayerCount: 2
Fore
SplineSet
314 1727 m 1,0,-1
 314 471 l 1,1,-1
 157 471 l 1,2,-1
 157 1727 l 1,3,-1
 314 1727 l 1,0,-1
314 157 m 1,4,-1
 314 0 l 1,5,-1
 157 0 l 1,6,-1
 157 157 l 1,7,-1
 314 157 l 1,4,-1
EndSplineSet
Validated: 1
EndChar

StartChar: quotedbl
Encoding: 34 34 5
Width: 628
VWidth: 2048
GlyphClass: 2
Flags: W
LayerCount: 2
Fore
SplineSet
157 1727 m 1,0,-1
 157 1099 l 1,1,-1
 0 1099 l 1,2,-1
 0 1727 l 1,3,-1
 157 1727 l 1,0,-1
471 1727 m 1,4,-1
 471 1099 l 1,5,-1
 314 1099 l 1,6,-1
 314 1727 l 1,7,-1
 471 1727 l 1,4,-1
EndSplineSet
Validated: 1
EndChar

StartChar: numbersign
Encoding: 35 35 6
Width: 1413
VWidth: 2048
GlyphClass: 2
Flags: W
LayerCount: 2
Fore
SplineSet
628 1727 m 1,0,-1
 628 1256 l 1,1,-1
 942 1256 l 1,2,-1
 942 1727 l 1,3,-1
 1099 1727 l 1,4,-1
 1099 1256 l 1,5,-1
 1256 1256 l 1,6,-1
 1256 1099 l 1,7,-1
 942 1099 l 1,8,-1
 942 628 l 1,9,-1
 1256 628 l 1,10,-1
 1256 471 l 1,11,-1
 785 471 l 1,12,-1
 785 0 l 1,13,-1
 628 0 l 1,14,-1
 628 471 l 1,15,-1
 314 471 l 1,16,-1
 314 0 l 1,17,-1
 157 0 l 1,18,-1
 157 471 l 1,19,-1
 0 471 l 1,20,-1
 0 628 l 1,21,-1
 314 628 l 1,22,-1
 314 1099 l 1,23,-1
 0 1099 l 1,24,-1
 0 1256 l 1,25,-1
 471 1256 l 1,26,-1
 471 1727 l 1,27,-1
 628 1727 l 1,0,-1
471 628 m 1,28,-1
 785 628 l 1,29,-1
 785 1099 l 1,30,-1
 471 1099 l 1,31,-1
 471 628 l 1,28,-1
EndSplineSet
Validated: 1
EndChar

StartChar: dollar
Encoding: 36 36 7
Width: 942
VWidth: 2048
GlyphClass: 2
Flags: W
LayerCount: 2
Fore
SplineSet
628 1727 m 1,0,-1
 628 1570 l 1,1,-1
 314 1570 l 1,2,-1
 314 942 l 1,3,-1
 628 942 l 1,4,-1
 628 785 l 1,5,-1
 314 785 l 1,6,-1
 314 628 l 1,7,-1
 628 628 l 1,8,-1
 628 471 l 1,9,-1
 314 471 l 1,10,-1
 314 314 l 1,11,-1
 628 314 l 1,12,-1
 628 157 l 1,13,-1
 314 157 l 1,14,-1
 314 0 l 1,15,-1
 157 0 l 1,16,-1
 157 157 l 1,17,-1
 0 157 l 1,18,-1
 0 314 l 1,19,-1
 157 314 l 1,20,-1
 157 471 l 1,21,-1
 0 471 l 1,22,-1
 0 628 l 1,23,-1
 157 628 l 1,24,-1
 157 1727 l 1,25,-1
 628 1727 l 1,0,-1
785 1570 m 1,26,-1
 785 942 l 1,27,-1
 628 942 l 1,28,-1
 628 1570 l 1,29,-1
 785 1570 l 1,26,-1
EndSplineSet
Validated: 5
EndChar

StartChar: percent
Encoding: 37 37 8
Width: 942
VWidth: 2048
GlyphClass: 2
Flags: W
LayerCount: 2
Fore
SplineSet
471 1727 m 1,0,-1
 471 1256 l 1,1,-1
 628 1256 l 1,2,-1
 628 942 l 1,3,-1
 471 942 l 1,4,-1
 471 1099 l 1,5,-1
 0 1099 l 1,6,-1
 0 1727 l 1,7,-1
 471 1727 l 1,0,-1
157 1256 m 1,8,-1
 314 1256 l 1,9,-1
 314 1570 l 1,10,-1
 157 1570 l 1,11,-1
 157 1256 l 1,8,-1
785 1570 m 1,12,-1
 785 1256 l 1,13,-1
 628 1256 l 1,14,-1
 628 1570 l 1,15,-1
 785 1570 l 1,12,-1
471 942 m 1,16,-1
 471 628 l 1,17,-1
 314 628 l 1,18,-1
 314 942 l 1,19,-1
 471 942 l 1,16,-1
314 628 m 1,20,-1
 314 471 l 1,21,-1
 471 471 l 1,22,-1
 471 157 l 1,23,-1
 628 157 l 1,24,-1
 628 471 l 1,25,-1
 471 471 l 1,26,-1
 471 628 l 1,27,-1
 785 628 l 1,28,-1
 785 0 l 1,29,-1
 314 0 l 1,30,-1
 314 314 l 1,31,-1
 157 314 l 1,32,-1
 157 628 l 1,33,-1
 314 628 l 1,20,-1
157 314 m 1,34,-1
 157 0 l 1,35,-1
 0 0 l 1,36,-1
 0 314 l 1,37,-1
 157 314 l 1,34,-1
EndSplineSet
Validated: 5
EndChar

StartChar: ampersand
Encoding: 38 38 9
Width: 942
VWidth: 2048
GlyphClass: 2
Flags: W
LayerCount: 2
Fore
SplineSet
471 1570 m 1,0,-1
 471 1413 l 1,1,-1
 314 1413 l 1,2,-1
 314 1570 l 1,3,-1
 471 1570 l 1,0,-1
314 1413 m 1,4,-1
 314 1099 l 1,5,-1
 157 1099 l 1,6,-1
 157 1413 l 1,7,-1
 314 1413 l 1,4,-1
628 1413 m 1,8,-1
 628 1099 l 1,9,-1
 471 1099 l 1,10,-1
 471 1413 l 1,11,-1
 628 1413 l 1,8,-1
471 1099 m 1,12,-1
 471 785 l 1,13,-1
 314 785 l 1,14,-1
 314 1099 l 1,15,-1
 471 1099 l 1,12,-1
785 942 m 1,16,-1
 785 785 l 1,17,-1
 628 785 l 1,18,-1
 628 942 l 1,19,-1
 785 942 l 1,16,-1
314 785 m 1,20,-1
 314 628 l 1,21,-1
 157 628 l 1,22,-1
 157 785 l 1,23,-1
 314 785 l 1,20,-1
628 785 m 1,24,-1
 628 157 l 1,25,-1
 471 157 l 1,26,-1
 471 785 l 1,27,-1
 628 785 l 1,24,-1
157 628 m 1,28,-1
 157 157 l 1,29,-1
 0 157 l 1,30,-1
 0 628 l 1,31,-1
 157 628 l 1,28,-1
471 157 m 1,32,-1
 471 0 l 1,33,-1
 157 0 l 1,34,-1
 157 157 l 1,35,-1
 471 157 l 1,32,-1
785 157 m 1,36,-1
 785 0 l 1,37,-1
 628 0 l 1,38,-1
 628 157 l 1,39,-1
 785 157 l 1,36,-1
EndSplineSet
Validated: 5
EndChar

StartChar: quotesingle
Encoding: 39 39 10
Width: 471
VWidth: 2048
GlyphClass: 2
Flags: W
LayerCount: 2
Fore
SplineSet
314 1727 m 1,0,-1
 314 1256 l 1,1,-1
 157 1256 l 1,2,-1
 157 1413 l 1,3,-1
 0 1413 l 1,4,-1
 0 1727 l 1,5,-1
 314 1727 l 1,0,-1
157 1256 m 1,6,-1
 157 1099 l 1,7,-1
 0 1099 l 1,8,-1
 0 1256 l 1,9,-1
 157 1256 l 1,6,-1
EndSplineSet
Validated: 5
EndChar

StartChar: parenleft
Encoding: 40 40 11
Width: 628
VWidth: 2048
GlyphClass: 2
Flags: W
LayerCount: 2
Fore
SplineSet
471 1727 m 1,0,-1
 471 1570 l 1,1,-1
 314 1570 l 1,2,-1
 314 1727 l 1,3,-1
 471 1727 l 1,0,-1
314 1570 m 1,4,-1
 314 157 l 1,5,-1
 157 157 l 1,6,-1
 157 1570 l 1,7,-1
 314 1570 l 1,4,-1
471 157 m 1,8,-1
 471 0 l 1,9,-1
 314 0 l 1,10,-1
 314 157 l 1,11,-1
 471 157 l 1,8,-1
EndSplineSet
Validated: 5
EndChar

StartChar: parenright
Encoding: 41 41 12
Width: 628
VWidth: 2048
GlyphClass: 2
Flags: W
LayerCount: 2
Fore
SplineSet
314 1727 m 1,0,-1
 314 1570 l 1,1,-1
 157 1570 l 1,2,-1
 157 1727 l 1,3,-1
 314 1727 l 1,0,-1
471 1570 m 1,4,-1
 471 157 l 1,5,-1
 314 157 l 1,6,-1
 314 1570 l 1,7,-1
 471 1570 l 1,4,-1
314 157 m 1,8,-1
 314 0 l 1,9,-1
 157 0 l 1,10,-1
 157 157 l 1,11,-1
 314 157 l 1,8,-1
EndSplineSet
Validated: 5
EndChar

StartChar: asterisk
Encoding: 42 42 13
Width: 942
VWidth: 2048
GlyphClass: 2
Flags: W
LayerCount: 2
Fore
SplineSet
157 1099 m 1,0,-1
 157 942 l 1,1,-1
 0 942 l 1,2,-1
 0 1099 l 1,3,-1
 157 1099 l 1,0,-1
471 1099 m 1,4,-1
 471 942 l 1,5,-1
 628 942 l 1,6,-1
 628 785 l 1,7,-1
 785 785 l 1,8,-1
 785 628 l 1,9,-1
 628 628 l 1,10,-1
 628 471 l 1,11,-1
 471 471 l 1,12,-1
 471 314 l 1,13,-1
 314 314 l 1,14,-1
 314 471 l 1,15,-1
 157 471 l 1,16,-1
 157 628 l 1,17,-1
 0 628 l 1,18,-1
 0 785 l 1,19,-1
 157 785 l 1,20,-1
 157 942 l 1,21,-1
 314 942 l 1,22,-1
 314 1099 l 1,23,-1
 471 1099 l 1,4,-1
785 1099 m 1,24,-1
 785 942 l 1,25,-1
 628 942 l 1,26,-1
 628 1099 l 1,27,-1
 785 1099 l 1,24,-1
157 471 m 1,28,-1
 157 314 l 1,29,-1
 0 314 l 1,30,-1
 0 471 l 1,31,-1
 157 471 l 1,28,-1
785 471 m 1,32,-1
 785 314 l 1,33,-1
 628 314 l 1,34,-1
 628 471 l 1,35,-1
 785 471 l 1,32,-1
EndSplineSet
Validated: 5
EndChar

StartChar: plus
Encoding: 43 43 14
Width: 942
VWidth: 2048
GlyphClass: 2
Flags: W
LayerCount: 2
Fore
SplineSet
471 1099 m 1,0,-1
 471 785 l 1,1,-1
 785 785 l 1,2,-1
 785 628 l 1,3,-1
 471 628 l 1,4,-1
 471 314 l 1,5,-1
 314 314 l 1,6,-1
 314 628 l 1,7,-1
 0 628 l 1,8,-1
 0 785 l 1,9,-1
 314 785 l 1,10,-1
 314 1099 l 1,11,-1
 471 1099 l 1,0,-1
EndSplineSet
Validated: 1
EndChar

StartChar: comma
Encoding: 44 44 15
Width: 471
VWidth: 2048
GlyphClass: 2
Flags: W
LayerCount: 2
Fore
SplineSet
314 471 m 1,0,-1
 314 0 l 1,1,-1
 157 0 l 1,2,-1
 157 157 l 1,3,-1
 0 157 l 1,4,-1
 0 471 l 1,5,-1
 314 471 l 1,0,-1
157 0 m 1,6,-1
 157 -157 l 1,7,-1
 0 -157 l 1,8,-1
 0 0 l 1,9,-1
 157 0 l 1,6,-1
EndSplineSet
Validated: 5
EndChar

StartChar: glyph14
Encoding: 45 45 16
Width: 785
VWidth: 2048
GlyphClass: 2
Flags: W
LayerCount: 2
Fore
SplineSet
628 942 m 1,0,-1
 628 785 l 1,1,-1
 0 785 l 1,2,-1
 0 942 l 1,3,-1
 628 942 l 1,0,-1
EndSplineSet
Validated: 1
EndChar

StartChar: period
Encoding: 46 46 17
Width: 471
VWidth: 2048
GlyphClass: 2
Flags: W
LayerCount: 2
Fore
SplineSet
314 314 m 1,0,-1
 314 0 l 1,1,-1
 0 0 l 1,2,-1
 0 314 l 1,3,-1
 314 314 l 1,0,-1
EndSplineSet
Validated: 1
EndChar

StartChar: slash
Encoding: 47 47 18
Width: 942
VWidth: 2048
GlyphClass: 2
Flags: W
LayerCount: 2
Fore
SplineSet
785 1570 m 1,0,-1
 785 1256 l 1,1,-1
 628 1256 l 1,2,-1
 628 1570 l 1,3,-1
 785 1570 l 1,0,-1
628 1256 m 1,4,-1
 628 942 l 1,5,-1
 471 942 l 1,6,-1
 471 1256 l 1,7,-1
 628 1256 l 1,4,-1
471 942 m 1,8,-1
 471 628 l 1,9,-1
 314 628 l 1,10,-1
 314 942 l 1,11,-1
 471 942 l 1,8,-1
314 628 m 1,12,-1
 314 314 l 1,13,-1
 157 314 l 1,14,-1
 157 628 l 1,15,-1
 314 628 l 1,12,-1
157 314 m 1,16,-1
 157 0 l 1,17,-1
 0 0 l 1,18,-1
 0 314 l 1,19,-1
 157 314 l 1,16,-1
EndSplineSet
Validated: 5
EndChar

StartChar: zero
Encoding: 48 48 19
Width: 942
VWidth: 2048
GlyphClass: 2
Flags: W
LayerCount: 2
Fore
SplineSet
628 1727 m 1,0,-1
 628 1570 l 1,1,-1
 314 1570 l 1,2,-1
 314 1727 l 1,3,-1
 628 1727 l 1,0,-1
314 1570 m 1,4,-1
 314 157 l 1,5,-1
 157 157 l 1,6,-1
 157 1570 l 1,7,-1
 314 1570 l 1,4,-1
785 1570 m 1,8,-1
 785 157 l 1,9,-1
 628 157 l 1,10,-1
 628 1570 l 1,11,-1
 785 1570 l 1,8,-1
628 157 m 1,12,-1
 628 0 l 1,13,-1
 314 0 l 1,14,-1
 314 157 l 1,15,-1
 628 157 l 1,12,-1
EndSplineSet
Validated: 5
EndChar

StartChar: one
Encoding: 49 49 20
Width: 942
VWidth: 2048
GlyphClass: 2
Flags: W
LayerCount: 2
Fore
SplineSet
471 1727 m 1,0,-1
 471 157 l 1,1,-1
 628 157 l 1,2,-1
 628 0 l 1,3,-1
 157 0 l 1,4,-1
 157 157 l 1,5,-1
 314 157 l 1,6,-1
 314 1570 l 1,7,-1
 157 1570 l 1,8,-1
 157 1727 l 1,9,-1
 471 1727 l 1,0,-1
EndSplineSet
Validated: 1
EndChar

StartChar: two
Encoding: 50 50 21
Width: 942
VWidth: 2048
GlyphClass: 2
Flags: W
LayerCount: 2
Fore
SplineSet
628 1727 m 1,0,-1
 628 1570 l 1,1,-1
 157 1570 l 1,2,-1
 157 1727 l 1,3,-1
 628 1727 l 1,0,-1
157 1570 m 1,4,-1
 157 1099 l 1,5,-1
 0 1099 l 1,6,-1
 0 1570 l 1,7,-1
 157 1570 l 1,4,-1
785 1570 m 1,8,-1
 785 942 l 1,9,-1
 628 942 l 1,10,-1
 628 1570 l 1,11,-1
 785 1570 l 1,8,-1
628 942 m 1,12,-1
 628 628 l 1,13,-1
 471 628 l 1,14,-1
 471 942 l 1,15,-1
 628 942 l 1,12,-1
471 628 m 1,16,-1
 471 471 l 1,17,-1
 314 471 l 1,18,-1
 314 628 l 1,19,-1
 471 628 l 1,16,-1
314 471 m 1,20,-1
 314 314 l 1,21,-1
 157 314 l 1,22,-1
 157 471 l 1,23,-1
 314 471 l 1,20,-1
157 314 m 1,24,-1
 157 157 l 1,25,-1
 785 157 l 1,26,-1
 785 0 l 1,27,-1
 0 0 l 1,28,-1
 0 314 l 1,29,-1
 157 314 l 1,24,-1
EndSplineSet
Validated: 5
EndChar

StartChar: three
Encoding: 51 51 22
Width: 942
VWidth: 2048
GlyphClass: 2
Flags: W
LayerCount: 2
Fore
SplineSet
628 1727 m 1,0,-1
 628 1570 l 1,1,-1
 157 1570 l 1,2,-1
 157 1727 l 1,3,-1
 628 1727 l 1,0,-1
157 1570 m 1,4,-1
 157 1256 l 1,5,-1
 0 1256 l 1,6,-1
 0 1570 l 1,7,-1
 157 1570 l 1,4,-1
785 1570 m 1,8,-1
 785 942 l 1,9,-1
 628 942 l 1,10,-1
 628 1570 l 1,11,-1
 785 1570 l 1,8,-1
628 942 m 1,12,-1
 628 785 l 1,13,-1
 314 785 l 1,14,-1
 314 942 l 1,15,-1
 628 942 l 1,12,-1
785 785 m 1,16,-1
 785 157 l 1,17,-1
 628 157 l 1,18,-1
 628 785 l 1,19,-1
 785 785 l 1,16,-1
157 314 m 1,20,-1
 157 157 l 1,21,-1
 0 157 l 1,22,-1
 0 314 l 1,23,-1
 157 314 l 1,20,-1
628 157 m 1,24,-1
 628 0 l 1,25,-1
 157 0 l 1,26,-1
 157 157 l 1,27,-1
 628 157 l 1,24,-1
EndSplineSet
Validated: 5
EndChar

StartChar: four
Encoding: 52 52 23
Width: 942
VWidth: 2048
GlyphClass: 2
Flags: W
LayerCount: 2
Fore
SplineSet
628 1727 m 1,0,-1
 628 471 l 1,1,-1
 785 471 l 1,2,-1
 785 314 l 1,3,-1
 628 314 l 1,4,-1
 628 0 l 1,5,-1
 471 0 l 1,6,-1
 471 314 l 1,7,-1
 0 314 l 1,8,-1
 0 1256 l 1,9,-1
 157 1256 l 1,10,-1
 157 471 l 1,11,-1
 471 471 l 1,12,-1
 471 1570 l 1,13,-1
 314 1570 l 1,14,-1
 314 1727 l 1,15,-1
 628 1727 l 1,0,-1
314 1570 m 1,16,-1
 314 1256 l 1,17,-1
 157 1256 l 1,18,-1
 157 1570 l 1,19,-1
 314 1570 l 1,16,-1
EndSplineSet
Validated: 5
EndChar

StartChar: five
Encoding: 53 53 24
Width: 942
VWidth: 2048
GlyphClass: 2
Flags: W
LayerCount: 2
Fore
SplineSet
785 1727 m 1,0,-1
 785 1570 l 1,1,-1
 157 1570 l 1,2,-1
 157 1099 l 1,3,-1
 628 1099 l 1,4,-1
 628 942 l 1,5,-1
 0 942 l 1,6,-1
 0 1727 l 1,7,-1
 785 1727 l 1,0,-1
785 942 m 1,8,-1
 785 157 l 1,9,-1
 628 157 l 1,10,-1
 628 942 l 1,11,-1
 785 942 l 1,8,-1
157 314 m 1,12,-1
 157 157 l 1,13,-1
 0 157 l 1,14,-1
 0 314 l 1,15,-1
 157 314 l 1,12,-1
628 157 m 1,16,-1
 628 0 l 1,17,-1
 157 0 l 1,18,-1
 157 157 l 1,19,-1
 628 157 l 1,16,-1
EndSplineSet
Validated: 5
EndChar

StartChar: six
Encoding: 54 54 25
Width: 942
VWidth: 2048
GlyphClass: 2
Flags: W
LayerCount: 2
Fore
SplineSet
628 1727 m 1,0,-1
 628 1570 l 1,1,-1
 157 1570 l 1,2,-1
 157 1727 l 1,3,-1
 628 1727 l 1,0,-1
157 1570 m 1,4,-1
 157 1099 l 1,5,-1
 628 1099 l 1,6,-1
 628 942 l 1,7,-1
 157 942 l 1,8,-1
 157 157 l 1,9,-1
 0 157 l 1,10,-1
 0 1570 l 1,11,-1
 157 1570 l 1,4,-1
785 1570 m 1,12,-1
 785 1413 l 1,13,-1
 628 1413 l 1,14,-1
 628 1570 l 1,15,-1
 785 1570 l 1,12,-1
785 942 m 1,16,-1
 785 157 l 1,17,-1
 628 157 l 1,18,-1
 628 942 l 1,19,-1
 785 942 l 1,16,-1
628 157 m 1,20,-1
 628 0 l 1,21,-1
 157 0 l 1,22,-1
 157 157 l 1,23,-1
 628 157 l 1,20,-1
EndSplineSet
Validated: 5
EndChar

StartChar: seven
Encoding: 55 55 26
Width: 942
VWidth: 2048
GlyphClass: 2
Flags: W
LayerCount: 2
Fore
SplineSet
785 1727 m 1,0,-1
 785 942 l 1,1,-1
 628 942 l 1,2,-1
 628 1570 l 1,3,-1
 0 1570 l 1,4,-1
 0 1727 l 1,5,-1
 785 1727 l 1,0,-1
628 942 m 1,6,-1
 628 628 l 1,7,-1
 471 628 l 1,8,-1
 471 942 l 1,9,-1
 628 942 l 1,6,-1
471 628 m 1,10,-1
 471 0 l 1,11,-1
 314 0 l 1,12,-1
 314 628 l 1,13,-1
 471 628 l 1,10,-1
EndSplineSet
Validated: 5
EndChar

StartChar: eight
Encoding: 56 56 27
Width: 942
VWidth: 2048
GlyphClass: 2
Flags: W
LayerCount: 2
Fore
SplineSet
628 1727 m 1,0,-1
 628 1570 l 1,1,-1
 157 1570 l 1,2,-1
 157 1727 l 1,3,-1
 628 1727 l 1,0,-1
157 1570 m 1,4,-1
 157 942 l 1,5,-1
 0 942 l 1,6,-1
 0 1570 l 1,7,-1
 157 1570 l 1,4,-1
785 1570 m 1,8,-1
 785 942 l 1,9,-1
 628 942 l 1,10,-1
 628 1570 l 1,11,-1
 785 1570 l 1,8,-1
628 942 m 1,12,-1
 628 785 l 1,13,-1
 157 785 l 1,14,-1
 157 942 l 1,15,-1
 628 942 l 1,12,-1
157 785 m 1,16,-1
 157 157 l 1,17,-1
 0 157 l 1,18,-1
 0 785 l 1,19,-1
 157 785 l 1,16,-1
785 785 m 1,20,-1
 785 157 l 1,21,-1
 628 157 l 1,22,-1
 628 785 l 1,23,-1
 785 785 l 1,20,-1
628 157 m 1,24,-1
 628 0 l 1,25,-1
 157 0 l 1,26,-1
 157 157 l 1,27,-1
 628 157 l 1,24,-1
EndSplineSet
Validated: 5
EndChar

StartChar: nine
Encoding: 57 57 28
Width: 942
VWidth: 2048
GlyphClass: 2
Flags: W
LayerCount: 2
Fore
SplineSet
628 1727 m 1,0,-1
 628 1570 l 1,1,-1
 157 1570 l 1,2,-1
 157 1727 l 1,3,-1
 628 1727 l 1,0,-1
157 1570 m 1,4,-1
 157 942 l 1,5,-1
 0 942 l 1,6,-1
 0 1570 l 1,7,-1
 157 1570 l 1,4,-1
785 1570 m 1,8,-1
 785 157 l 1,9,-1
 628 157 l 1,10,-1
 628 785 l 1,11,-1
 157 785 l 1,12,-1
 157 942 l 1,13,-1
 628 942 l 1,14,-1
 628 1570 l 1,15,-1
 785 1570 l 1,8,-1
157 314 m 1,16,-1
 157 157 l 1,17,-1
 0 157 l 1,18,-1
 0 314 l 1,19,-1
 157 314 l 1,16,-1
628 157 m 1,20,-1
 628 0 l 1,21,-1
 157 0 l 1,22,-1
 157 157 l 1,23,-1
 628 157 l 1,20,-1
EndSplineSet
Validated: 5
EndChar

StartChar: colon
Encoding: 58 58 29
Width: 471
VWidth: 2048
GlyphClass: 2
Flags: W
LayerCount: 2
Fore
SplineSet
314 1413 m 1,0,-1
 314 1099 l 1,1,-1
 0 1099 l 1,2,-1
 0 1413 l 1,3,-1
 314 1413 l 1,0,-1
314 471 m 1,4,-1
 314 157 l 1,5,-1
 0 157 l 1,6,-1
 0 471 l 1,7,-1
 314 471 l 1,4,-1
EndSplineSet
Validated: 1
EndChar

StartChar: semicolon
Encoding: 59 59 30
Width: 471
VWidth: 2048
GlyphClass: 2
Flags: W
LayerCount: 2
Fore
SplineSet
314 1413 m 1,0,-1
 314 1099 l 1,1,-1
 0 1099 l 1,2,-1
 0 1413 l 1,3,-1
 314 1413 l 1,0,-1
314 471 m 1,4,-1
 314 0 l 1,5,-1
 157 0 l 1,6,-1
 157 157 l 1,7,-1
 0 157 l 1,8,-1
 0 471 l 1,9,-1
 314 471 l 1,4,-1
157 0 m 1,10,-1
 157 -157 l 1,11,-1
 0 -157 l 1,12,-1
 0 0 l 1,13,-1
 157 0 l 1,10,-1
EndSplineSet
Validated: 5
EndChar

StartChar: less
Encoding: 60 60 31
Width: 1099
VWidth: 2048
GlyphClass: 2
Flags: W
LayerCount: 2
Fore
SplineSet
942 1727 m 1,0,-1
 942 1570 l 1,1,-1
 785 1570 l 1,2,-1
 785 1727 l 1,3,-1
 942 1727 l 1,0,-1
785 1570 m 1,4,-1
 785 1413 l 1,5,-1
 628 1413 l 1,6,-1
 628 1570 l 1,7,-1
 785 1570 l 1,4,-1
628 1413 m 1,8,-1
 628 1256 l 1,9,-1
 471 1256 l 1,10,-1
 471 1413 l 1,11,-1
 628 1413 l 1,8,-1
471 1256 m 1,12,-1
 471 1099 l 1,13,-1
 314 1099 l 1,14,-1
 314 1256 l 1,15,-1
 471 1256 l 1,12,-1
314 1099 m 1,16,-1
 314 942 l 1,17,-1
 157 942 l 1,18,-1
 157 1099 l 1,19,-1
 314 1099 l 1,16,-1
157 942 m 1,20,-1
 157 628 l 1,21,-1
 0 628 l 1,22,-1
 0 942 l 1,23,-1
 157 942 l 1,20,-1
314 628 m 1,24,-1
 314 471 l 1,25,-1
 157 471 l 1,26,-1
 157 628 l 1,27,-1
 314 628 l 1,24,-1
471 471 m 1,28,-1
 471 314 l 1,29,-1
 314 314 l 1,30,-1
 314 471 l 1,31,-1
 471 471 l 1,28,-1
628 314 m 1,32,-1
 628 157 l 1,33,-1
 471 157 l 1,34,-1
 471 314 l 1,35,-1
 628 314 l 1,32,-1
785 157 m 1,36,-1
 785 0 l 1,37,-1
 628 0 l 1,38,-1
 628 157 l 1,39,-1
 785 157 l 1,36,-1
942 0 m 1,40,-1
 942 -157 l 1,41,-1
 785 -157 l 1,42,-1
 785 0 l 1,43,-1
 942 0 l 1,40,-1
EndSplineSet
Validated: 5
EndChar

StartChar: equal
Encoding: 61 61 32
Width: 1099
VWidth: 2048
GlyphClass: 2
Flags: W
LayerCount: 2
Fore
SplineSet
942 1099 m 1,0,-1
 942 942 l 1,1,-1
 157 942 l 1,2,-1
 157 1099 l 1,3,-1
 942 1099 l 1,0,-1
942 628 m 1,4,-1
 942 471 l 1,5,-1
 157 471 l 1,6,-1
 157 628 l 1,7,-1
 942 628 l 1,4,-1
EndSplineSet
Validated: 1
EndChar

StartChar: greater
Encoding: 62 62 33
Width: 1099
VWidth: 2048
GlyphClass: 2
Flags: W
LayerCount: 2
Fore
SplineSet
157 1727 m 1,0,-1
 157 1570 l 1,1,-1
 0 1570 l 1,2,-1
 0 1727 l 1,3,-1
 157 1727 l 1,0,-1
314 1570 m 1,4,-1
 314 1413 l 1,5,-1
 157 1413 l 1,6,-1
 157 1570 l 1,7,-1
 314 1570 l 1,4,-1
471 1413 m 1,8,-1
 471 1256 l 1,9,-1
 314 1256 l 1,10,-1
 314 1413 l 1,11,-1
 471 1413 l 1,8,-1
628 1256 m 1,12,-1
 628 1099 l 1,13,-1
 471 1099 l 1,14,-1
 471 1256 l 1,15,-1
 628 1256 l 1,12,-1
785 1099 m 1,16,-1
 785 942 l 1,17,-1
 628 942 l 1,18,-1
 628 1099 l 1,19,-1
 785 1099 l 1,16,-1
942 942 m 1,20,-1
 942 628 l 1,21,-1
 785 628 l 1,22,-1
 785 942 l 1,23,-1
 942 942 l 1,20,-1
785 628 m 1,24,-1
 785 471 l 1,25,-1
 628 471 l 1,26,-1
 628 628 l 1,27,-1
 785 628 l 1,24,-1
628 471 m 1,28,-1
 628 314 l 1,29,-1
 471 314 l 1,30,-1
 471 471 l 1,31,-1
 628 471 l 1,28,-1
471 314 m 1,32,-1
 471 157 l 1,33,-1
 314 157 l 1,34,-1
 314 314 l 1,35,-1
 471 314 l 1,32,-1
314 157 m 1,36,-1
 314 0 l 1,37,-1
 157 0 l 1,38,-1
 157 157 l 1,39,-1
 314 157 l 1,36,-1
157 0 m 1,40,-1
 157 -157 l 1,41,-1
 0 -157 l 1,42,-1
 0 0 l 1,43,-1
 157 0 l 1,40,-1
EndSplineSet
Validated: 5
EndChar

StartChar: question
Encoding: 63 63 34
Width: 942
VWidth: 2048
GlyphClass: 2
Flags: W
LayerCount: 2
Fore
SplineSet
628 1727 m 1,0,-1
 628 1570 l 1,1,-1
 157 1570 l 1,2,-1
 157 1727 l 1,3,-1
 628 1727 l 1,0,-1
157 1570 m 1,4,-1
 157 1256 l 1,5,-1
 0 1256 l 1,6,-1
 0 1570 l 1,7,-1
 157 1570 l 1,4,-1
785 1570 m 1,8,-1
 785 942 l 1,9,-1
 628 942 l 1,10,-1
 628 1570 l 1,11,-1
 785 1570 l 1,8,-1
628 942 m 1,12,-1
 628 628 l 1,13,-1
 471 628 l 1,14,-1
 471 471 l 1,15,-1
 314 471 l 1,16,-1
 314 785 l 1,17,-1
 471 785 l 1,18,-1
 471 942 l 1,19,-1
 628 942 l 1,12,-1
471 157 m 1,20,-1
 471 0 l 1,21,-1
 314 0 l 1,22,-1
 314 157 l 1,23,-1
 471 157 l 1,20,-1
EndSplineSet
Validated: 5
EndChar

StartChar: at
Encoding: 64 64 35
Width: 1413
VWidth: 2048
GlyphClass: 2
Flags: W
LayerCount: 2
Fore
SplineSet
942 1727 m 1,0,-1
 942 1570 l 1,1,-1
 314 1570 l 1,2,-1
 314 1727 l 1,3,-1
 942 1727 l 1,0,-1
314 1570 m 1,4,-1
 314 1413 l 1,5,-1
 157 1413 l 1,6,-1
 157 1570 l 1,7,-1
 314 1570 l 1,4,-1
1099 1570 m 1,8,-1
 1099 1413 l 1,9,-1
 942 1413 l 1,10,-1
 942 1570 l 1,11,-1
 1099 1570 l 1,8,-1
157 1413 m 1,12,-1
 157 314 l 1,13,-1
 0 314 l 1,14,-1
 0 1413 l 1,15,-1
 157 1413 l 1,12,-1
1256 1413 m 1,16,-1
 1256 471 l 1,17,-1
 1099 471 l 1,18,-1
 1099 1413 l 1,19,-1
 1256 1413 l 1,16,-1
785 1256 m 1,20,-1
 785 1099 l 1,21,-1
 471 1099 l 1,22,-1
 471 1256 l 1,23,-1
 785 1256 l 1,20,-1
942 1099 m 1,24,-1
 942 471 l 1,25,-1
 1099 471 l 1,26,-1
 1099 314 l 1,27,-1
 471 314 l 1,28,-1
 471 471 l 1,29,-1
 785 471 l 1,30,-1
 785 785 l 1,31,-1
 471 785 l 1,32,-1
 471 942 l 1,33,-1
 785 942 l 1,34,-1
 785 1099 l 1,35,-1
 942 1099 l 1,24,-1
471 785 m 1,36,-1
 471 471 l 1,37,-1
 314 471 l 1,38,-1
 314 785 l 1,39,-1
 471 785 l 1,36,-1
314 314 m 1,40,-1
 314 157 l 1,41,-1
 157 157 l 1,42,-1
 157 314 l 1,43,-1
 314 314 l 1,40,-1
1256 157 m 1,44,-1
 1256 0 l 1,45,-1
 314 0 l 1,46,-1
 314 157 l 1,47,-1
 1256 157 l 1,44,-1
EndSplineSet
Validated: 5
EndChar

StartChar: A
Encoding: 65 65 36
Width: 942
VWidth: 2048
GlyphClass: 2
Flags: WO
LayerCount: 2
Fore
SplineSet
628 1727 m 1,0,-1
 628 1570 l 1,1,-1
 157 1570 l 1,2,-1
 157 1727 l 1,3,-1
 628 1727 l 1,0,-1
157 1570 m 1,4,-1
 157 628 l 1,5,-1
 628 628 l 1,6,-1
 628 1570 l 1,7,-1
 785 1570 l 1,8,-1
 785 0 l 1,9,-1
 628 0 l 1,10,-1
 628 471 l 1,11,-1
 157 471 l 1,12,-1
 157 0 l 1,13,-1
 0 0 l 1,14,-1
 0 1570 l 1,15,-1
 157 1570 l 1,4,-1
EndSplineSet
Validated: 5
EndChar

StartChar: B
Encoding: 66 66 37
Width: 942
VWidth: 2048
GlyphClass: 2
Flags: W
LayerCount: 2
Fore
SplineSet
628 1727 m 1,0,-1
 628 1570 l 1,1,-1
 157 1570 l 1,2,-1
 157 942 l 1,3,-1
 628 942 l 1,4,-1
 628 785 l 1,5,-1
 157 785 l 1,6,-1
 157 157 l 1,7,-1
 628 157 l 1,8,-1
 628 0 l 1,9,-1
 0 0 l 1,10,-1
 0 1727 l 1,11,-1
 628 1727 l 1,0,-1
785 1570 m 1,12,-1
 785 942 l 1,13,-1
 628 942 l 1,14,-1
 628 1570 l 1,15,-1
 785 1570 l 1,12,-1
785 785 m 1,16,-1
 785 157 l 1,17,-1
 628 157 l 1,18,-1
 628 785 l 1,19,-1
 785 785 l 1,16,-1
EndSplineSet
Validated: 5
EndChar

StartChar: C
Encoding: 67 67 38
Width: 942
VWidth: 2048
GlyphClass: 2
Flags: W
LayerCount: 2
Fore
SplineSet
628 1727 m 1,0,-1
 628 1570 l 1,1,-1
 157 1570 l 1,2,-1
 157 1727 l 1,3,-1
 628 1727 l 1,0,-1
157 1570 m 1,4,-1
 157 157 l 1,5,-1
 0 157 l 1,6,-1
 0 1570 l 1,7,-1
 157 1570 l 1,4,-1
785 1570 m 1,8,-1
 785 1256 l 1,9,-1
 628 1256 l 1,10,-1
 628 1570 l 1,11,-1
 785 1570 l 1,8,-1
785 471 m 1,12,-1
 785 157 l 1,13,-1
 628 157 l 1,14,-1
 628 471 l 1,15,-1
 785 471 l 1,12,-1
628 157 m 1,16,-1
 628 0 l 1,17,-1
 157 0 l 1,18,-1
 157 157 l 1,19,-1
 628 157 l 1,16,-1
EndSplineSet
Validated: 5
EndChar

StartChar: D
Encoding: 68 68 39
Width: 942
VWidth: 2048
GlyphClass: 2
Flags: W
LayerCount: 2
Fore
SplineSet
628 1727 m 1,0,-1
 628 1570 l 1,1,-1
 157 1570 l 1,2,-1
 157 157 l 1,3,-1
 628 157 l 1,4,-1
 628 0 l 1,5,-1
 0 0 l 1,6,-1
 0 1727 l 1,7,-1
 628 1727 l 1,0,-1
785 1570 m 1,8,-1
 785 157 l 1,9,-1
 628 157 l 1,10,-1
 628 1570 l 1,11,-1
 785 1570 l 1,8,-1
EndSplineSet
Validated: 5
EndChar

StartChar: E
Encoding: 69 69 40
Width: 942
VWidth: 2048
GlyphClass: 2
Flags: W
LayerCount: 2
Fore
SplineSet
785 1727 m 1,0,-1
 785 1570 l 1,1,-1
 157 1570 l 1,2,-1
 157 942 l 1,3,-1
 628 942 l 1,4,-1
 628 785 l 1,5,-1
 157 785 l 1,6,-1
 157 157 l 1,7,-1
 785 157 l 1,8,-1
 785 0 l 1,9,-1
 0 0 l 1,10,-1
 0 1727 l 1,11,-1
 785 1727 l 1,0,-1
EndSplineSet
Validated: 1
EndChar

StartChar: F
Encoding: 70 70 41
Width: 942
VWidth: 2048
GlyphClass: 2
Flags: W
LayerCount: 2
Fore
SplineSet
785 1727 m 1,0,-1
 785 1570 l 1,1,-1
 157 1570 l 1,2,-1
 157 942 l 1,3,-1
 628 942 l 1,4,-1
 628 785 l 1,5,-1
 157 785 l 1,6,-1
 157 0 l 1,7,-1
 0 0 l 1,8,-1
 0 1727 l 1,9,-1
 785 1727 l 1,0,-1
EndSplineSet
Validated: 1
EndChar

StartChar: G
Encoding: 71 71 42
Width: 942
VWidth: 2048
GlyphClass: 2
Flags: W
LayerCount: 2
Fore
SplineSet
628 1727 m 1,0,-1
 628 1570 l 1,1,-1
 157 1570 l 1,2,-1
 157 1727 l 1,3,-1
 628 1727 l 1,0,-1
157 1570 m 1,4,-1
 157 157 l 1,5,-1
 0 157 l 1,6,-1
 0 1570 l 1,7,-1
 157 1570 l 1,4,-1
785 1570 m 1,8,-1
 785 1256 l 1,9,-1
 628 1256 l 1,10,-1
 628 1570 l 1,11,-1
 785 1570 l 1,8,-1
785 942 m 1,12,-1
 785 157 l 1,13,-1
 628 157 l 1,14,-1
 628 785 l 1,15,-1
 471 785 l 1,16,-1
 471 942 l 1,17,-1
 785 942 l 1,12,-1
628 157 m 1,18,-1
 628 0 l 1,19,-1
 157 0 l 1,20,-1
 157 157 l 1,21,-1
 628 157 l 1,18,-1
EndSplineSet
Validated: 5
EndChar

StartChar: H
Encoding: 72 72 43
Width: 942
VWidth: 2048
GlyphClass: 2
Flags: W
LayerCount: 2
Fore
SplineSet
157 1727 m 1,0,-1
 157 942 l 1,1,-1
 628 942 l 1,2,-1
 628 1727 l 1,3,-1
 785 1727 l 1,4,-1
 785 0 l 1,5,-1
 628 0 l 1,6,-1
 628 785 l 1,7,-1
 157 785 l 1,8,-1
 157 0 l 1,9,-1
 0 0 l 1,10,-1
 0 1727 l 1,11,-1
 157 1727 l 1,0,-1
EndSplineSet
Validated: 1
EndChar

StartChar: I
Encoding: 73 73 44
Width: 942
VWidth: 2048
GlyphClass: 2
Flags: W
LayerCount: 2
Fore
SplineSet
785 1727 m 1,0,-1
 785 1570 l 1,1,-1
 471 1570 l 1,2,-1
 471 157 l 1,3,-1
 785 157 l 1,4,-1
 785 0 l 1,5,-1
 0 0 l 1,6,-1
 0 157 l 1,7,-1
 314 157 l 1,8,-1
 314 1570 l 1,9,-1
 0 1570 l 1,10,-1
 0 1727 l 1,11,-1
 785 1727 l 1,0,-1
EndSplineSet
Validated: 1
EndChar

StartChar: J
Encoding: 74 74 45
Width: 942
VWidth: 2048
GlyphClass: 2
Flags: W
LayerCount: 2
Fore
SplineSet
785 1727 m 1,0,-1
 785 157 l 1,1,-1
 628 157 l 1,2,-1
 628 1727 l 1,3,-1
 785 1727 l 1,0,-1
157 314 m 1,4,-1
 157 157 l 1,5,-1
 0 157 l 1,6,-1
 0 314 l 1,7,-1
 157 314 l 1,4,-1
628 157 m 1,8,-1
 628 0 l 1,9,-1
 157 0 l 1,10,-1
 157 157 l 1,11,-1
 628 157 l 1,8,-1
EndSplineSet
Validated: 5
EndChar

StartChar: K
Encoding: 75 75 46
Width: 942
VWidth: 2048
GlyphClass: 2
Flags: W
LayerCount: 2
Fore
SplineSet
157 1727 m 1,0,-1
 157 942 l 1,1,-1
 314 942 l 1,2,-1
 314 628 l 1,3,-1
 157 628 l 1,4,-1
 157 0 l 1,5,-1
 0 0 l 1,6,-1
 0 1727 l 1,7,-1
 157 1727 l 1,0,-1
785 1727 m 1,8,-1
 785 1256 l 1,9,-1
 628 1256 l 1,10,-1
 628 1727 l 1,11,-1
 785 1727 l 1,8,-1
628 1256 m 1,12,-1
 628 1099 l 1,13,-1
 471 1099 l 1,14,-1
 471 1256 l 1,15,-1
 628 1256 l 1,12,-1
471 1099 m 1,16,-1
 471 942 l 1,17,-1
 314 942 l 1,18,-1
 314 1099 l 1,19,-1
 471 1099 l 1,16,-1
471 628 m 1,20,-1
 471 471 l 1,21,-1
 314 471 l 1,22,-1
 314 628 l 1,23,-1
 471 628 l 1,20,-1
628 471 m 1,24,-1
 628 314 l 1,25,-1
 471 314 l 1,26,-1
 471 471 l 1,27,-1
 628 471 l 1,24,-1
785 314 m 1,28,-1
 785 0 l 1,29,-1
 628 0 l 1,30,-1
 628 314 l 1,31,-1
 785 314 l 1,28,-1
EndSplineSet
Validated: 5
EndChar

StartChar: L
Encoding: 76 76 47
Width: 942
VWidth: 2048
GlyphClass: 2
Flags: W
LayerCount: 2
Fore
SplineSet
157 1727 m 1,0,-1
 157 157 l 1,1,-1
 785 157 l 1,2,-1
 785 0 l 1,3,-1
 0 0 l 1,4,-1
 0 1727 l 1,5,-1
 157 1727 l 1,0,-1
EndSplineSet
Validated: 1
EndChar

StartChar: M
Encoding: 77 77 48
Width: 942
VWidth: 2048
GlyphClass: 2
Flags: W
LayerCount: 2
Fore
SplineSet
157 1727 m 1,0,-1
 157 1256 l 1,1,-1
 314 1256 l 1,2,-1
 314 942 l 1,3,-1
 157 942 l 1,4,-1
 157 0 l 1,5,-1
 0 0 l 1,6,-1
 0 1727 l 1,7,-1
 157 1727 l 1,0,-1
785 1727 m 1,8,-1
 785 0 l 1,9,-1
 628 0 l 1,10,-1
 628 942 l 1,11,-1
 471 942 l 1,12,-1
 471 1256 l 1,13,-1
 628 1256 l 1,14,-1
 628 1727 l 1,15,-1
 785 1727 l 1,8,-1
471 942 m 1,16,-1
 471 628 l 1,17,-1
 314 628 l 1,18,-1
 314 942 l 1,19,-1
 471 942 l 1,16,-1
EndSplineSet
Validated: 5
EndChar

StartChar: N
Encoding: 78 78 49
Width: 942
VWidth: 2048
GlyphClass: 2
Flags: W
LayerCount: 2
Fore
SplineSet
157 1727 m 1,0,-1
 157 1413 l 1,1,-1
 314 1413 l 1,2,-1
 314 1099 l 1,3,-1
 157 1099 l 1,4,-1
 157 0 l 1,5,-1
 0 0 l 1,6,-1
 0 1727 l 1,7,-1
 157 1727 l 1,0,-1
785 1727 m 1,8,-1
 785 0 l 1,9,-1
 628 0 l 1,10,-1
 628 471 l 1,11,-1
 471 471 l 1,12,-1
 471 785 l 1,13,-1
 628 785 l 1,14,-1
 628 1727 l 1,15,-1
 785 1727 l 1,8,-1
471 1099 m 1,16,-1
 471 785 l 1,17,-1
 314 785 l 1,18,-1
 314 1099 l 1,19,-1
 471 1099 l 1,16,-1
EndSplineSet
Validated: 5
EndChar

StartChar: O
Encoding: 79 79 50
Width: 942
VWidth: 2048
GlyphClass: 2
Flags: W
LayerCount: 2
Fore
SplineSet
628 1727 m 1,0,-1
 628 1570 l 1,1,-1
 157 1570 l 1,2,-1
 157 1727 l 1,3,-1
 628 1727 l 1,0,-1
157 1570 m 1,4,-1
 157 157 l 1,5,-1
 0 157 l 1,6,-1
 0 1570 l 1,7,-1
 157 1570 l 1,4,-1
785 1570 m 1,8,-1
 785 157 l 1,9,-1
 628 157 l 1,10,-1
 628 1570 l 1,11,-1
 785 1570 l 1,8,-1
628 157 m 1,12,-1
 628 0 l 1,13,-1
 157 0 l 1,14,-1
 157 157 l 1,15,-1
 628 157 l 1,12,-1
EndSplineSet
Validated: 5
EndChar

StartChar: P
Encoding: 80 80 51
Width: 942
VWidth: 2048
GlyphClass: 2
Flags: W
LayerCount: 2
Fore
SplineSet
628 1727 m 1,0,-1
 628 1570 l 1,1,-1
 157 1570 l 1,2,-1
 157 942 l 1,3,-1
 628 942 l 1,4,-1
 628 785 l 1,5,-1
 157 785 l 1,6,-1
 157 0 l 1,7,-1
 0 0 l 1,8,-1
 0 1727 l 1,9,-1
 628 1727 l 1,0,-1
785 1570 m 1,10,-1
 785 942 l 1,11,-1
 628 942 l 1,12,-1
 628 1570 l 1,13,-1
 785 1570 l 1,10,-1
EndSplineSet
Validated: 5
EndChar

StartChar: Q
Encoding: 81 81 52
Width: 942
VWidth: 2048
GlyphClass: 2
Flags: W
LayerCount: 2
Fore
SplineSet
471 1727 m 1,0,-1
 471 1570 l 1,1,-1
 157 1570 l 1,2,-1
 157 1727 l 1,3,-1
 471 1727 l 1,0,-1
157 1570 m 1,4,-1
 157 471 l 1,5,-1
 471 471 l 1,6,-1
 471 1570 l 1,7,-1
 628 1570 l 1,8,-1
 628 157 l 1,9,-1
 471 157 l 1,10,-1
 471 314 l 1,11,-1
 157 314 l 1,12,-1
 157 157 l 1,13,-1
 0 157 l 1,14,-1
 0 1570 l 1,15,-1
 157 1570 l 1,4,-1
471 157 m 1,16,-1
 471 0 l 1,17,-1
 157 0 l 1,18,-1
 157 157 l 1,19,-1
 471 157 l 1,16,-1
785 157 m 1,20,-1
 785 0 l 1,21,-1
 628 0 l 1,22,-1
 628 157 l 1,23,-1
 785 157 l 1,20,-1
EndSplineSet
Validated: 5
EndChar

StartChar: R
Encoding: 82 82 53
Width: 942
VWidth: 2048
GlyphClass: 2
Flags: W
LayerCount: 2
Fore
SplineSet
628 1727 m 1,0,-1
 628 1570 l 1,1,-1
 157 1570 l 1,2,-1
 157 942 l 1,3,-1
 628 942 l 1,4,-1
 628 628 l 1,5,-1
 471 628 l 1,6,-1
 471 785 l 1,7,-1
 157 785 l 1,8,-1
 157 0 l 1,9,-1
 0 0 l 1,10,-1
 0 1727 l 1,11,-1
 628 1727 l 1,0,-1
785 1570 m 1,12,-1
 785 942 l 1,13,-1
 628 942 l 1,14,-1
 628 1570 l 1,15,-1
 785 1570 l 1,12,-1
785 628 m 1,16,-1
 785 0 l 1,17,-1
 628 0 l 1,18,-1
 628 628 l 1,19,-1
 785 628 l 1,16,-1
EndSplineSet
Validated: 5
EndChar

StartChar: S
Encoding: 83 83 54
Width: 942
VWidth: 2048
GlyphClass: 2
Flags: W
LayerCount: 2
Fore
SplineSet
628 1727 m 1,0,-1
 628 1570 l 1,1,-1
 157 1570 l 1,2,-1
 157 1727 l 1,3,-1
 628 1727 l 1,0,-1
157 1570 m 1,4,-1
 157 942 l 1,5,-1
 0 942 l 1,6,-1
 0 1570 l 1,7,-1
 157 1570 l 1,4,-1
785 1570 m 1,8,-1
 785 1256 l 1,9,-1
 628 1256 l 1,10,-1
 628 1570 l 1,11,-1
 785 1570 l 1,8,-1
628 942 m 1,12,-1
 628 785 l 1,13,-1
 157 785 l 1,14,-1
 157 942 l 1,15,-1
 628 942 l 1,12,-1
785 785 m 1,16,-1
 785 157 l 1,17,-1
 628 157 l 1,18,-1
 628 785 l 1,19,-1
 785 785 l 1,16,-1
157 471 m 1,20,-1
 157 157 l 1,21,-1
 0 157 l 1,22,-1
 0 471 l 1,23,-1
 157 471 l 1,20,-1
628 157 m 1,24,-1
 628 0 l 1,25,-1
 157 0 l 1,26,-1
 157 157 l 1,27,-1
 628 157 l 1,24,-1
EndSplineSet
Validated: 5
EndChar

StartChar: T
Encoding: 84 84 55
Width: 942
VWidth: 2048
GlyphClass: 2
Flags: W
LayerCount: 2
Fore
SplineSet
785 1727 m 1,0,-1
 785 1570 l 1,1,-1
 471 1570 l 1,2,-1
 471 0 l 1,3,-1
 314 0 l 1,4,-1
 314 1570 l 1,5,-1
 0 1570 l 1,6,-1
 0 1727 l 1,7,-1
 785 1727 l 1,0,-1
EndSplineSet
Validated: 1
EndChar

StartChar: U
Encoding: 85 85 56
Width: 942
VWidth: 2048
GlyphClass: 2
Flags: W
LayerCount: 2
Fore
SplineSet
157 1727 m 1,0,-1
 157 157 l 1,1,-1
 0 157 l 1,2,-1
 0 1727 l 1,3,-1
 157 1727 l 1,0,-1
785 1727 m 1,4,-1
 785 157 l 1,5,-1
 628 157 l 1,6,-1
 628 1727 l 1,7,-1
 785 1727 l 1,4,-1
628 157 m 1,8,-1
 628 0 l 1,9,-1
 157 0 l 1,10,-1
 157 157 l 1,11,-1
 628 157 l 1,8,-1
EndSplineSet
Validated: 5
EndChar

StartChar: V
Encoding: 86 86 57
Width: 942
VWidth: 2048
GlyphClass: 2
Flags: W
LayerCount: 2
Fore
SplineSet
157 1727 m 1,0,-1
 157 628 l 1,1,-1
 0 628 l 1,2,-1
 0 1727 l 1,3,-1
 157 1727 l 1,0,-1
785 1727 m 1,4,-1
 785 628 l 1,5,-1
 628 628 l 1,6,-1
 628 1727 l 1,7,-1
 785 1727 l 1,4,-1
314 628 m 1,8,-1
 314 314 l 1,9,-1
 157 314 l 1,10,-1
 157 628 l 1,11,-1
 314 628 l 1,8,-1
628 628 m 1,12,-1
 628 314 l 1,13,-1
 471 314 l 1,14,-1
 471 628 l 1,15,-1
 628 628 l 1,12,-1
471 314 m 1,16,-1
 471 0 l 1,17,-1
 314 0 l 1,18,-1
 314 314 l 1,19,-1
 471 314 l 1,16,-1
EndSplineSet
Validated: 5
EndChar

StartChar: W
Encoding: 87 87 58
Width: 942
VWidth: 2048
GlyphClass: 2
Flags: W
LayerCount: 2
Fore
SplineSet
157 1727 m 1,0,-1
 157 471 l 1,1,-1
 314 471 l 1,2,-1
 314 157 l 1,3,-1
 157 157 l 1,4,-1
 157 0 l 1,5,-1
 0 0 l 1,6,-1
 0 1727 l 1,7,-1
 157 1727 l 1,0,-1
785 1727 m 1,8,-1
 785 0 l 1,9,-1
 628 0 l 1,10,-1
 628 157 l 1,11,-1
 471 157 l 1,12,-1
 471 471 l 1,13,-1
 628 471 l 1,14,-1
 628 1727 l 1,15,-1
 785 1727 l 1,8,-1
471 1099 m 1,16,-1
 471 471 l 1,17,-1
 314 471 l 1,18,-1
 314 1099 l 1,19,-1
 471 1099 l 1,16,-1
EndSplineSet
Validated: 5
EndChar

StartChar: X
Encoding: 88 88 59
Width: 942
VWidth: 2048
GlyphClass: 2
Flags: W
LayerCount: 2
Fore
SplineSet
157 1727 m 1,0,-1
 157 1413 l 1,1,-1
 0 1413 l 1,2,-1
 0 1727 l 1,3,-1
 157 1727 l 1,0,-1
785 1727 m 1,4,-1
 785 1413 l 1,5,-1
 628 1413 l 1,6,-1
 628 1727 l 1,7,-1
 785 1727 l 1,4,-1
314 1413 m 1,8,-1
 314 942 l 1,9,-1
 157 942 l 1,10,-1
 157 1413 l 1,11,-1
 314 1413 l 1,8,-1
628 1413 m 1,12,-1
 628 942 l 1,13,-1
 471 942 l 1,14,-1
 471 1413 l 1,15,-1
 628 1413 l 1,12,-1
471 942 m 1,16,-1
 471 628 l 1,17,-1
 314 628 l 1,18,-1
 314 942 l 1,19,-1
 471 942 l 1,16,-1
314 628 m 1,20,-1
 314 314 l 1,21,-1
 157 314 l 1,22,-1
 157 628 l 1,23,-1
 314 628 l 1,20,-1
628 628 m 1,24,-1
 628 314 l 1,25,-1
 471 314 l 1,26,-1
 471 628 l 1,27,-1
 628 628 l 1,24,-1
157 314 m 1,28,-1
 157 0 l 1,29,-1
 0 0 l 1,30,-1
 0 314 l 1,31,-1
 157 314 l 1,28,-1
785 314 m 1,32,-1
 785 0 l 1,33,-1
 628 0 l 1,34,-1
 628 314 l 1,35,-1
 785 314 l 1,32,-1
EndSplineSet
Validated: 5
EndChar

StartChar: Y
Encoding: 89 89 60
Width: 942
VWidth: 2048
GlyphClass: 2
Flags: W
LayerCount: 2
Fore
SplineSet
157 1727 m 1,0,-1
 157 1099 l 1,1,-1
 0 1099 l 1,2,-1
 0 1727 l 1,3,-1
 157 1727 l 1,0,-1
785 1727 m 1,4,-1
 785 1099 l 1,5,-1
 628 1099 l 1,6,-1
 628 1727 l 1,7,-1
 785 1727 l 1,4,-1
314 1099 m 1,8,-1
 314 785 l 1,9,-1
 157 785 l 1,10,-1
 157 1099 l 1,11,-1
 314 1099 l 1,8,-1
628 1099 m 1,12,-1
 628 785 l 1,13,-1
 471 785 l 1,14,-1
 471 1099 l 1,15,-1
 628 1099 l 1,12,-1
471 785 m 1,16,-1
 471 0 l 1,17,-1
 314 0 l 1,18,-1
 314 785 l 1,19,-1
 471 785 l 1,16,-1
EndSplineSet
Validated: 5
EndChar

StartChar: Z
Encoding: 90 90 61
Width: 942
VWidth: 2048
GlyphClass: 2
Flags: W
LayerCount: 2
Fore
SplineSet
785 1727 m 1,0,-1
 785 1256 l 1,1,-1
 628 1256 l 1,2,-1
 628 1570 l 1,3,-1
 0 1570 l 1,4,-1
 0 1727 l 1,5,-1
 785 1727 l 1,0,-1
628 1256 m 1,6,-1
 628 942 l 1,7,-1
 471 942 l 1,8,-1
 471 1256 l 1,9,-1
 628 1256 l 1,6,-1
471 942 m 1,10,-1
 471 628 l 1,11,-1
 314 628 l 1,12,-1
 314 942 l 1,13,-1
 471 942 l 1,10,-1
314 628 m 1,14,-1
 314 314 l 1,15,-1
 157 314 l 1,16,-1
 157 628 l 1,17,-1
 314 628 l 1,14,-1
157 314 m 1,18,-1
 157 157 l 1,19,-1
 785 157 l 1,20,-1
 785 0 l 1,21,-1
 0 0 l 1,22,-1
 0 314 l 1,23,-1
 157 314 l 1,18,-1
EndSplineSet
Validated: 5
EndChar

StartChar: bracketleft
Encoding: 91 91 62
Width: 628
VWidth: 2048
GlyphClass: 2
Flags: W
LayerCount: 2
Fore
SplineSet
471 1727 m 1,0,-1
 471 1570 l 1,1,-1
 157 1570 l 1,2,-1
 157 157 l 1,3,-1
 471 157 l 1,4,-1
 471 0 l 1,5,-1
 0 0 l 1,6,-1
 0 1727 l 1,7,-1
 471 1727 l 1,0,-1
EndSplineSet
Validated: 1
EndChar

StartChar: backslash
Encoding: 92 92 63
Width: 942
VWidth: 2048
GlyphClass: 2
Flags: W
LayerCount: 2
Fore
SplineSet
157 1727 m 1,0,-1
 157 1413 l 1,1,-1
 0 1413 l 1,2,-1
 0 1727 l 1,3,-1
 157 1727 l 1,0,-1
314 1413 m 1,4,-1
 314 1099 l 1,5,-1
 157 1099 l 1,6,-1
 157 1413 l 1,7,-1
 314 1413 l 1,4,-1
471 1099 m 1,8,-1
 471 785 l 1,9,-1
 314 785 l 1,10,-1
 314 1099 l 1,11,-1
 471 1099 l 1,8,-1
628 785 m 1,12,-1
 628 471 l 1,13,-1
 471 471 l 1,14,-1
 471 785 l 1,15,-1
 628 785 l 1,12,-1
785 471 m 1,16,-1
 785 157 l 1,17,-1
 628 157 l 1,18,-1
 628 471 l 1,19,-1
 785 471 l 1,16,-1
EndSplineSet
Validated: 5
EndChar

StartChar: bracketright
Encoding: 93 93 64
Width: 628
VWidth: 2048
GlyphClass: 2
Flags: W
LayerCount: 2
Fore
SplineSet
471 1727 m 1,0,-1
 471 0 l 1,1,-1
 0 0 l 1,2,-1
 0 157 l 1,3,-1
 314 157 l 1,4,-1
 314 1570 l 1,5,-1
 0 1570 l 1,6,-1
 0 1727 l 1,7,-1
 471 1727 l 1,0,-1
EndSplineSet
Validated: 1
EndChar

StartChar: asciicircum
Encoding: 94 94 65
Width: 942
VWidth: 2048
GlyphClass: 2
Flags: W
LayerCount: 2
Fore
SplineSet
471 1727 m 1,0,-1
 471 1570 l 1,1,-1
 314 1570 l 1,2,-1
 314 1727 l 1,3,-1
 471 1727 l 1,0,-1
314 1570 m 1,4,-1
 314 1413 l 1,5,-1
 157 1413 l 1,6,-1
 157 1570 l 1,7,-1
 314 1570 l 1,4,-1
628 1570 m 1,8,-1
 628 1413 l 1,9,-1
 471 1413 l 1,10,-1
 471 1570 l 1,11,-1
 628 1570 l 1,8,-1
157 1413 m 1,12,-1
 157 1256 l 1,13,-1
 0 1256 l 1,14,-1
 0 1413 l 1,15,-1
 157 1413 l 1,12,-1
785 1413 m 1,16,-1
 785 1256 l 1,17,-1
 628 1256 l 1,18,-1
 628 1413 l 1,19,-1
 785 1413 l 1,16,-1
EndSplineSet
Validated: 5
EndChar

StartChar: underscore
Encoding: 95 95 66
Width: 942
VWidth: 2048
GlyphClass: 2
Flags: W
LayerCount: 2
Fore
SplineSet
785 157 m 1,0,-1
 785 0 l 1,1,-1
 0 0 l 1,2,-1
 0 157 l 1,3,-1
 785 157 l 1,0,-1
EndSplineSet
Validated: 1
EndChar

StartChar: grave
Encoding: 96 96 67
Width: 628
VWidth: 2048
GlyphClass: 2
Flags: W
LayerCount: 2
Fore
SplineSet
157 1727 m 1,0,-1
 157 1570 l 1,1,-1
 0 1570 l 1,2,-1
 0 1727 l 1,3,-1
 157 1727 l 1,0,-1
314 1570 m 1,4,-1
 314 1413 l 1,5,-1
 157 1413 l 1,6,-1
 157 1570 l 1,7,-1
 314 1570 l 1,4,-1
471 1413 m 1,8,-1
 471 1256 l 1,9,-1
 314 1256 l 1,10,-1
 314 1413 l 1,11,-1
 471 1413 l 1,8,-1
EndSplineSet
Validated: 5
EndChar

StartChar: a
Encoding: 97 97 68
Width: 942
VWidth: 2048
GlyphClass: 2
Flags: W
LayerCount: 2
Fore
SplineSet
628 1099 m 1,0,-1
 628 942 l 1,1,-1
 157 942 l 1,2,-1
 157 1099 l 1,3,-1
 628 1099 l 1,0,-1
785 942 m 1,4,-1
 785 0 l 1,5,-1
 157 0 l 1,6,-1
 157 157 l 1,7,-1
 628 157 l 1,8,-1
 628 628 l 1,9,-1
 157 628 l 1,10,-1
 157 785 l 1,11,-1
 628 785 l 1,12,-1
 628 942 l 1,13,-1
 785 942 l 1,4,-1
157 628 m 1,14,-1
 157 157 l 1,15,-1
 0 157 l 1,16,-1
 0 628 l 1,17,-1
 157 628 l 1,14,-1
EndSplineSet
Validated: 5
EndChar

StartChar: b
Encoding: 98 98 69
Width: 942
VWidth: 2048
GlyphClass: 2
Flags: W
LayerCount: 2
Fore
SplineSet
157 1727 m 1,0,-1
 157 1099 l 1,1,-1
 628 1099 l 1,2,-1
 628 942 l 1,3,-1
 157 942 l 1,4,-1
 157 157 l 1,5,-1
 628 157 l 1,6,-1
 628 0 l 1,7,-1
 0 0 l 1,8,-1
 0 1727 l 1,9,-1
 157 1727 l 1,0,-1
785 942 m 1,10,-1
 785 157 l 1,11,-1
 628 157 l 1,12,-1
 628 942 l 1,13,-1
 785 942 l 1,10,-1
EndSplineSet
Validated: 5
EndChar

StartChar: c
Encoding: 99 99 70
Width: 942
VWidth: 2048
GlyphClass: 2
Flags: W
LayerCount: 2
Fore
SplineSet
628 1099 m 1,0,-1
 628 942 l 1,1,-1
 157 942 l 1,2,-1
 157 1099 l 1,3,-1
 628 1099 l 1,0,-1
157 942 m 1,4,-1
 157 157 l 1,5,-1
 0 157 l 1,6,-1
 0 942 l 1,7,-1
 157 942 l 1,4,-1
785 942 m 1,8,-1
 785 785 l 1,9,-1
 628 785 l 1,10,-1
 628 942 l 1,11,-1
 785 942 l 1,8,-1
785 314 m 1,12,-1
 785 157 l 1,13,-1
 628 157 l 1,14,-1
 628 314 l 1,15,-1
 785 314 l 1,12,-1
628 157 m 1,16,-1
 628 0 l 1,17,-1
 157 0 l 1,18,-1
 157 157 l 1,19,-1
 628 157 l 1,16,-1
EndSplineSet
Validated: 5
EndChar

StartChar: d
Encoding: 100 100 71
Width: 942
VWidth: 2048
GlyphClass: 2
Flags: W
LayerCount: 2
Fore
SplineSet
785 1727 m 1,0,-1
 785 0 l 1,1,-1
 157 0 l 1,2,-1
 157 157 l 1,3,-1
 628 157 l 1,4,-1
 628 942 l 1,5,-1
 157 942 l 1,6,-1
 157 1099 l 1,7,-1
 628 1099 l 1,8,-1
 628 1727 l 1,9,-1
 785 1727 l 1,0,-1
157 942 m 1,10,-1
 157 157 l 1,11,-1
 0 157 l 1,12,-1
 0 942 l 1,13,-1
 157 942 l 1,10,-1
EndSplineSet
Validated: 5
EndChar

StartChar: e
Encoding: 101 101 72
Width: 942
VWidth: 2048
GlyphClass: 2
Flags: W
LayerCount: 2
Fore
SplineSet
628 1099 m 1,0,-1
 628 942 l 1,1,-1
 157 942 l 1,2,-1
 157 1099 l 1,3,-1
 628 1099 l 1,0,-1
157 942 m 1,4,-1
 157 628 l 1,5,-1
 628 628 l 1,6,-1
 628 942 l 1,7,-1
 785 942 l 1,8,-1
 785 471 l 1,9,-1
 157 471 l 1,10,-1
 157 157 l 1,11,-1
 0 157 l 1,12,-1
 0 942 l 1,13,-1
 157 942 l 1,4,-1
785 314 m 1,14,-1
 785 157 l 1,15,-1
 628 157 l 1,16,-1
 628 314 l 1,17,-1
 785 314 l 1,14,-1
628 157 m 1,18,-1
 628 0 l 1,19,-1
 157 0 l 1,20,-1
 157 157 l 1,21,-1
 628 157 l 1,18,-1
EndSplineSet
Validated: 5
EndChar

StartChar: f
Encoding: 102 102 73
Width: 942
VWidth: 2048
GlyphClass: 2
Flags: W
LayerCount: 2
Fore
SplineSet
785 1727 m 1,0,-1
 785 1570 l 1,1,-1
 471 1570 l 1,2,-1
 471 1727 l 1,3,-1
 785 1727 l 1,0,-1
471 1570 m 1,4,-1
 471 1099 l 1,5,-1
 785 1099 l 1,6,-1
 785 942 l 1,7,-1
 471 942 l 1,8,-1
 471 0 l 1,9,-1
 314 0 l 1,10,-1
 314 942 l 1,11,-1
 0 942 l 1,12,-1
 0 1099 l 1,13,-1
 314 1099 l 1,14,-1
 314 1570 l 1,15,-1
 471 1570 l 1,4,-1
EndSplineSet
Validated: 5
EndChar

StartChar: g
Encoding: 103 103 74
Width: 942
VWidth: 2048
GlyphClass: 2
Flags: WO
LayerCount: 2
Fore
SplineSet
785 1099 m 1,0,-1
 785 0 l 1,1,-1
 628 0 l 1,2,-1
 628 314 l 1,3,-1
 157 314 l 1,4,-1
 157 471 l 1,5,-1
 628 471 l 1,6,-1
 628 942 l 1,7,-1
 157 942 l 1,8,-1
 157 1099 l 1,9,-1
 785 1099 l 1,0,-1
157 942 m 1,10,-1
 157 471 l 1,11,-1
 0 471 l 1,12,-1
 0 942 l 1,13,-1
 157 942 l 1,10,-1
157 157 m 1,14,-1
 157 0 l 1,15,-1
 0 0 l 1,16,-1
 0 157 l 1,17,-1
 157 157 l 1,14,-1
628 0 m 1,18,-1
 628 -157 l 1,19,-1
 157 -157 l 1,20,-1
 157 0 l 1,21,-1
 628 0 l 1,18,-1
EndSplineSet
Validated: 5
EndChar

StartChar: h
Encoding: 104 104 75
Width: 942
VWidth: 2048
GlyphClass: 2
Flags: W
LayerCount: 2
Fore
SplineSet
157 1727 m 1,0,-1
 157 1099 l 1,1,-1
 628 1099 l 1,2,-1
 628 942 l 1,3,-1
 157 942 l 1,4,-1
 157 0 l 1,5,-1
 0 0 l 1,6,-1
 0 1727 l 1,7,-1
 157 1727 l 1,0,-1
785 942 m 1,8,-1
 785 0 l 1,9,-1
 628 0 l 1,10,-1
 628 942 l 1,11,-1
 785 942 l 1,8,-1
EndSplineSet
Validated: 5
EndChar

StartChar: i
Encoding: 105 105 76
Width: 628
VWidth: 2048
GlyphClass: 2
Flags: WO
LayerCount: 2
Fore
SplineSet
314 1570 m 1,0,-1
 314 1413 l 1,1,-1
 157 1413 l 1,2,-1
 157 1570 l 1,3,-1
 314 1570 l 1,0,-1
314 1099 m 1,4,-1
 314 0 l 1,5,-1
 157 0 l 1,6,-1
 157 1099 l 1,7,-1
 314 1099 l 1,4,-1
EndSplineSet
EndChar

StartChar: j
Encoding: 106 106 77
Width: 785
VWidth: 2048
GlyphClass: 2
Flags: W
LayerCount: 2
Fore
SplineSet
628 1570 m 1,0,-1
 628 1413 l 1,1,-1
 471 1413 l 1,2,-1
 471 1570 l 1,3,-1
 628 1570 l 1,0,-1
628 1099 m 1,4,-1
 628 0 l 1,5,-1
 471 0 l 1,6,-1
 471 1099 l 1,7,-1
 628 1099 l 1,4,-1
157 314 m 1,8,-1
 157 0 l 1,9,-1
 0 0 l 1,10,-1
 0 314 l 1,11,-1
 157 314 l 1,8,-1
471 0 m 1,12,-1
 471 -157 l 1,13,-1
 157 -157 l 1,14,-1
 157 0 l 1,15,-1
 471 0 l 1,12,-1
EndSplineSet
Validated: 5
EndChar

StartChar: k
Encoding: 107 107 78
Width: 942
VWidth: 2048
GlyphClass: 2
Flags: W
LayerCount: 2
Fore
SplineSet
157 1727 m 1,0,-1
 157 628 l 1,1,-1
 314 628 l 1,2,-1
 314 471 l 1,3,-1
 157 471 l 1,4,-1
 157 0 l 1,5,-1
 0 0 l 1,6,-1
 0 1727 l 1,7,-1
 157 1727 l 1,0,-1
785 1099 m 1,8,-1
 785 942 l 1,9,-1
 628 942 l 1,10,-1
 628 1099 l 1,11,-1
 785 1099 l 1,8,-1
628 942 m 1,12,-1
 628 785 l 1,13,-1
 471 785 l 1,14,-1
 471 942 l 1,15,-1
 628 942 l 1,12,-1
471 785 m 1,16,-1
 471 628 l 1,17,-1
 314 628 l 1,18,-1
 314 785 l 1,19,-1
 471 785 l 1,16,-1
471 471 m 1,20,-1
 471 314 l 1,21,-1
 314 314 l 1,22,-1
 314 471 l 1,23,-1
 471 471 l 1,20,-1
628 314 m 1,24,-1
 628 157 l 1,25,-1
 471 157 l 1,26,-1
 471 314 l 1,27,-1
 628 314 l 1,24,-1
785 157 m 1,28,-1
 785 0 l 1,29,-1
 628 0 l 1,30,-1
 628 157 l 1,31,-1
 785 157 l 1,28,-1
EndSplineSet
Validated: 5
EndChar

StartChar: l
Encoding: 108 108 79
Width: 471
VWidth: 2048
GlyphClass: 2
Flags: W
LayerCount: 2
Fore
SplineSet
314 1727 m 1,0,-1
 314 0 l 1,1,-1
 157 0 l 1,2,-1
 157 1570 l 1,3,-1
 0 1570 l 1,4,-1
 0 1727 l 1,5,-1
 314 1727 l 1,0,-1
EndSplineSet
Validated: 1
EndChar

StartChar: m
Encoding: 109 109 80
Width: 942
VWidth: 2048
GlyphClass: 2
Flags: W
LayerCount: 2
Fore
SplineSet
628 1099 m 1,0,-1
 628 942 l 1,1,-1
 471 942 l 1,2,-1
 471 0 l 1,3,-1
 314 0 l 1,4,-1
 314 942 l 1,5,-1
 157 942 l 1,6,-1
 157 0 l 1,7,-1
 0 0 l 1,8,-1
 0 1099 l 1,9,-1
 628 1099 l 1,0,-1
785 942 m 1,10,-1
 785 0 l 1,11,-1
 628 0 l 1,12,-1
 628 942 l 1,13,-1
 785 942 l 1,10,-1
EndSplineSet
Validated: 5
EndChar

StartChar: n
Encoding: 110 110 81
Width: 942
VWidth: 2048
GlyphClass: 2
Flags: W
LayerCount: 2
Fore
SplineSet
628 1099 m 1,0,-1
 628 942 l 1,1,-1
 157 942 l 1,2,-1
 157 0 l 1,3,-1
 0 0 l 1,4,-1
 0 1099 l 1,5,-1
 628 1099 l 1,0,-1
785 942 m 1,6,-1
 785 0 l 1,7,-1
 628 0 l 1,8,-1
 628 942 l 1,9,-1
 785 942 l 1,6,-1
EndSplineSet
Validated: 5
EndChar

StartChar: o
Encoding: 111 111 82
Width: 942
VWidth: 2048
GlyphClass: 2
Flags: W
LayerCount: 2
Fore
SplineSet
628 1099 m 1,0,-1
 628 942 l 1,1,-1
 157 942 l 1,2,-1
 157 1099 l 1,3,-1
 628 1099 l 1,0,-1
157 942 m 1,4,-1
 157 157 l 1,5,-1
 0 157 l 1,6,-1
 0 942 l 1,7,-1
 157 942 l 1,4,-1
785 942 m 1,8,-1
 785 157 l 1,9,-1
 628 157 l 1,10,-1
 628 942 l 1,11,-1
 785 942 l 1,8,-1
628 157 m 1,12,-1
 628 0 l 1,13,-1
 157 0 l 1,14,-1
 157 157 l 1,15,-1
 628 157 l 1,12,-1
EndSplineSet
Validated: 5
EndChar

StartChar: p
Encoding: 112 112 83
Width: 942
VWidth: 2048
GlyphClass: 2
Flags: W
LayerCount: 2
Fore
SplineSet
628 1099 m 1,0,-1
 628 942 l 1,1,-1
 157 942 l 1,2,-1
 157 471 l 1,3,-1
 628 471 l 1,4,-1
 628 314 l 1,5,-1
 157 314 l 1,6,-1
 157 -157 l 1,7,-1
 0 -157 l 1,8,-1
 0 1099 l 1,9,-1
 628 1099 l 1,0,-1
785 942 m 1,10,-1
 785 471 l 1,11,-1
 628 471 l 1,12,-1
 628 942 l 1,13,-1
 785 942 l 1,10,-1
EndSplineSet
Validated: 5
EndChar

StartChar: q
Encoding: 113 113 84
Width: 942
VWidth: 2048
GlyphClass: 2
Flags: W
LayerCount: 2
Fore
SplineSet
785 1099 m 1,0,-1
 785 -157 l 1,1,-1
 628 -157 l 1,2,-1
 628 314 l 1,3,-1
 157 314 l 1,4,-1
 157 471 l 1,5,-1
 628 471 l 1,6,-1
 628 942 l 1,7,-1
 157 942 l 1,8,-1
 157 1099 l 1,9,-1
 785 1099 l 1,0,-1
157 942 m 1,10,-1
 157 471 l 1,11,-1
 0 471 l 1,12,-1
 0 942 l 1,13,-1
 157 942 l 1,10,-1
EndSplineSet
Validated: 5
EndChar

StartChar: r
Encoding: 114 114 85
Width: 785
VWidth: 2048
GlyphClass: 2
Flags: WO
LayerCount: 2
Fore
SplineSet
157 1099 m 1,0,-1
 157 942 l 1,1,-1
 314 942 l 1,2,-1
 314 785 l 1,3,-1
 157 785 l 1,4,-1
 157 0 l 1,5,-1
 0 0 l 1,6,-1
 0 1099 l 1,7,-1
 157 1099 l 1,0,-1
628 1099 m 1,8,-1
 628 942 l 1,9,-1
 314 942 l 1,10,-1
 314 1099 l 1,11,-1
 628 1099 l 1,8,-1
EndSplineSet
Validated: 5
EndChar

StartChar: s
Encoding: 115 115 86
Width: 942
VWidth: 2048
GlyphClass: 2
Flags: W
LayerCount: 2
Fore
SplineSet
628 1099 m 1,0,-1
 628 942 l 1,1,-1
 157 942 l 1,2,-1
 157 1099 l 1,3,-1
 628 1099 l 1,0,-1
157 942 m 1,4,-1
 157 628 l 1,5,-1
 0 628 l 1,6,-1
 0 942 l 1,7,-1
 157 942 l 1,4,-1
785 942 m 1,8,-1
 785 785 l 1,9,-1
 628 785 l 1,10,-1
 628 942 l 1,11,-1
 785 942 l 1,8,-1
628 628 m 1,12,-1
 628 471 l 1,13,-1
 157 471 l 1,14,-1
 157 628 l 1,15,-1
 628 628 l 1,12,-1
785 471 m 1,16,-1
 785 0 l 1,17,-1
 157 0 l 1,18,-1
 157 157 l 1,19,-1
 628 157 l 1,20,-1
 628 471 l 1,21,-1
 785 471 l 1,16,-1
157 314 m 1,22,-1
 157 157 l 1,23,-1
 0 157 l 1,24,-1
 0 314 l 1,25,-1
 157 314 l 1,22,-1
EndSplineSet
Validated: 5
EndChar

StartChar: t
Encoding: 116 116 87
Width: 942
VWidth: 2048
GlyphClass: 2
Flags: W
LayerCount: 2
Fore
SplineSet
471 1413 m 1,0,-1
 471 1099 l 1,1,-1
 785 1099 l 1,2,-1
 785 942 l 1,3,-1
 471 942 l 1,4,-1
 471 157 l 1,5,-1
 314 157 l 1,6,-1
 314 942 l 1,7,-1
 0 942 l 1,8,-1
 0 1099 l 1,9,-1
 314 1099 l 1,10,-1
 314 1413 l 1,11,-1
 471 1413 l 1,0,-1
785 157 m 1,12,-1
 785 0 l 1,13,-1
 471 0 l 1,14,-1
 471 157 l 1,15,-1
 785 157 l 1,12,-1
EndSplineSet
Validated: 5
EndChar

StartChar: u
Encoding: 117 117 88
Width: 942
VWidth: 2048
GlyphClass: 2
Flags: W
LayerCount: 2
Fore
SplineSet
157 1099 m 1,0,-1
 157 157 l 1,1,-1
 0 157 l 1,2,-1
 0 1099 l 1,3,-1
 157 1099 l 1,0,-1
785 1099 m 1,4,-1
 785 0 l 1,5,-1
 157 0 l 1,6,-1
 157 157 l 1,7,-1
 628 157 l 1,8,-1
 628 1099 l 1,9,-1
 785 1099 l 1,4,-1
EndSplineSet
Validated: 5
EndChar

StartChar: v
Encoding: 118 118 89
Width: 942
VWidth: 2048
GlyphClass: 2
Flags: W
LayerCount: 2
Fore
SplineSet
157 1099 m 1,0,-1
 157 628 l 1,1,-1
 0 628 l 1,2,-1
 0 1099 l 1,3,-1
 157 1099 l 1,0,-1
785 1099 m 1,4,-1
 785 628 l 1,5,-1
 628 628 l 1,6,-1
 628 1099 l 1,7,-1
 785 1099 l 1,4,-1
314 628 m 1,8,-1
 314 314 l 1,9,-1
 157 314 l 1,10,-1
 157 628 l 1,11,-1
 314 628 l 1,8,-1
628 628 m 1,12,-1
 628 314 l 1,13,-1
 471 314 l 1,14,-1
 471 628 l 1,15,-1
 628 628 l 1,12,-1
471 314 m 1,16,-1
 471 0 l 1,17,-1
 314 0 l 1,18,-1
 314 314 l 1,19,-1
 471 314 l 1,16,-1
EndSplineSet
Validated: 5
EndChar

StartChar: w
Encoding: 119 119 90
Width: 942
VWidth: 2048
GlyphClass: 2
Flags: W
LayerCount: 2
Fore
SplineSet
157 1099 m 1,0,-1
 157 314 l 1,1,-1
 0 314 l 1,2,-1
 0 1099 l 1,3,-1
 157 1099 l 1,0,-1
785 1099 m 1,4,-1
 785 314 l 1,5,-1
 628 314 l 1,6,-1
 628 1099 l 1,7,-1
 785 1099 l 1,4,-1
471 942 m 1,8,-1
 471 314 l 1,9,-1
 314 314 l 1,10,-1
 314 942 l 1,11,-1
 471 942 l 1,8,-1
314 314 m 1,12,-1
 314 0 l 1,13,-1
 157 0 l 1,14,-1
 157 314 l 1,15,-1
 314 314 l 1,12,-1
628 314 m 1,16,-1
 628 0 l 1,17,-1
 471 0 l 1,18,-1
 471 314 l 1,19,-1
 628 314 l 1,16,-1
EndSplineSet
Validated: 5
EndChar

StartChar: x
Encoding: 120 120 91
Width: 942
VWidth: 2048
GlyphClass: 2
Flags: W
LayerCount: 2
Fore
SplineSet
157 1099 m 1,0,-1
 157 942 l 1,1,-1
 0 942 l 1,2,-1
 0 1099 l 1,3,-1
 157 1099 l 1,0,-1
785 1099 m 1,4,-1
 785 942 l 1,5,-1
 628 942 l 1,6,-1
 628 1099 l 1,7,-1
 785 1099 l 1,4,-1
314 942 m 1,8,-1
 314 628 l 1,9,-1
 157 628 l 1,10,-1
 157 942 l 1,11,-1
 314 942 l 1,8,-1
628 942 m 1,12,-1
 628 628 l 1,13,-1
 471 628 l 1,14,-1
 471 942 l 1,15,-1
 628 942 l 1,12,-1
471 628 m 1,16,-1
 471 471 l 1,17,-1
 314 471 l 1,18,-1
 314 628 l 1,19,-1
 471 628 l 1,16,-1
314 471 m 1,20,-1
 314 157 l 1,21,-1
 157 157 l 1,22,-1
 157 471 l 1,23,-1
 314 471 l 1,20,-1
628 471 m 1,24,-1
 628 157 l 1,25,-1
 471 157 l 1,26,-1
 471 471 l 1,27,-1
 628 471 l 1,24,-1
157 157 m 1,28,-1
 157 0 l 1,29,-1
 0 0 l 1,30,-1
 0 157 l 1,31,-1
 157 157 l 1,28,-1
785 157 m 1,32,-1
 785 0 l 1,33,-1
 628 0 l 1,34,-1
 628 157 l 1,35,-1
 785 157 l 1,32,-1
EndSplineSet
Validated: 5
EndChar

StartChar: y
Encoding: 121 121 92
Width: 942
VWidth: 2048
GlyphClass: 2
Flags: W
LayerCount: 2
Fore
SplineSet
157 1099 m 1,0,-1
 157 471 l 1,1,-1
 0 471 l 1,2,-1
 0 1099 l 1,3,-1
 157 1099 l 1,0,-1
785 1099 m 1,4,-1
 785 0 l 1,5,-1
 628 0 l 1,6,-1
 628 314 l 1,7,-1
 157 314 l 1,8,-1
 157 471 l 1,9,-1
 628 471 l 1,10,-1
 628 1099 l 1,11,-1
 785 1099 l 1,4,-1
628 0 m 1,12,-1
 628 -157 l 1,13,-1
 0 -157 l 1,14,-1
 0 0 l 1,15,-1
 628 0 l 1,12,-1
EndSplineSet
Validated: 5
EndChar

StartChar: z
Encoding: 122 122 93
Width: 942
VWidth: 2048
GlyphClass: 2
Flags: W
LayerCount: 2
Fore
SplineSet
785 1099 m 1,0,-1
 785 785 l 1,1,-1
 628 785 l 1,2,-1
 628 942 l 1,3,-1
 0 942 l 1,4,-1
 0 1099 l 1,5,-1
 785 1099 l 1,0,-1
628 785 m 1,6,-1
 628 628 l 1,7,-1
 471 628 l 1,8,-1
 471 785 l 1,9,-1
 628 785 l 1,6,-1
471 628 m 1,10,-1
 471 471 l 1,11,-1
 314 471 l 1,12,-1
 314 628 l 1,13,-1
 471 628 l 1,10,-1
314 471 m 1,14,-1
 314 314 l 1,15,-1
 157 314 l 1,16,-1
 157 471 l 1,17,-1
 314 471 l 1,14,-1
157 314 m 1,18,-1
 157 157 l 1,19,-1
 785 157 l 1,20,-1
 785 0 l 1,21,-1
 0 0 l 1,22,-1
 0 314 l 1,23,-1
 157 314 l 1,18,-1
EndSplineSet
Validated: 5
EndChar

StartChar: braceleft
Encoding: 123 123 94
Width: 628
VWidth: 2048
GlyphClass: 2
Flags: W
LayerCount: 2
Fore
SplineSet
471 1727 m 1,0,-1
 471 1570 l 1,1,-1
 314 1570 l 1,2,-1
 314 1727 l 1,3,-1
 471 1727 l 1,0,-1
314 1570 m 1,4,-1
 314 942 l 1,5,-1
 157 942 l 1,6,-1
 157 1570 l 1,7,-1
 314 1570 l 1,4,-1
157 942 m 1,8,-1
 157 785 l 1,9,-1
 0 785 l 1,10,-1
 0 942 l 1,11,-1
 157 942 l 1,8,-1
314 785 m 1,12,-1
 314 157 l 1,13,-1
 157 157 l 1,14,-1
 157 785 l 1,15,-1
 314 785 l 1,12,-1
471 157 m 1,16,-1
 471 0 l 1,17,-1
 314 0 l 1,18,-1
 314 157 l 1,19,-1
 471 157 l 1,16,-1
EndSplineSet
Validated: 5
EndChar

StartChar: bar
Encoding: 124 124 95
Width: 471
VWidth: 2048
GlyphClass: 2
Flags: W
LayerCount: 2
Fore
SplineSet
314 1727 m 1,0,-1
 314 -157 l 1,1,-1
 157 -157 l 1,2,-1
 157 1727 l 1,3,-1
 314 1727 l 1,0,-1
EndSplineSet
Validated: 1
EndChar

StartChar: braceright
Encoding: 125 125 96
Width: 628
VWidth: 2048
GlyphClass: 2
Flags: W
LayerCount: 2
Fore
SplineSet
157 1727 m 1,0,-1
 157 1570 l 1,1,-1
 0 1570 l 1,2,-1
 0 1727 l 1,3,-1
 157 1727 l 1,0,-1
314 1570 m 1,4,-1
 314 942 l 1,5,-1
 157 942 l 1,6,-1
 157 1570 l 1,7,-1
 314 1570 l 1,4,-1
471 942 m 1,8,-1
 471 785 l 1,9,-1
 314 785 l 1,10,-1
 314 942 l 1,11,-1
 471 942 l 1,8,-1
314 785 m 1,12,-1
 314 157 l 1,13,-1
 157 157 l 1,14,-1
 157 785 l 1,15,-1
 314 785 l 1,12,-1
157 157 m 1,16,-1
 157 0 l 1,17,-1
 0 0 l 1,18,-1
 0 157 l 1,19,-1
 157 157 l 1,16,-1
EndSplineSet
Validated: 5
EndChar

StartChar: asciitilde
Encoding: 126 126 97
Width: 1099
VWidth: 2048
GlyphClass: 2
Flags: W
LayerCount: 2
Fore
SplineSet
471 942 m 1,0,-1
 471 785 l 1,1,-1
 157 785 l 1,2,-1
 157 942 l 1,3,-1
 471 942 l 1,0,-1
942 942 m 1,4,-1
 942 785 l 1,5,-1
 785 785 l 1,6,-1
 785 942 l 1,7,-1
 942 942 l 1,4,-1
157 785 m 1,8,-1
 157 628 l 1,9,-1
 0 628 l 1,10,-1
 0 785 l 1,11,-1
 157 785 l 1,8,-1
785 785 m 1,12,-1
 785 628 l 1,13,-1
 471 628 l 1,14,-1
 471 785 l 1,15,-1
 785 785 l 1,12,-1
EndSplineSet
Validated: 5
EndChar

StartChar: exclamdown
Encoding: 161 161 99
Width: 471
VWidth: 2048
GlyphClass: 2
Flags: W
LayerCount: 2
Fore
SplineSet
314 1570 m 1,0,-1
 314 1413 l 1,1,-1
 157 1413 l 1,2,-1
 157 1570 l 1,3,-1
 314 1570 l 1,0,-1
314 1099 m 1,4,-1
 314 -157 l 1,5,-1
 157 -157 l 1,6,-1
 157 1099 l 1,7,-1
 314 1099 l 1,4,-1
EndSplineSet
Validated: 1
EndChar

StartChar: cent
Encoding: 162 162 100
Width: 942
VWidth: 2048
GlyphClass: 2
Flags: W
LayerCount: 2
Fore
SplineSet
785 1256 m 1,0,-1
 785 1099 l 1,1,-1
 628 1099 l 1,2,-1
 628 1256 l 1,3,-1
 785 1256 l 1,0,-1
628 1099 m 1,4,-1
 628 942 l 1,5,-1
 785 942 l 1,6,-1
 785 785 l 1,7,-1
 471 785 l 1,8,-1
 471 942 l 1,9,-1
 157 942 l 1,10,-1
 157 1099 l 1,11,-1
 628 1099 l 1,4,-1
157 942 m 1,12,-1
 157 471 l 1,13,-1
 314 471 l 1,14,-1
 314 157 l 1,15,-1
 628 157 l 1,16,-1
 628 0 l 1,17,-1
 157 0 l 1,18,-1
 157 157 l 1,19,-1
 0 157 l 1,20,-1
 0 942 l 1,21,-1
 157 942 l 1,12,-1
471 785 m 1,22,-1
 471 471 l 1,23,-1
 314 471 l 1,24,-1
 314 785 l 1,25,-1
 471 785 l 1,22,-1
785 314 m 1,26,-1
 785 157 l 1,27,-1
 628 157 l 1,28,-1
 628 314 l 1,29,-1
 785 314 l 1,26,-1
157 0 m 1,30,-1
 157 -157 l 1,31,-1
 0 -157 l 1,32,-1
 0 0 l 1,33,-1
 157 0 l 1,30,-1
EndSplineSet
Validated: 5
EndChar

StartChar: sterling
Encoding: 163 163 101
Width: 942
VWidth: 2048
GlyphClass: 2
Flags: W
LayerCount: 2
Fore
SplineSet
628 1727 m 1,0,-1
 628 1570 l 1,1,-1
 314 1570 l 1,2,-1
 314 1727 l 1,3,-1
 628 1727 l 1,0,-1
314 1570 m 1,4,-1
 314 942 l 1,5,-1
 628 942 l 1,6,-1
 628 785 l 1,7,-1
 314 785 l 1,8,-1
 314 471 l 1,9,-1
 157 471 l 1,10,-1
 157 785 l 1,11,-1
 0 785 l 1,12,-1
 0 942 l 1,13,-1
 157 942 l 1,14,-1
 157 1570 l 1,15,-1
 314 1570 l 1,4,-1
785 1570 m 1,16,-1
 785 1413 l 1,17,-1
 628 1413 l 1,18,-1
 628 1570 l 1,19,-1
 785 1570 l 1,16,-1
157 471 m 1,20,-1
 157 157 l 1,21,-1
 785 157 l 1,22,-1
 785 0 l 1,23,-1
 0 0 l 1,24,-1
 0 471 l 1,25,-1
 157 471 l 1,20,-1
EndSplineSet
Validated: 5
EndChar

StartChar: currency
Encoding: 164 164 102
Width: 1099
VWidth: 2048
GlyphClass: 2
Flags: W
LayerCount: 2
Fore
SplineSet
157 1256 m 1,0,-1
 157 1099 l 1,1,-1
 0 1099 l 1,2,-1
 0 1256 l 1,3,-1
 157 1256 l 1,0,-1
628 1256 m 1,4,-1
 628 1099 l 1,5,-1
 314 1099 l 1,6,-1
 314 1256 l 1,7,-1
 628 1256 l 1,4,-1
942 1256 m 1,8,-1
 942 1099 l 1,9,-1
 785 1099 l 1,10,-1
 785 1256 l 1,11,-1
 942 1256 l 1,8,-1
314 1099 m 1,12,-1
 314 942 l 1,13,-1
 157 942 l 1,14,-1
 157 1099 l 1,15,-1
 314 1099 l 1,12,-1
785 1099 m 1,16,-1
 785 942 l 1,17,-1
 628 942 l 1,18,-1
 628 1099 l 1,19,-1
 785 1099 l 1,16,-1
157 942 m 1,20,-1
 157 628 l 1,21,-1
 0 628 l 1,22,-1
 0 942 l 1,23,-1
 157 942 l 1,20,-1
942 942 m 1,24,-1
 942 628 l 1,25,-1
 785 628 l 1,26,-1
 785 942 l 1,27,-1
 942 942 l 1,24,-1
314 628 m 1,28,-1
 314 471 l 1,29,-1
 157 471 l 1,30,-1
 157 628 l 1,31,-1
 314 628 l 1,28,-1
785 628 m 1,32,-1
 785 471 l 1,33,-1
 628 471 l 1,34,-1
 628 628 l 1,35,-1
 785 628 l 1,32,-1
157 471 m 1,36,-1
 157 314 l 1,37,-1
 0 314 l 1,38,-1
 0 471 l 1,39,-1
 157 471 l 1,36,-1
628 471 m 1,40,-1
 628 314 l 1,41,-1
 314 314 l 1,42,-1
 314 471 l 1,43,-1
 628 471 l 1,40,-1
942 471 m 1,44,-1
 942 314 l 1,45,-1
 785 314 l 1,46,-1
 785 471 l 1,47,-1
 942 471 l 1,44,-1
EndSplineSet
Validated: 5
EndChar

StartChar: yen
Encoding: 165 165 103
Width: 942
VWidth: 2048
GlyphClass: 2
Flags: W
LayerCount: 2
Fore
SplineSet
157 1727 m 1,0,-1
 157 1099 l 1,1,-1
 0 1099 l 1,2,-1
 0 1727 l 1,3,-1
 157 1727 l 1,0,-1
785 1727 m 1,4,-1
 785 1099 l 1,5,-1
 628 1099 l 1,6,-1
 628 1727 l 1,7,-1
 785 1727 l 1,4,-1
314 1099 m 1,8,-1
 314 942 l 1,9,-1
 471 942 l 1,10,-1
 471 1099 l 1,11,-1
 628 1099 l 1,12,-1
 628 942 l 1,13,-1
 785 942 l 1,14,-1
 785 785 l 1,15,-1
 471 785 l 1,16,-1
 471 628 l 1,17,-1
 785 628 l 1,18,-1
 785 471 l 1,19,-1
 471 471 l 1,20,-1
 471 0 l 1,21,-1
 314 0 l 1,22,-1
 314 471 l 1,23,-1
 0 471 l 1,24,-1
 0 628 l 1,25,-1
 314 628 l 1,26,-1
 314 785 l 1,27,-1
 0 785 l 1,28,-1
 0 942 l 1,29,-1
 157 942 l 1,30,-1
 157 1099 l 1,31,-1
 314 1099 l 1,8,-1
EndSplineSet
Validated: 5
EndChar

StartChar: brokenbar
Encoding: 166 166 104
Width: 314
VWidth: 2048
GlyphClass: 2
Flags: W
LayerCount: 2
Fore
SplineSet
157 1884 m 1,0,-1
 157 942 l 1,1,-1
 0 942 l 1,2,-1
 0 1884 l 1,3,-1
 157 1884 l 1,0,-1
157 628 m 1,4,-1
 157 -157 l 1,5,-1
 0 -157 l 1,6,-1
 0 628 l 1,7,-1
 157 628 l 1,4,-1
EndSplineSet
Validated: 1
EndChar

StartChar: section
Encoding: 167 167 105
Width: 942
VWidth: 2048
GlyphClass: 2
Flags: W
LayerCount: 2
Fore
SplineSet
628 1727 m 1,0,-1
 628 1570 l 1,1,-1
 157 1570 l 1,2,-1
 157 1727 l 1,3,-1
 628 1727 l 1,0,-1
157 1570 m 1,4,-1
 157 1413 l 1,5,-1
 0 1413 l 1,6,-1
 0 1570 l 1,7,-1
 157 1570 l 1,4,-1
785 1570 m 1,8,-1
 785 1413 l 1,9,-1
 628 1413 l 1,10,-1
 628 1570 l 1,11,-1
 785 1570 l 1,8,-1
314 1413 m 1,12,-1
 314 1256 l 1,13,-1
 157 1256 l 1,14,-1
 157 1413 l 1,15,-1
 314 1413 l 1,12,-1
157 1256 m 1,16,-1
 157 785 l 1,17,-1
 0 785 l 1,18,-1
 0 1256 l 1,19,-1
 157 1256 l 1,16,-1
471 1256 m 1,20,-1
 471 1099 l 1,21,-1
 314 1099 l 1,22,-1
 314 1256 l 1,23,-1
 471 1256 l 1,20,-1
628 1099 m 1,24,-1
 628 942 l 1,25,-1
 471 942 l 1,26,-1
 471 1099 l 1,27,-1
 628 1099 l 1,24,-1
785 942 m 1,28,-1
 785 471 l 1,29,-1
 628 471 l 1,30,-1
 628 942 l 1,31,-1
 785 942 l 1,28,-1
314 785 m 1,32,-1
 314 628 l 1,33,-1
 157 628 l 1,34,-1
 157 785 l 1,35,-1
 314 785 l 1,32,-1
471 628 m 1,36,-1
 471 471 l 1,37,-1
 314 471 l 1,38,-1
 314 628 l 1,39,-1
 471 628 l 1,36,-1
628 471 m 1,40,-1
 628 314 l 1,41,-1
 471 314 l 1,42,-1
 471 471 l 1,43,-1
 628 471 l 1,40,-1
157 314 m 1,44,-1
 157 157 l 1,45,-1
 0 157 l 1,46,-1
 0 314 l 1,47,-1
 157 314 l 1,44,-1
785 314 m 1,48,-1
 785 157 l 1,49,-1
 628 157 l 1,50,-1
 628 314 l 1,51,-1
 785 314 l 1,48,-1
628 157 m 1,52,-1
 628 0 l 1,53,-1
 157 0 l 1,54,-1
 157 157 l 1,55,-1
 628 157 l 1,52,-1
EndSplineSet
Validated: 5
EndChar

StartChar: dieresis
Encoding: 168 168 106
Width: 942
VWidth: 2048
GlyphClass: 2
Flags: W
LayerCount: 2
Fore
SplineSet
157 2041 m 1,0,-1
 157 1884 l 1,1,-1
 0 1884 l 1,2,-1
 0 2041 l 1,3,-1
 157 2041 l 1,0,-1
785 2041 m 1,4,-1
 785 1884 l 1,5,-1
 628 1884 l 1,6,-1
 628 2041 l 1,7,-1
 785 2041 l 1,4,-1
EndSplineSet
Validated: 1
EndChar

StartChar: copyright
Encoding: 169 169 107
Width: 1413
VWidth: 2048
GlyphClass: 2
Flags: W
LayerCount: 2
Fore
SplineSet
942 1413 m 1,0,-1
 942 1256 l 1,1,-1
 314 1256 l 1,2,-1
 314 1413 l 1,3,-1
 942 1413 l 1,0,-1
314 1256 m 1,4,-1
 314 1099 l 1,5,-1
 157 1099 l 1,6,-1
 157 1256 l 1,7,-1
 314 1256 l 1,4,-1
1099 1256 m 1,8,-1
 1099 1099 l 1,9,-1
 942 1099 l 1,10,-1
 942 1256 l 1,11,-1
 1099 1256 l 1,8,-1
157 1099 m 1,12,-1
 157 471 l 1,13,-1
 0 471 l 1,14,-1
 0 1099 l 1,15,-1
 157 1099 l 1,12,-1
942 1099 m 1,16,-1
 942 942 l 1,17,-1
 471 942 l 1,18,-1
 471 1099 l 1,19,-1
 942 1099 l 1,16,-1
1256 1099 m 1,20,-1
 1256 471 l 1,21,-1
 1099 471 l 1,22,-1
 1099 1099 l 1,23,-1
 1256 1099 l 1,20,-1
471 942 m 1,24,-1
 471 628 l 1,25,-1
 314 628 l 1,26,-1
 314 942 l 1,27,-1
 471 942 l 1,24,-1
942 628 m 1,28,-1
 942 471 l 1,29,-1
 471 471 l 1,30,-1
 471 628 l 1,31,-1
 942 628 l 1,28,-1
314 471 m 1,32,-1
 314 314 l 1,33,-1
 157 314 l 1,34,-1
 157 471 l 1,35,-1
 314 471 l 1,32,-1
1099 471 m 1,36,-1
 1099 314 l 1,37,-1
 942 314 l 1,38,-1
 942 471 l 1,39,-1
 1099 471 l 1,36,-1
942 314 m 1,40,-1
 942 157 l 1,41,-1
 314 157 l 1,42,-1
 314 314 l 1,43,-1
 942 314 l 1,40,-1
EndSplineSet
Validated: 5
EndChar

StartChar: ordfeminine
Encoding: 170 170 108
Width: 942
VWidth: 2048
GlyphClass: 2
Flags: W
LayerCount: 2
Fore
SplineSet
628 1884 m 1,0,-1
 628 1256 l 1,1,-1
 471 1256 l 1,2,-1
 471 1727 l 1,3,-1
 157 1727 l 1,4,-1
 157 1884 l 1,5,-1
 628 1884 l 1,0,-1
157 1727 m 1,6,-1
 157 1256 l 1,7,-1
 0 1256 l 1,8,-1
 0 1727 l 1,9,-1
 157 1727 l 1,6,-1
471 1256 m 1,10,-1
 471 1099 l 1,11,-1
 157 1099 l 1,12,-1
 157 1256 l 1,13,-1
 471 1256 l 1,10,-1
785 1256 m 1,14,-1
 785 1099 l 1,15,-1
 628 1099 l 1,16,-1
 628 1256 l 1,17,-1
 785 1256 l 1,14,-1
EndSplineSet
Validated: 5
EndChar

StartChar: guillemotleft
Encoding: 171 171 109
Width: 1099
VWidth: 2048
GlyphClass: 2
Flags: W
LayerCount: 2
Fore
SplineSet
471 1099 m 1,0,-1
 471 942 l 1,1,-1
 314 942 l 1,2,-1
 314 1099 l 1,3,-1
 471 1099 l 1,0,-1
942 1099 m 1,4,-1
 942 942 l 1,5,-1
 785 942 l 1,6,-1
 785 1099 l 1,7,-1
 942 1099 l 1,4,-1
314 942 m 1,8,-1
 314 785 l 1,9,-1
 157 785 l 1,10,-1
 157 942 l 1,11,-1
 314 942 l 1,8,-1
785 942 m 1,12,-1
 785 785 l 1,13,-1
 628 785 l 1,14,-1
 628 942 l 1,15,-1
 785 942 l 1,12,-1
157 785 m 1,16,-1
 157 471 l 1,17,-1
 0 471 l 1,18,-1
 0 785 l 1,19,-1
 157 785 l 1,16,-1
628 785 m 1,20,-1
 628 471 l 1,21,-1
 471 471 l 1,22,-1
 471 785 l 1,23,-1
 628 785 l 1,20,-1
314 471 m 1,24,-1
 314 314 l 1,25,-1
 157 314 l 1,26,-1
 157 471 l 1,27,-1
 314 471 l 1,24,-1
785 471 m 1,28,-1
 785 314 l 1,29,-1
 628 314 l 1,30,-1
 628 471 l 1,31,-1
 785 471 l 1,28,-1
471 314 m 1,32,-1
 471 157 l 1,33,-1
 314 157 l 1,34,-1
 314 314 l 1,35,-1
 471 314 l 1,32,-1
942 314 m 1,36,-1
 942 157 l 1,37,-1
 785 157 l 1,38,-1
 785 314 l 1,39,-1
 942 314 l 1,36,-1
EndSplineSet
Validated: 5
EndChar

StartChar: logicalnot
Encoding: 172 172 110
Width: 942
VWidth: 2048
GlyphClass: 2
Flags: W
LayerCount: 2
Fore
SplineSet
785 942 m 1,0,-1
 785 471 l 1,1,-1
 628 471 l 1,2,-1
 628 785 l 1,3,-1
 0 785 l 1,4,-1
 0 942 l 1,5,-1
 785 942 l 1,0,-1
EndSplineSet
Validated: 1
EndChar

StartChar: hyphen
Encoding: 173 173 111
Width: 942
VWidth: 2048
GlyphClass: 2
Flags: W
LayerCount: 2
Fore
SplineSet
785 942 m 1,0,-1
 785 785 l 1,1,-1
 0 785 l 1,2,-1
 0 942 l 1,3,-1
 785 942 l 1,0,-1
EndSplineSet
Validated: 1
EndChar

StartChar: registered
Encoding: 174 174 112
Width: 1413
VWidth: 2048
GlyphClass: 2
Flags: W
LayerCount: 2
Fore
SplineSet
942 1413 m 1,0,-1
 942 1256 l 1,1,-1
 314 1256 l 1,2,-1
 314 1413 l 1,3,-1
 942 1413 l 1,0,-1
314 1256 m 1,4,-1
 314 1099 l 1,5,-1
 157 1099 l 1,6,-1
 157 1256 l 1,7,-1
 314 1256 l 1,4,-1
1099 1256 m 1,8,-1
 1099 1099 l 1,9,-1
 942 1099 l 1,10,-1
 942 1256 l 1,11,-1
 1099 1256 l 1,8,-1
157 1099 m 1,12,-1
 157 471 l 1,13,-1
 0 471 l 1,14,-1
 0 1099 l 1,15,-1
 157 1099 l 1,12,-1
785 1099 m 1,16,-1
 785 942 l 1,17,-1
 471 942 l 1,18,-1
 471 785 l 1,19,-1
 785 785 l 1,20,-1
 785 628 l 1,21,-1
 471 628 l 1,22,-1
 471 471 l 1,23,-1
 314 471 l 1,24,-1
 314 1099 l 1,25,-1
 785 1099 l 1,16,-1
1256 1099 m 1,26,-1
 1256 471 l 1,27,-1
 1099 471 l 1,28,-1
 1099 1099 l 1,29,-1
 1256 1099 l 1,26,-1
942 942 m 1,30,-1
 942 785 l 1,31,-1
 785 785 l 1,32,-1
 785 942 l 1,33,-1
 942 942 l 1,30,-1
942 628 m 1,34,-1
 942 471 l 1,35,-1
 785 471 l 1,36,-1
 785 628 l 1,37,-1
 942 628 l 1,34,-1
314 471 m 1,38,-1
 314 314 l 1,39,-1
 157 314 l 1,40,-1
 157 471 l 1,41,-1
 314 471 l 1,38,-1
1099 471 m 1,42,-1
 1099 314 l 1,43,-1
 942 314 l 1,44,-1
 942 471 l 1,45,-1
 1099 471 l 1,42,-1
942 314 m 1,46,-1
 942 157 l 1,47,-1
 314 157 l 1,48,-1
 314 314 l 1,49,-1
 942 314 l 1,46,-1
EndSplineSet
Validated: 5
EndChar

StartChar: macron
Encoding: 175 175 113
Width: 942
VWidth: 2048
GlyphClass: 2
Flags: W
LayerCount: 2
Fore
SplineSet
785 2041 m 1,0,-1
 785 1884 l 1,1,-1
 0 1884 l 1,2,-1
 0 2041 l 1,3,-1
 785 2041 l 1,0,-1
EndSplineSet
Validated: 1
EndChar

StartChar: degree
Encoding: 176 176 114
Width: 785
VWidth: 2048
GlyphClass: 2
Flags: W
LayerCount: 2
Fore
SplineSet
471 1884 m 1,0,-1
 471 1727 l 1,1,-1
 157 1727 l 1,2,-1
 157 1884 l 1,3,-1
 471 1884 l 1,0,-1
157 1727 m 1,4,-1
 157 1413 l 1,5,-1
 0 1413 l 1,6,-1
 0 1727 l 1,7,-1
 157 1727 l 1,4,-1
628 1727 m 1,8,-1
 628 1413 l 1,9,-1
 471 1413 l 1,10,-1
 471 1727 l 1,11,-1
 628 1727 l 1,8,-1
471 1413 m 1,12,-1
 471 1256 l 1,13,-1
 157 1256 l 1,14,-1
 157 1413 l 1,15,-1
 471 1413 l 1,12,-1
EndSplineSet
Validated: 5
EndChar

StartChar: plusminus
Encoding: 177 177 115
Width: 942
VWidth: 2048
GlyphClass: 2
Flags: W
LayerCount: 2
Fore
SplineSet
471 1099 m 1,0,-1
 471 785 l 1,1,-1
 785 785 l 1,2,-1
 785 628 l 1,3,-1
 471 628 l 1,4,-1
 471 314 l 1,5,-1
 314 314 l 1,6,-1
 314 628 l 1,7,-1
 0 628 l 1,8,-1
 0 785 l 1,9,-1
 314 785 l 1,10,-1
 314 1099 l 1,11,-1
 471 1099 l 1,0,-1
785 157 m 1,12,-1
 785 0 l 1,13,-1
 0 0 l 1,14,-1
 0 157 l 1,15,-1
 785 157 l 1,12,-1
EndSplineSet
Validated: 1
EndChar

StartChar: twosuperior
Encoding: 178 178 116
Width: 785
VWidth: 2048
GlyphClass: 2
Flags: W
LayerCount: 2
Fore
SplineSet
471 1884 m 1,0,-1
 471 1727 l 1,1,-1
 157 1727 l 1,2,-1
 157 1884 l 1,3,-1
 471 1884 l 1,0,-1
157 1727 m 1,4,-1
 157 1570 l 1,5,-1
 0 1570 l 1,6,-1
 0 1727 l 1,7,-1
 157 1727 l 1,4,-1
628 1727 m 1,8,-1
 628 1570 l 1,9,-1
 471 1570 l 1,10,-1
 471 1727 l 1,11,-1
 628 1727 l 1,8,-1
471 1570 m 1,12,-1
 471 1413 l 1,13,-1
 314 1413 l 1,14,-1
 314 1570 l 1,15,-1
 471 1570 l 1,12,-1
314 1413 m 1,16,-1
 314 1256 l 1,17,-1
 628 1256 l 1,18,-1
 628 1099 l 1,19,-1
 0 1099 l 1,20,-1
 0 1256 l 1,21,-1
 157 1256 l 1,22,-1
 157 1413 l 1,23,-1
 314 1413 l 1,16,-1
EndSplineSet
Validated: 5
EndChar

StartChar: threesuperior
Encoding: 179 179 117
Width: 785
VWidth: 2048
GlyphClass: 2
Flags: W
LayerCount: 2
Fore
SplineSet
471 1884 m 1,0,-1
 471 1727 l 1,1,-1
 157 1727 l 1,2,-1
 157 1884 l 1,3,-1
 471 1884 l 1,0,-1
157 1727 m 1,4,-1
 157 1570 l 1,5,-1
 0 1570 l 1,6,-1
 0 1727 l 1,7,-1
 157 1727 l 1,4,-1
628 1727 m 1,8,-1
 628 1570 l 1,9,-1
 471 1570 l 1,10,-1
 471 1727 l 1,11,-1
 628 1727 l 1,8,-1
471 1570 m 1,12,-1
 471 1413 l 1,13,-1
 314 1413 l 1,14,-1
 314 1570 l 1,15,-1
 471 1570 l 1,12,-1
157 1413 m 1,16,-1
 157 1256 l 1,17,-1
 0 1256 l 1,18,-1
 0 1413 l 1,19,-1
 157 1413 l 1,16,-1
628 1413 m 1,20,-1
 628 1256 l 1,21,-1
 471 1256 l 1,22,-1
 471 1413 l 1,23,-1
 628 1413 l 1,20,-1
471 1256 m 1,24,-1
 471 1099 l 1,25,-1
 157 1099 l 1,26,-1
 157 1256 l 1,27,-1
 471 1256 l 1,24,-1
EndSplineSet
Validated: 5
EndChar

StartChar: acute
Encoding: 180 180 118
Width: 628
VWidth: 2048
GlyphClass: 2
Flags: W
LayerCount: 2
Fore
SplineSet
471 1570 m 1,0,-1
 471 1413 l 1,1,-1
 314 1413 l 1,2,-1
 314 1570 l 1,3,-1
 471 1570 l 1,0,-1
314 1413 m 1,4,-1
 314 1256 l 1,5,-1
 157 1256 l 1,6,-1
 157 1413 l 1,7,-1
 314 1413 l 1,4,-1
157 1256 m 1,8,-1
 157 1099 l 1,9,-1
 0 1099 l 1,10,-1
 0 1256 l 1,11,-1
 157 1256 l 1,8,-1
EndSplineSet
Validated: 5
EndChar

StartChar: mu
Encoding: 181 181 119
Width: 942
VWidth: 2048
GlyphClass: 2
Flags: W
LayerCount: 2
Fore
SplineSet
157 1099 m 1,0,-1
 157 157 l 1,1,-1
 471 157 l 1,2,-1
 471 0 l 1,3,-1
 157 0 l 1,4,-1
 157 -157 l 1,5,-1
 0 -157 l 1,6,-1
 0 1099 l 1,7,-1
 157 1099 l 1,0,-1
785 1099 m 1,8,-1
 785 0 l 1,9,-1
 628 0 l 1,10,-1
 628 157 l 1,11,-1
 471 157 l 1,12,-1
 471 314 l 1,13,-1
 628 314 l 1,14,-1
 628 1099 l 1,15,-1
 785 1099 l 1,8,-1
EndSplineSet
Validated: 5
EndChar

StartChar: paragraph
Encoding: 182 182 120
Width: 942
VWidth: 2048
GlyphClass: 2
Flags: W
LayerCount: 2
Fore
SplineSet
785 1727 m 1,0,-1
 785 0 l 1,1,-1
 628 0 l 1,2,-1
 628 1570 l 1,3,-1
 471 1570 l 1,4,-1
 471 0 l 1,5,-1
 314 0 l 1,6,-1
 314 1099 l 1,7,-1
 157 1099 l 1,8,-1
 157 1256 l 1,9,-1
 0 1256 l 1,10,-1
 0 1570 l 1,11,-1
 157 1570 l 1,12,-1
 157 1727 l 1,13,-1
 785 1727 l 1,0,-1
EndSplineSet
Validated: 1
EndChar

StartChar: periodcentered
Encoding: 183 183 121
Width: 314
VWidth: 2048
GlyphClass: 2
Flags: W
LayerCount: 2
Fore
SplineSet
157 785 m 1,0,-1
 157 628 l 1,1,-1
 0 628 l 1,2,-1
 0 785 l 1,3,-1
 157 785 l 1,0,-1
EndSplineSet
Validated: 1
EndChar

StartChar: cedilla
Encoding: 184 184 122
Width: 628
VWidth: 2048
GlyphClass: 2
Flags: W
LayerCount: 2
Fore
SplineSet
471 157 m 1,0,-1
 471 -157 l 1,1,-1
 157 -157 l 1,2,-1
 157 0 l 1,3,-1
 314 0 l 1,4,-1
 314 157 l 1,5,-1
 471 157 l 1,0,-1
EndSplineSet
Validated: 1
EndChar

StartChar: onesuperior
Encoding: 185 185 123
Width: 628
VWidth: 2048
GlyphClass: 2
Flags: W
LayerCount: 2
Fore
SplineSet
314 1884 m 1,0,-1
 314 1256 l 1,1,-1
 471 1256 l 1,2,-1
 471 1099 l 1,3,-1
 0 1099 l 1,4,-1
 0 1256 l 1,5,-1
 157 1256 l 1,6,-1
 157 1570 l 1,7,-1
 0 1570 l 1,8,-1
 0 1727 l 1,9,-1
 157 1727 l 1,10,-1
 157 1884 l 1,11,-1
 314 1884 l 1,0,-1
EndSplineSet
Validated: 1
EndChar

StartChar: ordmasculine
Encoding: 186 186 124
Width: 942
VWidth: 2048
GlyphClass: 2
Flags: W
LayerCount: 2
Fore
SplineSet
628 1884 m 1,0,-1
 628 1727 l 1,1,-1
 157 1727 l 1,2,-1
 157 1884 l 1,3,-1
 628 1884 l 1,0,-1
157 1727 m 1,4,-1
 157 1256 l 1,5,-1
 0 1256 l 1,6,-1
 0 1727 l 1,7,-1
 157 1727 l 1,4,-1
785 1727 m 1,8,-1
 785 1256 l 1,9,-1
 628 1256 l 1,10,-1
 628 1727 l 1,11,-1
 785 1727 l 1,8,-1
628 1256 m 1,12,-1
 628 1099 l 1,13,-1
 157 1099 l 1,14,-1
 157 1256 l 1,15,-1
 628 1256 l 1,12,-1
EndSplineSet
Validated: 5
EndChar

StartChar: guillemotright
Encoding: 187 187 125
Width: 1099
VWidth: 2048
GlyphClass: 2
Flags: W
LayerCount: 2
Fore
SplineSet
157 1099 m 1,0,-1
 157 942 l 1,1,-1
 0 942 l 1,2,-1
 0 1099 l 1,3,-1
 157 1099 l 1,0,-1
628 1099 m 1,4,-1
 628 942 l 1,5,-1
 471 942 l 1,6,-1
 471 1099 l 1,7,-1
 628 1099 l 1,4,-1
314 942 m 1,8,-1
 314 785 l 1,9,-1
 157 785 l 1,10,-1
 157 942 l 1,11,-1
 314 942 l 1,8,-1
785 942 m 1,12,-1
 785 785 l 1,13,-1
 628 785 l 1,14,-1
 628 942 l 1,15,-1
 785 942 l 1,12,-1
471 785 m 1,16,-1
 471 471 l 1,17,-1
 314 471 l 1,18,-1
 314 785 l 1,19,-1
 471 785 l 1,16,-1
942 785 m 1,20,-1
 942 471 l 1,21,-1
 785 471 l 1,22,-1
 785 785 l 1,23,-1
 942 785 l 1,20,-1
314 471 m 1,24,-1
 314 314 l 1,25,-1
 157 314 l 1,26,-1
 157 471 l 1,27,-1
 314 471 l 1,24,-1
785 471 m 1,28,-1
 785 314 l 1,29,-1
 628 314 l 1,30,-1
 628 471 l 1,31,-1
 785 471 l 1,28,-1
157 314 m 1,32,-1
 157 157 l 1,33,-1
 0 157 l 1,34,-1
 0 314 l 1,35,-1
 157 314 l 1,32,-1
628 314 m 1,36,-1
 628 157 l 1,37,-1
 471 157 l 1,38,-1
 471 314 l 1,39,-1
 628 314 l 1,36,-1
EndSplineSet
Validated: 5
EndChar

StartChar: onequarter
Encoding: 188 188 126
Width: 1727
VWidth: 2048
GlyphClass: 2
Flags: W
LayerCount: 2
Fore
SplineSet
314 1570 m 1,0,-1
 314 942 l 1,1,-1
 471 942 l 1,2,-1
 471 785 l 1,3,-1
 0 785 l 1,4,-1
 0 942 l 1,5,-1
 157 942 l 1,6,-1
 157 1256 l 1,7,-1
 0 1256 l 1,8,-1
 0 1413 l 1,9,-1
 157 1413 l 1,10,-1
 157 1570 l 1,11,-1
 314 1570 l 1,0,-1
1099 1570 m 1,12,-1
 1099 1256 l 1,13,-1
 942 1256 l 1,14,-1
 942 1570 l 1,15,-1
 1099 1570 l 1,12,-1
942 1256 m 1,16,-1
 942 942 l 1,17,-1
 785 942 l 1,18,-1
 785 1256 l 1,19,-1
 942 1256 l 1,16,-1
785 942 m 1,20,-1
 785 628 l 1,21,-1
 628 628 l 1,22,-1
 628 942 l 1,23,-1
 785 942 l 1,20,-1
1413 785 m 1,24,-1
 1413 314 l 1,25,-1
 1570 314 l 1,26,-1
 1570 157 l 1,27,-1
 1413 157 l 1,28,-1
 1413 0 l 1,29,-1
 1256 0 l 1,30,-1
 1256 157 l 1,31,-1
 942 157 l 1,32,-1
 942 628 l 1,33,-1
 1099 628 l 1,34,-1
 1099 314 l 1,35,-1
 1256 314 l 1,36,-1
 1256 628 l 1,37,-1
 1099 628 l 1,38,-1
 1099 785 l 1,39,-1
 1413 785 l 1,24,-1
628 628 m 1,40,-1
 628 314 l 1,41,-1
 471 314 l 1,42,-1
 471 628 l 1,43,-1
 628 628 l 1,40,-1
471 314 m 1,44,-1
 471 0 l 1,45,-1
 314 0 l 1,46,-1
 314 314 l 1,47,-1
 471 314 l 1,44,-1
EndSplineSet
Validated: 5
EndChar

StartChar: onehalf
Encoding: 189 189 127
Width: 1570
VWidth: 2048
GlyphClass: 2
Flags: W
LayerCount: 2
Fore
SplineSet
314 1570 m 1,0,-1
 314 942 l 1,1,-1
 471 942 l 1,2,-1
 471 785 l 1,3,-1
 0 785 l 1,4,-1
 0 942 l 1,5,-1
 157 942 l 1,6,-1
 157 1256 l 1,7,-1
 0 1256 l 1,8,-1
 0 1413 l 1,9,-1
 157 1413 l 1,10,-1
 157 1570 l 1,11,-1
 314 1570 l 1,0,-1
1099 1570 m 1,12,-1
 1099 1256 l 1,13,-1
 942 1256 l 1,14,-1
 942 1570 l 1,15,-1
 1099 1570 l 1,12,-1
942 1256 m 1,16,-1
 942 942 l 1,17,-1
 785 942 l 1,18,-1
 785 1256 l 1,19,-1
 942 1256 l 1,16,-1
785 942 m 1,20,-1
 785 628 l 1,21,-1
 628 628 l 1,22,-1
 628 942 l 1,23,-1
 785 942 l 1,20,-1
1256 785 m 1,24,-1
 1256 628 l 1,25,-1
 942 628 l 1,26,-1
 942 785 l 1,27,-1
 1256 785 l 1,24,-1
628 628 m 1,28,-1
 628 314 l 1,29,-1
 471 314 l 1,30,-1
 471 628 l 1,31,-1
 628 628 l 1,28,-1
1413 628 m 1,32,-1
 1413 471 l 1,33,-1
 1256 471 l 1,34,-1
 1256 628 l 1,35,-1
 1413 628 l 1,32,-1
1256 471 m 1,36,-1
 1256 314 l 1,37,-1
 1099 314 l 1,38,-1
 1099 471 l 1,39,-1
 1256 471 l 1,36,-1
471 314 m 1,40,-1
 471 0 l 1,41,-1
 314 0 l 1,42,-1
 314 314 l 1,43,-1
 471 314 l 1,40,-1
1099 314 m 1,44,-1
 1099 157 l 1,45,-1
 1413 157 l 1,46,-1
 1413 0 l 1,47,-1
 942 0 l 1,48,-1
 942 314 l 1,49,-1
 1099 314 l 1,44,-1
EndSplineSet
Validated: 5
EndChar

StartChar: threequarters
Encoding: 190 190 128
Width: 1727
VWidth: 2048
GlyphClass: 2
Flags: W
LayerCount: 2
Fore
SplineSet
314 1570 m 1,0,-1
 314 1413 l 1,1,-1
 0 1413 l 1,2,-1
 0 1570 l 1,3,-1
 314 1570 l 1,0,-1
1099 1570 m 1,4,-1
 1099 1256 l 1,5,-1
 942 1256 l 1,6,-1
 942 1570 l 1,7,-1
 1099 1570 l 1,4,-1
471 1413 m 1,8,-1
 471 1256 l 1,9,-1
 314 1256 l 1,10,-1
 314 1413 l 1,11,-1
 471 1413 l 1,8,-1
314 1256 m 1,12,-1
 314 1099 l 1,13,-1
 157 1099 l 1,14,-1
 157 1256 l 1,15,-1
 314 1256 l 1,12,-1
942 1256 m 1,16,-1
 942 942 l 1,17,-1
 785 942 l 1,18,-1
 785 1256 l 1,19,-1
 942 1256 l 1,16,-1
471 1099 m 1,20,-1
 471 942 l 1,21,-1
 314 942 l 1,22,-1
 314 1099 l 1,23,-1
 471 1099 l 1,20,-1
314 942 m 1,24,-1
 314 785 l 1,25,-1
 0 785 l 1,26,-1
 0 942 l 1,27,-1
 314 942 l 1,24,-1
785 942 m 1,28,-1
 785 628 l 1,29,-1
 628 628 l 1,30,-1
 628 942 l 1,31,-1
 785 942 l 1,28,-1
1413 785 m 1,32,-1
 1413 314 l 1,33,-1
 1570 314 l 1,34,-1
 1570 157 l 1,35,-1
 1413 157 l 1,36,-1
 1413 0 l 1,37,-1
 1256 0 l 1,38,-1
 1256 157 l 1,39,-1
 942 157 l 1,40,-1
 942 628 l 1,41,-1
 1099 628 l 1,42,-1
 1099 314 l 1,43,-1
 1256 314 l 1,44,-1
 1256 628 l 1,45,-1
 1099 628 l 1,46,-1
 1099 785 l 1,47,-1
 1413 785 l 1,32,-1
628 628 m 1,48,-1
 628 314 l 1,49,-1
 471 314 l 1,50,-1
 471 628 l 1,51,-1
 628 628 l 1,48,-1
471 314 m 1,52,-1
 471 0 l 1,53,-1
 314 0 l 1,54,-1
 314 314 l 1,55,-1
 471 314 l 1,52,-1
EndSplineSet
Validated: 5
EndChar

StartChar: questiondown
Encoding: 191 191 129
Width: 942
VWidth: 2048
GlyphClass: 2
Flags: W
LayerCount: 2
Fore
SplineSet
471 1570 m 1,0,-1
 471 1413 l 1,1,-1
 314 1413 l 1,2,-1
 314 1570 l 1,3,-1
 471 1570 l 1,0,-1
471 1099 m 1,4,-1
 471 785 l 1,5,-1
 314 785 l 1,6,-1
 314 1099 l 1,7,-1
 471 1099 l 1,4,-1
314 785 m 1,8,-1
 314 628 l 1,9,-1
 157 628 l 1,10,-1
 157 785 l 1,11,-1
 314 785 l 1,8,-1
157 628 m 1,12,-1
 157 0 l 1,13,-1
 0 0 l 1,14,-1
 0 628 l 1,15,-1
 157 628 l 1,12,-1
785 314 m 1,16,-1
 785 0 l 1,17,-1
 628 0 l 1,18,-1
 628 314 l 1,19,-1
 785 314 l 1,16,-1
628 0 m 1,20,-1
 628 -157 l 1,21,-1
 157 -157 l 1,22,-1
 157 0 l 1,23,-1
 628 0 l 1,20,-1
EndSplineSet
Validated: 5
EndChar

StartChar: Agrave
Encoding: 192 192 130
Width: 942
VWidth: 2048
GlyphClass: 2
Flags: W
LayerCount: 2
Fore
SplineSet
471 2041 m 1,0,-1
 471 1884 l 1,1,-1
 157 1884 l 1,2,-1
 157 2041 l 1,3,-1
 471 2041 l 1,0,-1
628 1884 m 1,4,-1
 628 1727 l 1,5,-1
 471 1727 l 1,6,-1
 471 1884 l 1,7,-1
 628 1884 l 1,4,-1
628 1570 m 1,8,-1
 628 1413 l 1,9,-1
 157 1413 l 1,10,-1
 157 1570 l 1,11,-1
 628 1570 l 1,8,-1
157 1413 m 1,12,-1
 157 628 l 1,13,-1
 628 628 l 1,14,-1
 628 1413 l 1,15,-1
 785 1413 l 1,16,-1
 785 0 l 1,17,-1
 628 0 l 1,18,-1
 628 471 l 1,19,-1
 157 471 l 1,20,-1
 157 0 l 1,21,-1
 0 0 l 1,22,-1
 0 1413 l 1,23,-1
 157 1413 l 1,12,-1
EndSplineSet
Validated: 5
EndChar

StartChar: Aacute
Encoding: 193 193 131
Width: 942
VWidth: 2048
GlyphClass: 2
Flags: W
LayerCount: 2
Fore
SplineSet
628 2041 m 1,0,-1
 628 1884 l 1,1,-1
 314 1884 l 1,2,-1
 314 2041 l 1,3,-1
 628 2041 l 1,0,-1
314 1884 m 1,4,-1
 314 1727 l 1,5,-1
 157 1727 l 1,6,-1
 157 1884 l 1,7,-1
 314 1884 l 1,4,-1
628 1570 m 1,8,-1
 628 1413 l 1,9,-1
 157 1413 l 1,10,-1
 157 1570 l 1,11,-1
 628 1570 l 1,8,-1
157 1413 m 1,12,-1
 157 628 l 1,13,-1
 628 628 l 1,14,-1
 628 1413 l 1,15,-1
 785 1413 l 1,16,-1
 785 0 l 1,17,-1
 628 0 l 1,18,-1
 628 471 l 1,19,-1
 157 471 l 1,20,-1
 157 0 l 1,21,-1
 0 0 l 1,22,-1
 0 1413 l 1,23,-1
 157 1413 l 1,12,-1
EndSplineSet
Validated: 5
EndChar

StartChar: Acircumflex
Encoding: 194 194 132
Width: 942
VWidth: 2048
GlyphClass: 2
Flags: W
LayerCount: 2
Fore
SplineSet
471 2041 m 1,0,-1
 471 1884 l 1,1,-1
 314 1884 l 1,2,-1
 314 2041 l 1,3,-1
 471 2041 l 1,0,-1
314 1884 m 1,4,-1
 314 1727 l 1,5,-1
 157 1727 l 1,6,-1
 157 1884 l 1,7,-1
 314 1884 l 1,4,-1
628 1884 m 1,8,-1
 628 1727 l 1,9,-1
 471 1727 l 1,10,-1
 471 1884 l 1,11,-1
 628 1884 l 1,8,-1
628 1570 m 1,12,-1
 628 1413 l 1,13,-1
 157 1413 l 1,14,-1
 157 1570 l 1,15,-1
 628 1570 l 1,12,-1
157 1413 m 1,16,-1
 157 628 l 1,17,-1
 628 628 l 1,18,-1
 628 1413 l 1,19,-1
 785 1413 l 1,20,-1
 785 0 l 1,21,-1
 628 0 l 1,22,-1
 628 471 l 1,23,-1
 157 471 l 1,24,-1
 157 0 l 1,25,-1
 0 0 l 1,26,-1
 0 1413 l 1,27,-1
 157 1413 l 1,16,-1
EndSplineSet
Validated: 5
EndChar

StartChar: Atilde
Encoding: 195 195 133
Width: 1099
VWidth: 2048
GlyphClass: 2
Flags: W
LayerCount: 2
Fore
SplineSet
471 2041 m 1,0,-1
 471 1884 l 1,1,-1
 157 1884 l 1,2,-1
 157 2041 l 1,3,-1
 471 2041 l 1,0,-1
942 2041 m 1,4,-1
 942 1884 l 1,5,-1
 785 1884 l 1,6,-1
 785 2041 l 1,7,-1
 942 2041 l 1,4,-1
157 1884 m 1,8,-1
 157 1727 l 1,9,-1
 0 1727 l 1,10,-1
 0 1884 l 1,11,-1
 157 1884 l 1,8,-1
785 1884 m 1,12,-1
 785 1727 l 1,13,-1
 471 1727 l 1,14,-1
 471 1884 l 1,15,-1
 785 1884 l 1,12,-1
628 1570 m 1,16,-1
 628 1413 l 1,17,-1
 157 1413 l 1,18,-1
 157 1570 l 1,19,-1
 628 1570 l 1,16,-1
157 1413 m 1,20,-1
 157 628 l 1,21,-1
 628 628 l 1,22,-1
 628 1413 l 1,23,-1
 785 1413 l 1,24,-1
 785 0 l 1,25,-1
 628 0 l 1,26,-1
 628 471 l 1,27,-1
 157 471 l 1,28,-1
 157 0 l 1,29,-1
 0 0 l 1,30,-1
 0 1413 l 1,31,-1
 157 1413 l 1,20,-1
EndSplineSet
Validated: 5
EndChar

StartChar: Adieresis
Encoding: 196 196 134
Width: 942
VWidth: 2048
GlyphClass: 2
Flags: W
LayerCount: 2
Fore
SplineSet
157 2041 m 1,0,-1
 157 1884 l 1,1,-1
 0 1884 l 1,2,-1
 0 2041 l 1,3,-1
 157 2041 l 1,0,-1
785 2041 m 1,4,-1
 785 1884 l 1,5,-1
 628 1884 l 1,6,-1
 628 2041 l 1,7,-1
 785 2041 l 1,4,-1
628 1570 m 1,8,-1
 628 1413 l 1,9,-1
 157 1413 l 1,10,-1
 157 1570 l 1,11,-1
 628 1570 l 1,8,-1
157 1413 m 1,12,-1
 157 628 l 1,13,-1
 628 628 l 1,14,-1
 628 1413 l 1,15,-1
 785 1413 l 1,16,-1
 785 0 l 1,17,-1
 628 0 l 1,18,-1
 628 471 l 1,19,-1
 157 471 l 1,20,-1
 157 0 l 1,21,-1
 0 0 l 1,22,-1
 0 1413 l 1,23,-1
 157 1413 l 1,12,-1
EndSplineSet
Validated: 5
EndChar

StartChar: Aring
Encoding: 197 197 135
Width: 942
VWidth: 2048
GlyphClass: 2
Flags: W
LayerCount: 2
Fore
SplineSet
471 2041 m 1,0,-1
 471 1884 l 1,1,-1
 314 1884 l 1,2,-1
 314 2041 l 1,3,-1
 471 2041 l 1,0,-1
314 1884 m 1,4,-1
 314 1727 l 1,5,-1
 157 1727 l 1,6,-1
 157 1884 l 1,7,-1
 314 1884 l 1,4,-1
628 1884 m 1,8,-1
 628 1727 l 1,9,-1
 471 1727 l 1,10,-1
 471 1884 l 1,11,-1
 628 1884 l 1,8,-1
471 1727 m 1,12,-1
 471 1570 l 1,13,-1
 628 1570 l 1,14,-1
 628 1413 l 1,15,-1
 157 1413 l 1,16,-1
 157 1570 l 1,17,-1
 314 1570 l 1,18,-1
 314 1727 l 1,19,-1
 471 1727 l 1,12,-1
157 1413 m 1,20,-1
 157 628 l 1,21,-1
 628 628 l 1,22,-1
 628 1413 l 1,23,-1
 785 1413 l 1,24,-1
 785 0 l 1,25,-1
 628 0 l 1,26,-1
 628 471 l 1,27,-1
 157 471 l 1,28,-1
 157 0 l 1,29,-1
 0 0 l 1,30,-1
 0 1413 l 1,31,-1
 157 1413 l 1,20,-1
EndSplineSet
Validated: 5
EndChar

StartChar: AE
Encoding: 198 198 136
Width: 1570
VWidth: 2048
GlyphClass: 2
Flags: W
LayerCount: 2
Fore
SplineSet
1413 1727 m 1,0,-1
 1413 1570 l 1,1,-1
 785 1570 l 1,2,-1
 785 942 l 1,3,-1
 1256 942 l 1,4,-1
 1256 785 l 1,5,-1
 785 785 l 1,6,-1
 785 157 l 1,7,-1
 1413 157 l 1,8,-1
 1413 0 l 1,9,-1
 628 0 l 1,10,-1
 628 471 l 1,11,-1
 157 471 l 1,12,-1
 157 0 l 1,13,-1
 0 0 l 1,14,-1
 0 1570 l 1,15,-1
 157 1570 l 1,16,-1
 157 628 l 1,17,-1
 628 628 l 1,18,-1
 628 1570 l 1,19,-1
 157 1570 l 1,20,-1
 157 1727 l 1,21,-1
 1413 1727 l 1,0,-1
EndSplineSet
Validated: 5
EndChar

StartChar: Ccedilla
Encoding: 199 199 137
Width: 942
VWidth: 2048
GlyphClass: 2
Flags: W
LayerCount: 2
Fore
SplineSet
628 1727 m 1,0,-1
 628 1570 l 1,1,-1
 157 1570 l 1,2,-1
 157 1727 l 1,3,-1
 628 1727 l 1,0,-1
157 1570 m 1,4,-1
 157 314 l 1,5,-1
 0 314 l 1,6,-1
 0 1570 l 1,7,-1
 157 1570 l 1,4,-1
785 1570 m 1,8,-1
 785 1256 l 1,9,-1
 628 1256 l 1,10,-1
 628 1570 l 1,11,-1
 785 1570 l 1,8,-1
785 628 m 1,12,-1
 785 314 l 1,13,-1
 628 314 l 1,14,-1
 628 628 l 1,15,-1
 785 628 l 1,12,-1
628 314 m 1,16,-1
 628 157 l 1,17,-1
 471 157 l 1,18,-1
 471 -157 l 1,19,-1
 157 -157 l 1,20,-1
 157 0 l 1,21,-1
 314 0 l 1,22,-1
 314 157 l 1,23,-1
 157 157 l 1,24,-1
 157 314 l 1,25,-1
 628 314 l 1,16,-1
EndSplineSet
Validated: 5
EndChar

StartChar: Egrave
Encoding: 200 200 138
Width: 942
VWidth: 2048
GlyphClass: 2
Flags: W
LayerCount: 2
Fore
SplineSet
471 2041 m 1,0,-1
 471 1884 l 1,1,-1
 157 1884 l 1,2,-1
 157 2041 l 1,3,-1
 471 2041 l 1,0,-1
628 1884 m 1,4,-1
 628 1727 l 1,5,-1
 471 1727 l 1,6,-1
 471 1884 l 1,7,-1
 628 1884 l 1,4,-1
785 1570 m 1,8,-1
 785 1413 l 1,9,-1
 157 1413 l 1,10,-1
 157 942 l 1,11,-1
 628 942 l 1,12,-1
 628 785 l 1,13,-1
 157 785 l 1,14,-1
 157 157 l 1,15,-1
 785 157 l 1,16,-1
 785 0 l 1,17,-1
 0 0 l 1,18,-1
 0 1570 l 1,19,-1
 785 1570 l 1,8,-1
EndSplineSet
Validated: 5
EndChar

StartChar: Eacute
Encoding: 201 201 139
Width: 942
VWidth: 2048
GlyphClass: 2
Flags: W
LayerCount: 2
Fore
SplineSet
628 2041 m 1,0,-1
 628 1884 l 1,1,-1
 314 1884 l 1,2,-1
 314 2041 l 1,3,-1
 628 2041 l 1,0,-1
314 1884 m 1,4,-1
 314 1727 l 1,5,-1
 157 1727 l 1,6,-1
 157 1884 l 1,7,-1
 314 1884 l 1,4,-1
785 1570 m 1,8,-1
 785 1413 l 1,9,-1
 157 1413 l 1,10,-1
 157 942 l 1,11,-1
 628 942 l 1,12,-1
 628 785 l 1,13,-1
 157 785 l 1,14,-1
 157 157 l 1,15,-1
 785 157 l 1,16,-1
 785 0 l 1,17,-1
 0 0 l 1,18,-1
 0 1570 l 1,19,-1
 785 1570 l 1,8,-1
EndSplineSet
Validated: 5
EndChar

StartChar: Ecircumflex
Encoding: 202 202 140
Width: 942
VWidth: 2048
GlyphClass: 2
Flags: W
LayerCount: 2
Fore
SplineSet
471 2041 m 1,0,-1
 471 1884 l 1,1,-1
 314 1884 l 1,2,-1
 314 2041 l 1,3,-1
 471 2041 l 1,0,-1
314 1884 m 1,4,-1
 314 1727 l 1,5,-1
 157 1727 l 1,6,-1
 157 1884 l 1,7,-1
 314 1884 l 1,4,-1
628 1884 m 1,8,-1
 628 1727 l 1,9,-1
 471 1727 l 1,10,-1
 471 1884 l 1,11,-1
 628 1884 l 1,8,-1
785 1570 m 1,12,-1
 785 1413 l 1,13,-1
 157 1413 l 1,14,-1
 157 942 l 1,15,-1
 628 942 l 1,16,-1
 628 785 l 1,17,-1
 157 785 l 1,18,-1
 157 157 l 1,19,-1
 785 157 l 1,20,-1
 785 0 l 1,21,-1
 0 0 l 1,22,-1
 0 1570 l 1,23,-1
 785 1570 l 1,12,-1
EndSplineSet
Validated: 5
EndChar

StartChar: Edieresis
Encoding: 203 203 141
Width: 942
VWidth: 2048
GlyphClass: 2
Flags: W
LayerCount: 2
Fore
SplineSet
157 2041 m 1,0,-1
 157 1884 l 1,1,-1
 0 1884 l 1,2,-1
 0 2041 l 1,3,-1
 157 2041 l 1,0,-1
785 2041 m 1,4,-1
 785 1884 l 1,5,-1
 628 1884 l 1,6,-1
 628 2041 l 1,7,-1
 785 2041 l 1,4,-1
785 1570 m 1,8,-1
 785 1413 l 1,9,-1
 157 1413 l 1,10,-1
 157 942 l 1,11,-1
 628 942 l 1,12,-1
 628 785 l 1,13,-1
 157 785 l 1,14,-1
 157 157 l 1,15,-1
 785 157 l 1,16,-1
 785 0 l 1,17,-1
 0 0 l 1,18,-1
 0 1570 l 1,19,-1
 785 1570 l 1,8,-1
EndSplineSet
Validated: 1
EndChar

StartChar: Igrave
Encoding: 204 204 142
Width: 942
VWidth: 2048
GlyphClass: 2
Flags: W
LayerCount: 2
Fore
SplineSet
471 2041 m 1,0,-1
 471 1884 l 1,1,-1
 157 1884 l 1,2,-1
 157 2041 l 1,3,-1
 471 2041 l 1,0,-1
628 1884 m 1,4,-1
 628 1727 l 1,5,-1
 471 1727 l 1,6,-1
 471 1884 l 1,7,-1
 628 1884 l 1,4,-1
785 1570 m 1,8,-1
 785 1413 l 1,9,-1
 471 1413 l 1,10,-1
 471 157 l 1,11,-1
 785 157 l 1,12,-1
 785 0 l 1,13,-1
 0 0 l 1,14,-1
 0 157 l 1,15,-1
 314 157 l 1,16,-1
 314 1413 l 1,17,-1
 0 1413 l 1,18,-1
 0 1570 l 1,19,-1
 785 1570 l 1,8,-1
EndSplineSet
Validated: 5
EndChar

StartChar: Iacute
Encoding: 205 205 143
Width: 942
VWidth: 2048
GlyphClass: 2
Flags: W
LayerCount: 2
Fore
SplineSet
628 2041 m 1,0,-1
 628 1884 l 1,1,-1
 314 1884 l 1,2,-1
 314 2041 l 1,3,-1
 628 2041 l 1,0,-1
314 1884 m 1,4,-1
 314 1727 l 1,5,-1
 157 1727 l 1,6,-1
 157 1884 l 1,7,-1
 314 1884 l 1,4,-1
785 1570 m 1,8,-1
 785 1413 l 1,9,-1
 471 1413 l 1,10,-1
 471 157 l 1,11,-1
 785 157 l 1,12,-1
 785 0 l 1,13,-1
 0 0 l 1,14,-1
 0 157 l 1,15,-1
 314 157 l 1,16,-1
 314 1413 l 1,17,-1
 0 1413 l 1,18,-1
 0 1570 l 1,19,-1
 785 1570 l 1,8,-1
EndSplineSet
Validated: 5
EndChar

StartChar: Icircumflex
Encoding: 206 206 144
Width: 942
VWidth: 2048
GlyphClass: 2
Flags: W
LayerCount: 2
Fore
SplineSet
471 2041 m 1,0,-1
 471 1884 l 1,1,-1
 314 1884 l 1,2,-1
 314 2041 l 1,3,-1
 471 2041 l 1,0,-1
314 1884 m 1,4,-1
 314 1727 l 1,5,-1
 157 1727 l 1,6,-1
 157 1884 l 1,7,-1
 314 1884 l 1,4,-1
628 1884 m 1,8,-1
 628 1727 l 1,9,-1
 471 1727 l 1,10,-1
 471 1884 l 1,11,-1
 628 1884 l 1,8,-1
785 1570 m 1,12,-1
 785 1413 l 1,13,-1
 471 1413 l 1,14,-1
 471 157 l 1,15,-1
 785 157 l 1,16,-1
 785 0 l 1,17,-1
 0 0 l 1,18,-1
 0 157 l 1,19,-1
 314 157 l 1,20,-1
 314 1413 l 1,21,-1
 0 1413 l 1,22,-1
 0 1570 l 1,23,-1
 785 1570 l 1,12,-1
EndSplineSet
Validated: 5
EndChar

StartChar: Idieresis
Encoding: 207 207 145
Width: 942
VWidth: 2048
GlyphClass: 2
Flags: W
LayerCount: 2
Fore
SplineSet
157 2041 m 1,0,-1
 157 1884 l 1,1,-1
 0 1884 l 1,2,-1
 0 2041 l 1,3,-1
 157 2041 l 1,0,-1
785 2041 m 1,4,-1
 785 1884 l 1,5,-1
 628 1884 l 1,6,-1
 628 2041 l 1,7,-1
 785 2041 l 1,4,-1
785 1570 m 1,8,-1
 785 1413 l 1,9,-1
 471 1413 l 1,10,-1
 471 157 l 1,11,-1
 785 157 l 1,12,-1
 785 0 l 1,13,-1
 0 0 l 1,14,-1
 0 157 l 1,15,-1
 314 157 l 1,16,-1
 314 1413 l 1,17,-1
 0 1413 l 1,18,-1
 0 1570 l 1,19,-1
 785 1570 l 1,8,-1
EndSplineSet
Validated: 1
EndChar

StartChar: Eth
Encoding: 208 208 146
Width: 1099
VWidth: 2048
GlyphClass: 2
Flags: W
LayerCount: 2
Fore
SplineSet
785 1727 m 1,0,-1
 785 1570 l 1,1,-1
 314 1570 l 1,2,-1
 314 942 l 1,3,-1
 471 942 l 1,4,-1
 471 785 l 1,5,-1
 314 785 l 1,6,-1
 314 157 l 1,7,-1
 785 157 l 1,8,-1
 785 0 l 1,9,-1
 157 0 l 1,10,-1
 157 785 l 1,11,-1
 0 785 l 1,12,-1
 0 942 l 1,13,-1
 157 942 l 1,14,-1
 157 1727 l 1,15,-1
 785 1727 l 1,0,-1
942 1570 m 1,16,-1
 942 157 l 1,17,-1
 785 157 l 1,18,-1
 785 1570 l 1,19,-1
 942 1570 l 1,16,-1
EndSplineSet
Validated: 5
EndChar

StartChar: Ntilde
Encoding: 209 209 147
Width: 1099
VWidth: 2048
GlyphClass: 2
Flags: W
LayerCount: 2
Fore
SplineSet
471 2041 m 1,0,-1
 471 1884 l 1,1,-1
 157 1884 l 1,2,-1
 157 2041 l 1,3,-1
 471 2041 l 1,0,-1
942 2041 m 1,4,-1
 942 1884 l 1,5,-1
 785 1884 l 1,6,-1
 785 2041 l 1,7,-1
 942 2041 l 1,4,-1
157 1884 m 1,8,-1
 157 1727 l 1,9,-1
 0 1727 l 1,10,-1
 0 1884 l 1,11,-1
 157 1884 l 1,8,-1
785 1884 m 1,12,-1
 785 1727 l 1,13,-1
 471 1727 l 1,14,-1
 471 1884 l 1,15,-1
 785 1884 l 1,12,-1
157 1570 m 1,16,-1
 157 1256 l 1,17,-1
 314 1256 l 1,18,-1
 314 942 l 1,19,-1
 157 942 l 1,20,-1
 157 0 l 1,21,-1
 0 0 l 1,22,-1
 0 1570 l 1,23,-1
 157 1570 l 1,16,-1
785 1570 m 1,24,-1
 785 0 l 1,25,-1
 628 0 l 1,26,-1
 628 314 l 1,27,-1
 471 314 l 1,28,-1
 471 628 l 1,29,-1
 628 628 l 1,30,-1
 628 1570 l 1,31,-1
 785 1570 l 1,24,-1
471 942 m 1,32,-1
 471 628 l 1,33,-1
 314 628 l 1,34,-1
 314 942 l 1,35,-1
 471 942 l 1,32,-1
EndSplineSet
Validated: 5
EndChar

StartChar: Ograve
Encoding: 210 210 148
Width: 942
VWidth: 2048
GlyphClass: 2
Flags: W
LayerCount: 2
Fore
SplineSet
471 2041 m 1,0,-1
 471 1884 l 1,1,-1
 157 1884 l 1,2,-1
 157 2041 l 1,3,-1
 471 2041 l 1,0,-1
628 1884 m 1,4,-1
 628 1727 l 1,5,-1
 471 1727 l 1,6,-1
 471 1884 l 1,7,-1
 628 1884 l 1,4,-1
628 1570 m 1,8,-1
 628 1413 l 1,9,-1
 157 1413 l 1,10,-1
 157 1570 l 1,11,-1
 628 1570 l 1,8,-1
157 1413 m 1,12,-1
 157 157 l 1,13,-1
 0 157 l 1,14,-1
 0 1413 l 1,15,-1
 157 1413 l 1,12,-1
785 1413 m 1,16,-1
 785 157 l 1,17,-1
 628 157 l 1,18,-1
 628 1413 l 1,19,-1
 785 1413 l 1,16,-1
628 157 m 1,20,-1
 628 0 l 1,21,-1
 157 0 l 1,22,-1
 157 157 l 1,23,-1
 628 157 l 1,20,-1
EndSplineSet
Validated: 5
EndChar

StartChar: Oacute
Encoding: 211 211 149
Width: 942
VWidth: 2048
GlyphClass: 2
Flags: W
LayerCount: 2
Fore
SplineSet
628 2041 m 1,0,-1
 628 1884 l 1,1,-1
 314 1884 l 1,2,-1
 314 2041 l 1,3,-1
 628 2041 l 1,0,-1
314 1884 m 1,4,-1
 314 1727 l 1,5,-1
 157 1727 l 1,6,-1
 157 1884 l 1,7,-1
 314 1884 l 1,4,-1
628 1570 m 1,8,-1
 628 1413 l 1,9,-1
 157 1413 l 1,10,-1
 157 1570 l 1,11,-1
 628 1570 l 1,8,-1
157 1413 m 1,12,-1
 157 157 l 1,13,-1
 0 157 l 1,14,-1
 0 1413 l 1,15,-1
 157 1413 l 1,12,-1
785 1413 m 1,16,-1
 785 157 l 1,17,-1
 628 157 l 1,18,-1
 628 1413 l 1,19,-1
 785 1413 l 1,16,-1
628 157 m 1,20,-1
 628 0 l 1,21,-1
 157 0 l 1,22,-1
 157 157 l 1,23,-1
 628 157 l 1,20,-1
EndSplineSet
Validated: 5
EndChar

StartChar: Ocircumflex
Encoding: 212 212 150
Width: 942
VWidth: 2048
GlyphClass: 2
Flags: W
LayerCount: 2
Fore
SplineSet
471 2041 m 1,0,-1
 471 1884 l 1,1,-1
 314 1884 l 1,2,-1
 314 2041 l 1,3,-1
 471 2041 l 1,0,-1
314 1884 m 1,4,-1
 314 1727 l 1,5,-1
 157 1727 l 1,6,-1
 157 1884 l 1,7,-1
 314 1884 l 1,4,-1
628 1884 m 1,8,-1
 628 1727 l 1,9,-1
 471 1727 l 1,10,-1
 471 1884 l 1,11,-1
 628 1884 l 1,8,-1
628 1570 m 1,12,-1
 628 1413 l 1,13,-1
 157 1413 l 1,14,-1
 157 1570 l 1,15,-1
 628 1570 l 1,12,-1
157 1413 m 1,16,-1
 157 157 l 1,17,-1
 0 157 l 1,18,-1
 0 1413 l 1,19,-1
 157 1413 l 1,16,-1
785 1413 m 1,20,-1
 785 157 l 1,21,-1
 628 157 l 1,22,-1
 628 1413 l 1,23,-1
 785 1413 l 1,20,-1
628 157 m 1,24,-1
 628 0 l 1,25,-1
 157 0 l 1,26,-1
 157 157 l 1,27,-1
 628 157 l 1,24,-1
EndSplineSet
Validated: 5
EndChar

StartChar: Otilde
Encoding: 213 213 151
Width: 1099
VWidth: 2048
GlyphClass: 2
Flags: W
LayerCount: 2
Fore
SplineSet
471 2041 m 1,0,-1
 471 1884 l 1,1,-1
 157 1884 l 1,2,-1
 157 2041 l 1,3,-1
 471 2041 l 1,0,-1
942 2041 m 1,4,-1
 942 1884 l 1,5,-1
 785 1884 l 1,6,-1
 785 2041 l 1,7,-1
 942 2041 l 1,4,-1
157 1884 m 1,8,-1
 157 1727 l 1,9,-1
 0 1727 l 1,10,-1
 0 1884 l 1,11,-1
 157 1884 l 1,8,-1
785 1884 m 1,12,-1
 785 1727 l 1,13,-1
 471 1727 l 1,14,-1
 471 1884 l 1,15,-1
 785 1884 l 1,12,-1
628 1570 m 1,16,-1
 628 1413 l 1,17,-1
 157 1413 l 1,18,-1
 157 1570 l 1,19,-1
 628 1570 l 1,16,-1
157 1413 m 1,20,-1
 157 157 l 1,21,-1
 0 157 l 1,22,-1
 0 1413 l 1,23,-1
 157 1413 l 1,20,-1
785 1413 m 1,24,-1
 785 157 l 1,25,-1
 628 157 l 1,26,-1
 628 1413 l 1,27,-1
 785 1413 l 1,24,-1
628 157 m 1,28,-1
 628 0 l 1,29,-1
 157 0 l 1,30,-1
 157 157 l 1,31,-1
 628 157 l 1,28,-1
EndSplineSet
Validated: 5
EndChar

StartChar: Odieresis
Encoding: 214 214 152
Width: 942
VWidth: 2048
GlyphClass: 2
Flags: W
LayerCount: 2
Fore
SplineSet
157 2041 m 1,0,-1
 157 1884 l 1,1,-1
 0 1884 l 1,2,-1
 0 2041 l 1,3,-1
 157 2041 l 1,0,-1
785 2041 m 1,4,-1
 785 1884 l 1,5,-1
 628 1884 l 1,6,-1
 628 2041 l 1,7,-1
 785 2041 l 1,4,-1
628 1570 m 1,8,-1
 628 1413 l 1,9,-1
 157 1413 l 1,10,-1
 157 1570 l 1,11,-1
 628 1570 l 1,8,-1
157 1413 m 1,12,-1
 157 157 l 1,13,-1
 0 157 l 1,14,-1
 0 1413 l 1,15,-1
 157 1413 l 1,12,-1
785 1413 m 1,16,-1
 785 157 l 1,17,-1
 628 157 l 1,18,-1
 628 1413 l 1,19,-1
 785 1413 l 1,16,-1
628 157 m 1,20,-1
 628 0 l 1,21,-1
 157 0 l 1,22,-1
 157 157 l 1,23,-1
 628 157 l 1,20,-1
EndSplineSet
Validated: 5
EndChar

StartChar: multiply
Encoding: 215 215 153
Width: 942
VWidth: 2048
GlyphClass: 2
Flags: W
LayerCount: 2
Fore
SplineSet
157 1256 m 1,0,-1
 157 1099 l 1,1,-1
 0 1099 l 1,2,-1
 0 1256 l 1,3,-1
 157 1256 l 1,0,-1
785 1256 m 1,4,-1
 785 1099 l 1,5,-1
 628 1099 l 1,6,-1
 628 1256 l 1,7,-1
 785 1256 l 1,4,-1
314 1099 m 1,8,-1
 314 942 l 1,9,-1
 157 942 l 1,10,-1
 157 1099 l 1,11,-1
 314 1099 l 1,8,-1
628 1099 m 1,12,-1
 628 942 l 1,13,-1
 471 942 l 1,14,-1
 471 1099 l 1,15,-1
 628 1099 l 1,12,-1
471 942 m 1,16,-1
 471 628 l 1,17,-1
 314 628 l 1,18,-1
 314 942 l 1,19,-1
 471 942 l 1,16,-1
314 628 m 1,20,-1
 314 471 l 1,21,-1
 157 471 l 1,22,-1
 157 628 l 1,23,-1
 314 628 l 1,20,-1
628 628 m 1,24,-1
 628 471 l 1,25,-1
 471 471 l 1,26,-1
 471 628 l 1,27,-1
 628 628 l 1,24,-1
157 471 m 1,28,-1
 157 314 l 1,29,-1
 0 314 l 1,30,-1
 0 471 l 1,31,-1
 157 471 l 1,28,-1
785 471 m 1,32,-1
 785 314 l 1,33,-1
 628 314 l 1,34,-1
 628 471 l 1,35,-1
 785 471 l 1,32,-1
EndSplineSet
Validated: 5
EndChar

StartChar: Oslash
Encoding: 216 216 154
Width: 1256
VWidth: 2048
GlyphClass: 2
Flags: W
LayerCount: 2
Fore
SplineSet
785 1570 m 1,0,-1
 785 1413 l 1,1,-1
 314 1413 l 1,2,-1
 314 1570 l 1,3,-1
 785 1570 l 1,0,-1
1099 1570 m 1,4,-1
 1099 1413 l 1,5,-1
 942 1413 l 1,6,-1
 942 1570 l 1,7,-1
 1099 1570 l 1,4,-1
314 1413 m 1,8,-1
 314 628 l 1,9,-1
 471 628 l 1,10,-1
 471 314 l 1,11,-1
 314 314 l 1,12,-1
 314 157 l 1,13,-1
 157 157 l 1,14,-1
 157 1413 l 1,15,-1
 314 1413 l 1,8,-1
942 1413 m 1,16,-1
 942 157 l 1,17,-1
 785 157 l 1,18,-1
 785 942 l 1,19,-1
 628 942 l 1,20,-1
 628 1256 l 1,21,-1
 785 1256 l 1,22,-1
 785 1413 l 1,23,-1
 942 1413 l 1,16,-1
628 942 m 1,24,-1
 628 628 l 1,25,-1
 471 628 l 1,26,-1
 471 942 l 1,27,-1
 628 942 l 1,24,-1
157 157 m 1,28,-1
 157 0 l 1,29,-1
 0 0 l 1,30,-1
 0 157 l 1,31,-1
 157 157 l 1,28,-1
785 157 m 1,32,-1
 785 0 l 1,33,-1
 314 0 l 1,34,-1
 314 157 l 1,35,-1
 785 157 l 1,32,-1
EndSplineSet
Validated: 5
EndChar

StartChar: Ugrave
Encoding: 217 217 155
Width: 942
VWidth: 2048
GlyphClass: 2
Flags: W
LayerCount: 2
Fore
SplineSet
471 2041 m 1,0,-1
 471 1884 l 1,1,-1
 157 1884 l 1,2,-1
 157 2041 l 1,3,-1
 471 2041 l 1,0,-1
628 1884 m 1,4,-1
 628 1727 l 1,5,-1
 471 1727 l 1,6,-1
 471 1884 l 1,7,-1
 628 1884 l 1,4,-1
157 1570 m 1,8,-1
 157 157 l 1,9,-1
 0 157 l 1,10,-1
 0 1570 l 1,11,-1
 157 1570 l 1,8,-1
785 1570 m 1,12,-1
 785 157 l 1,13,-1
 628 157 l 1,14,-1
 628 1570 l 1,15,-1
 785 1570 l 1,12,-1
628 157 m 1,16,-1
 628 0 l 1,17,-1
 157 0 l 1,18,-1
 157 157 l 1,19,-1
 628 157 l 1,16,-1
EndSplineSet
Validated: 5
EndChar

StartChar: Uacute
Encoding: 218 218 156
Width: 942
VWidth: 2048
GlyphClass: 2
Flags: W
LayerCount: 2
Fore
SplineSet
628 2041 m 1,0,-1
 628 1884 l 1,1,-1
 314 1884 l 1,2,-1
 314 2041 l 1,3,-1
 628 2041 l 1,0,-1
314 1884 m 1,4,-1
 314 1727 l 1,5,-1
 157 1727 l 1,6,-1
 157 1884 l 1,7,-1
 314 1884 l 1,4,-1
157 1570 m 1,8,-1
 157 157 l 1,9,-1
 0 157 l 1,10,-1
 0 1570 l 1,11,-1
 157 1570 l 1,8,-1
785 1570 m 1,12,-1
 785 157 l 1,13,-1
 628 157 l 1,14,-1
 628 1570 l 1,15,-1
 785 1570 l 1,12,-1
628 157 m 1,16,-1
 628 0 l 1,17,-1
 157 0 l 1,18,-1
 157 157 l 1,19,-1
 628 157 l 1,16,-1
EndSplineSet
Validated: 5
EndChar

StartChar: Ucircumflex
Encoding: 219 219 157
Width: 942
VWidth: 2048
GlyphClass: 2
Flags: W
LayerCount: 2
Fore
SplineSet
471 2041 m 1,0,-1
 471 1884 l 1,1,-1
 314 1884 l 1,2,-1
 314 2041 l 1,3,-1
 471 2041 l 1,0,-1
314 1884 m 1,4,-1
 314 1727 l 1,5,-1
 157 1727 l 1,6,-1
 157 1884 l 1,7,-1
 314 1884 l 1,4,-1
628 1884 m 1,8,-1
 628 1727 l 1,9,-1
 471 1727 l 1,10,-1
 471 1884 l 1,11,-1
 628 1884 l 1,8,-1
157 1570 m 1,12,-1
 157 157 l 1,13,-1
 0 157 l 1,14,-1
 0 1570 l 1,15,-1
 157 1570 l 1,12,-1
785 1570 m 1,16,-1
 785 157 l 1,17,-1
 628 157 l 1,18,-1
 628 1570 l 1,19,-1
 785 1570 l 1,16,-1
628 157 m 1,20,-1
 628 0 l 1,21,-1
 157 0 l 1,22,-1
 157 157 l 1,23,-1
 628 157 l 1,20,-1
EndSplineSet
Validated: 5
EndChar

StartChar: Udieresis
Encoding: 220 220 158
Width: 942
VWidth: 2048
GlyphClass: 2
Flags: W
LayerCount: 2
Fore
SplineSet
157 2041 m 1,0,-1
 157 1884 l 1,1,-1
 0 1884 l 1,2,-1
 0 2041 l 1,3,-1
 157 2041 l 1,0,-1
785 2041 m 1,4,-1
 785 1884 l 1,5,-1
 628 1884 l 1,6,-1
 628 2041 l 1,7,-1
 785 2041 l 1,4,-1
157 1570 m 1,8,-1
 157 157 l 1,9,-1
 0 157 l 1,10,-1
 0 1570 l 1,11,-1
 157 1570 l 1,8,-1
785 1570 m 1,12,-1
 785 157 l 1,13,-1
 628 157 l 1,14,-1
 628 1570 l 1,15,-1
 785 1570 l 1,12,-1
628 157 m 1,16,-1
 628 0 l 1,17,-1
 157 0 l 1,18,-1
 157 157 l 1,19,-1
 628 157 l 1,16,-1
EndSplineSet
Validated: 5
EndChar

StartChar: Yacute
Encoding: 221 221 159
Width: 942
VWidth: 2048
GlyphClass: 2
Flags: W
LayerCount: 2
Fore
SplineSet
628 2041 m 1,0,-1
 628 1884 l 1,1,-1
 314 1884 l 1,2,-1
 314 2041 l 1,3,-1
 628 2041 l 1,0,-1
314 1884 m 1,4,-1
 314 1727 l 1,5,-1
 157 1727 l 1,6,-1
 157 1884 l 1,7,-1
 314 1884 l 1,4,-1
157 1570 m 1,8,-1
 157 1099 l 1,9,-1
 0 1099 l 1,10,-1
 0 1570 l 1,11,-1
 157 1570 l 1,8,-1
785 1570 m 1,12,-1
 785 1099 l 1,13,-1
 628 1099 l 1,14,-1
 628 1570 l 1,15,-1
 785 1570 l 1,12,-1
314 1099 m 1,16,-1
 314 785 l 1,17,-1
 157 785 l 1,18,-1
 157 1099 l 1,19,-1
 314 1099 l 1,16,-1
628 1099 m 1,20,-1
 628 785 l 1,21,-1
 471 785 l 1,22,-1
 471 1099 l 1,23,-1
 628 1099 l 1,20,-1
471 785 m 1,24,-1
 471 0 l 1,25,-1
 314 0 l 1,26,-1
 314 785 l 1,27,-1
 471 785 l 1,24,-1
EndSplineSet
Validated: 5
EndChar

StartChar: Thorn
Encoding: 222 222 160
Width: 942
VWidth: 2048
GlyphClass: 2
Flags: W
LayerCount: 2
Fore
SplineSet
157 1727 m 1,0,-1
 157 1570 l 1,1,-1
 628 1570 l 1,2,-1
 628 1413 l 1,3,-1
 157 1413 l 1,4,-1
 157 471 l 1,5,-1
 471 471 l 1,6,-1
 471 314 l 1,7,-1
 157 314 l 1,8,-1
 157 0 l 1,9,-1
 0 0 l 1,10,-1
 0 1727 l 1,11,-1
 157 1727 l 1,0,-1
785 1413 m 1,12,-1
 785 628 l 1,13,-1
 628 628 l 1,14,-1
 628 1413 l 1,15,-1
 785 1413 l 1,12,-1
628 628 m 1,16,-1
 628 471 l 1,17,-1
 471 471 l 1,18,-1
 471 628 l 1,19,-1
 628 628 l 1,16,-1
EndSplineSet
Validated: 5
EndChar

StartChar: germandbls
Encoding: 223 223 161
Width: 942
VWidth: 2048
GlyphClass: 2
Flags: W
LayerCount: 2
Fore
SplineSet
471 1727 m 1,0,-1
 471 1570 l 1,1,-1
 157 1570 l 1,2,-1
 157 1099 l 1,3,-1
 471 1099 l 1,4,-1
 471 942 l 1,5,-1
 157 942 l 1,6,-1
 157 0 l 1,7,-1
 0 0 l 1,8,-1
 0 1727 l 1,9,-1
 471 1727 l 1,0,-1
628 1570 m 1,10,-1
 628 1099 l 1,11,-1
 471 1099 l 1,12,-1
 471 1570 l 1,13,-1
 628 1570 l 1,10,-1
628 942 m 1,14,-1
 628 785 l 1,15,-1
 471 785 l 1,16,-1
 471 942 l 1,17,-1
 628 942 l 1,14,-1
785 785 m 1,18,-1
 785 314 l 1,19,-1
 628 314 l 1,20,-1
 628 785 l 1,21,-1
 785 785 l 1,18,-1
628 314 m 1,22,-1
 628 157 l 1,23,-1
 471 157 l 1,24,-1
 471 314 l 1,25,-1
 628 314 l 1,22,-1
EndSplineSet
Validated: 5
EndChar

StartChar: agrave
Encoding: 224 224 162
Width: 942
VWidth: 2048
GlyphClass: 2
Flags: W
LayerCount: 2
Fore
SplineSet
471 1570 m 1,0,-1
 471 1413 l 1,1,-1
 157 1413 l 1,2,-1
 157 1570 l 1,3,-1
 471 1570 l 1,0,-1
628 1413 m 1,4,-1
 628 1256 l 1,5,-1
 471 1256 l 1,6,-1
 471 1413 l 1,7,-1
 628 1413 l 1,4,-1
628 1099 m 1,8,-1
 628 942 l 1,9,-1
 157 942 l 1,10,-1
 157 1099 l 1,11,-1
 628 1099 l 1,8,-1
785 942 m 1,12,-1
 785 0 l 1,13,-1
 157 0 l 1,14,-1
 157 157 l 1,15,-1
 628 157 l 1,16,-1
 628 628 l 1,17,-1
 157 628 l 1,18,-1
 157 785 l 1,19,-1
 628 785 l 1,20,-1
 628 942 l 1,21,-1
 785 942 l 1,12,-1
157 628 m 1,22,-1
 157 157 l 1,23,-1
 0 157 l 1,24,-1
 0 628 l 1,25,-1
 157 628 l 1,22,-1
EndSplineSet
Validated: 5
EndChar

StartChar: aacute
Encoding: 225 225 163
Width: 942
VWidth: 2048
GlyphClass: 2
Flags: W
LayerCount: 2
Fore
SplineSet
628 1570 m 1,0,-1
 628 1413 l 1,1,-1
 314 1413 l 1,2,-1
 314 1570 l 1,3,-1
 628 1570 l 1,0,-1
314 1413 m 1,4,-1
 314 1256 l 1,5,-1
 157 1256 l 1,6,-1
 157 1413 l 1,7,-1
 314 1413 l 1,4,-1
628 1099 m 1,8,-1
 628 942 l 1,9,-1
 157 942 l 1,10,-1
 157 1099 l 1,11,-1
 628 1099 l 1,8,-1
785 942 m 1,12,-1
 785 0 l 1,13,-1
 157 0 l 1,14,-1
 157 157 l 1,15,-1
 628 157 l 1,16,-1
 628 628 l 1,17,-1
 157 628 l 1,18,-1
 157 785 l 1,19,-1
 628 785 l 1,20,-1
 628 942 l 1,21,-1
 785 942 l 1,12,-1
157 628 m 1,22,-1
 157 157 l 1,23,-1
 0 157 l 1,24,-1
 0 628 l 1,25,-1
 157 628 l 1,22,-1
EndSplineSet
Validated: 5
EndChar

StartChar: acircumflex
Encoding: 226 226 164
Width: 942
VWidth: 2048
GlyphClass: 2
Flags: W
LayerCount: 2
Fore
SplineSet
471 1570 m 1,0,-1
 471 1413 l 1,1,-1
 314 1413 l 1,2,-1
 314 1570 l 1,3,-1
 471 1570 l 1,0,-1
314 1413 m 1,4,-1
 314 1256 l 1,5,-1
 157 1256 l 1,6,-1
 157 1413 l 1,7,-1
 314 1413 l 1,4,-1
628 1413 m 1,8,-1
 628 1256 l 1,9,-1
 471 1256 l 1,10,-1
 471 1413 l 1,11,-1
 628 1413 l 1,8,-1
628 1099 m 1,12,-1
 628 942 l 1,13,-1
 157 942 l 1,14,-1
 157 1099 l 1,15,-1
 628 1099 l 1,12,-1
785 942 m 1,16,-1
 785 0 l 1,17,-1
 157 0 l 1,18,-1
 157 157 l 1,19,-1
 628 157 l 1,20,-1
 628 628 l 1,21,-1
 157 628 l 1,22,-1
 157 785 l 1,23,-1
 628 785 l 1,24,-1
 628 942 l 1,25,-1
 785 942 l 1,16,-1
157 628 m 1,26,-1
 157 157 l 1,27,-1
 0 157 l 1,28,-1
 0 628 l 1,29,-1
 157 628 l 1,26,-1
EndSplineSet
Validated: 5
EndChar

StartChar: atilde
Encoding: 227 227 165
Width: 1099
VWidth: 2048
GlyphClass: 2
Flags: W
LayerCount: 2
Fore
SplineSet
471 1570 m 1,0,-1
 471 1413 l 1,1,-1
 157 1413 l 1,2,-1
 157 1570 l 1,3,-1
 471 1570 l 1,0,-1
942 1570 m 1,4,-1
 942 1413 l 1,5,-1
 785 1413 l 1,6,-1
 785 1570 l 1,7,-1
 942 1570 l 1,4,-1
157 1413 m 1,8,-1
 157 1256 l 1,9,-1
 0 1256 l 1,10,-1
 0 1413 l 1,11,-1
 157 1413 l 1,8,-1
785 1413 m 1,12,-1
 785 1256 l 1,13,-1
 471 1256 l 1,14,-1
 471 1413 l 1,15,-1
 785 1413 l 1,12,-1
628 1099 m 1,16,-1
 628 942 l 1,17,-1
 157 942 l 1,18,-1
 157 1099 l 1,19,-1
 628 1099 l 1,16,-1
785 942 m 1,20,-1
 785 0 l 1,21,-1
 157 0 l 1,22,-1
 157 157 l 1,23,-1
 628 157 l 1,24,-1
 628 628 l 1,25,-1
 157 628 l 1,26,-1
 157 785 l 1,27,-1
 628 785 l 1,28,-1
 628 942 l 1,29,-1
 785 942 l 1,20,-1
157 628 m 1,30,-1
 157 157 l 1,31,-1
 0 157 l 1,32,-1
 0 628 l 1,33,-1
 157 628 l 1,30,-1
EndSplineSet
Validated: 5
EndChar

StartChar: adieresis
Encoding: 228 228 166
Width: 942
VWidth: 2048
GlyphClass: 2
Flags: W
LayerCount: 2
Fore
SplineSet
157 1570 m 1,0,-1
 157 1413 l 1,1,-1
 0 1413 l 1,2,-1
 0 1570 l 1,3,-1
 157 1570 l 1,0,-1
785 1570 m 1,4,-1
 785 1413 l 1,5,-1
 628 1413 l 1,6,-1
 628 1570 l 1,7,-1
 785 1570 l 1,4,-1
628 1099 m 1,8,-1
 628 942 l 1,9,-1
 157 942 l 1,10,-1
 157 1099 l 1,11,-1
 628 1099 l 1,8,-1
785 942 m 1,12,-1
 785 0 l 1,13,-1
 157 0 l 1,14,-1
 157 157 l 1,15,-1
 628 157 l 1,16,-1
 628 628 l 1,17,-1
 157 628 l 1,18,-1
 157 785 l 1,19,-1
 628 785 l 1,20,-1
 628 942 l 1,21,-1
 785 942 l 1,12,-1
157 628 m 1,22,-1
 157 157 l 1,23,-1
 0 157 l 1,24,-1
 0 628 l 1,25,-1
 157 628 l 1,22,-1
EndSplineSet
Validated: 5
EndChar

StartChar: aring
Encoding: 229 229 167
Width: 942
VWidth: 2048
GlyphClass: 2
Flags: W
LayerCount: 2
Fore
SplineSet
471 1727 m 1,0,-1
 471 1570 l 1,1,-1
 314 1570 l 1,2,-1
 314 1727 l 1,3,-1
 471 1727 l 1,0,-1
314 1570 m 1,4,-1
 314 1413 l 1,5,-1
 157 1413 l 1,6,-1
 157 1570 l 1,7,-1
 314 1570 l 1,4,-1
628 1570 m 1,8,-1
 628 1413 l 1,9,-1
 471 1413 l 1,10,-1
 471 1570 l 1,11,-1
 628 1570 l 1,8,-1
471 1413 m 1,12,-1
 471 1256 l 1,13,-1
 314 1256 l 1,14,-1
 314 1413 l 1,15,-1
 471 1413 l 1,12,-1
628 1099 m 1,16,-1
 628 942 l 1,17,-1
 157 942 l 1,18,-1
 157 1099 l 1,19,-1
 628 1099 l 1,16,-1
785 942 m 1,20,-1
 785 0 l 1,21,-1
 157 0 l 1,22,-1
 157 157 l 1,23,-1
 628 157 l 1,24,-1
 628 628 l 1,25,-1
 157 628 l 1,26,-1
 157 785 l 1,27,-1
 628 785 l 1,28,-1
 628 942 l 1,29,-1
 785 942 l 1,20,-1
157 628 m 1,30,-1
 157 157 l 1,31,-1
 0 157 l 1,32,-1
 0 628 l 1,33,-1
 157 628 l 1,30,-1
EndSplineSet
Validated: 5
EndChar

StartChar: ae
Encoding: 230 230 168
Width: 1570
VWidth: 2048
GlyphClass: 2
Flags: W
LayerCount: 2
Fore
SplineSet
628 1099 m 1,0,-1
 628 942 l 1,1,-1
 157 942 l 1,2,-1
 157 1099 l 1,3,-1
 628 1099 l 1,0,-1
1256 1099 m 1,4,-1
 1256 942 l 1,5,-1
 785 942 l 1,6,-1
 785 1099 l 1,7,-1
 1256 1099 l 1,4,-1
785 942 m 1,8,-1
 785 628 l 1,9,-1
 1256 628 l 1,10,-1
 1256 942 l 1,11,-1
 1413 942 l 1,12,-1
 1413 471 l 1,13,-1
 785 471 l 1,14,-1
 785 157 l 1,15,-1
 628 157 l 1,16,-1
 628 628 l 1,17,-1
 157 628 l 1,18,-1
 157 785 l 1,19,-1
 628 785 l 1,20,-1
 628 942 l 1,21,-1
 785 942 l 1,8,-1
157 628 m 1,22,-1
 157 157 l 1,23,-1
 0 157 l 1,24,-1
 0 628 l 1,25,-1
 157 628 l 1,22,-1
1413 314 m 1,26,-1
 1413 157 l 1,27,-1
 1256 157 l 1,28,-1
 1256 314 l 1,29,-1
 1413 314 l 1,26,-1
628 157 m 1,30,-1
 628 0 l 1,31,-1
 157 0 l 1,32,-1
 157 157 l 1,33,-1
 628 157 l 1,30,-1
1256 157 m 1,34,-1
 1256 0 l 1,35,-1
 785 0 l 1,36,-1
 785 157 l 1,37,-1
 1256 157 l 1,34,-1
EndSplineSet
Validated: 5
EndChar

StartChar: ccedilla
Encoding: 231 231 169
Width: 942
VWidth: 2048
GlyphClass: 2
Flags: W
LayerCount: 2
Fore
SplineSet
628 1099 m 1,0,-1
 628 942 l 1,1,-1
 157 942 l 1,2,-1
 157 1099 l 1,3,-1
 628 1099 l 1,0,-1
157 942 m 1,4,-1
 157 314 l 1,5,-1
 0 314 l 1,6,-1
 0 942 l 1,7,-1
 157 942 l 1,4,-1
785 942 m 1,8,-1
 785 785 l 1,9,-1
 628 785 l 1,10,-1
 628 942 l 1,11,-1
 785 942 l 1,8,-1
785 471 m 1,12,-1
 785 314 l 1,13,-1
 628 314 l 1,14,-1
 628 471 l 1,15,-1
 785 471 l 1,12,-1
628 314 m 1,16,-1
 628 157 l 1,17,-1
 471 157 l 1,18,-1
 471 -157 l 1,19,-1
 157 -157 l 1,20,-1
 157 0 l 1,21,-1
 314 0 l 1,22,-1
 314 157 l 1,23,-1
 157 157 l 1,24,-1
 157 314 l 1,25,-1
 628 314 l 1,16,-1
EndSplineSet
Validated: 5
EndChar

StartChar: egrave
Encoding: 232 232 170
Width: 942
VWidth: 2048
GlyphClass: 2
Flags: W
LayerCount: 2
Fore
SplineSet
471 1570 m 1,0,-1
 471 1413 l 1,1,-1
 157 1413 l 1,2,-1
 157 1570 l 1,3,-1
 471 1570 l 1,0,-1
628 1413 m 1,4,-1
 628 1256 l 1,5,-1
 471 1256 l 1,6,-1
 471 1413 l 1,7,-1
 628 1413 l 1,4,-1
628 1099 m 1,8,-1
 628 942 l 1,9,-1
 157 942 l 1,10,-1
 157 1099 l 1,11,-1
 628 1099 l 1,8,-1
157 942 m 1,12,-1
 157 628 l 1,13,-1
 628 628 l 1,14,-1
 628 942 l 1,15,-1
 785 942 l 1,16,-1
 785 471 l 1,17,-1
 157 471 l 1,18,-1
 157 157 l 1,19,-1
 0 157 l 1,20,-1
 0 942 l 1,21,-1
 157 942 l 1,12,-1
785 314 m 1,22,-1
 785 157 l 1,23,-1
 628 157 l 1,24,-1
 628 314 l 1,25,-1
 785 314 l 1,22,-1
628 157 m 1,26,-1
 628 0 l 1,27,-1
 157 0 l 1,28,-1
 157 157 l 1,29,-1
 628 157 l 1,26,-1
EndSplineSet
Validated: 5
EndChar

StartChar: eacute
Encoding: 233 233 171
Width: 942
VWidth: 2048
GlyphClass: 2
Flags: W
LayerCount: 2
Fore
SplineSet
785 1884 m 1,0,-1
 785 1727 l 1,1,-1
 628 1727 l 1,2,-1
 628 1570 l 1,3,-1
 471 1570 l 1,4,-1
 471 1884 l 1,5,-1
 785 1884 l 1,0,-1
471 1570 m 1,6,-1
 471 1413 l 1,7,-1
 314 1413 l 1,8,-1
 314 1570 l 1,9,-1
 471 1570 l 1,6,-1
628 1099 m 1,10,-1
 628 942 l 1,11,-1
 157 942 l 1,12,-1
 157 1099 l 1,13,-1
 628 1099 l 1,10,-1
157 942 m 1,14,-1
 157 628 l 1,15,-1
 628 628 l 1,16,-1
 628 942 l 1,17,-1
 785 942 l 1,18,-1
 785 471 l 1,19,-1
 157 471 l 1,20,-1
 157 157 l 1,21,-1
 0 157 l 1,22,-1
 0 942 l 1,23,-1
 157 942 l 1,14,-1
785 314 m 1,24,-1
 785 157 l 1,25,-1
 628 157 l 1,26,-1
 628 314 l 1,27,-1
 785 314 l 1,24,-1
628 157 m 1,28,-1
 628 0 l 1,29,-1
 157 0 l 1,30,-1
 157 157 l 1,31,-1
 628 157 l 1,28,-1
EndSplineSet
Validated: 5
EndChar

StartChar: ecircumflex
Encoding: 234 234 172
Width: 942
VWidth: 2048
GlyphClass: 2
Flags: W
LayerCount: 2
Fore
SplineSet
471 1570 m 1,0,-1
 471 1413 l 1,1,-1
 314 1413 l 1,2,-1
 314 1570 l 1,3,-1
 471 1570 l 1,0,-1
314 1413 m 1,4,-1
 314 1256 l 1,5,-1
 157 1256 l 1,6,-1
 157 1413 l 1,7,-1
 314 1413 l 1,4,-1
628 1413 m 1,8,-1
 628 1256 l 1,9,-1
 471 1256 l 1,10,-1
 471 1413 l 1,11,-1
 628 1413 l 1,8,-1
628 1099 m 1,12,-1
 628 942 l 1,13,-1
 157 942 l 1,14,-1
 157 1099 l 1,15,-1
 628 1099 l 1,12,-1
157 942 m 1,16,-1
 157 628 l 1,17,-1
 628 628 l 1,18,-1
 628 942 l 1,19,-1
 785 942 l 1,20,-1
 785 471 l 1,21,-1
 157 471 l 1,22,-1
 157 157 l 1,23,-1
 0 157 l 1,24,-1
 0 942 l 1,25,-1
 157 942 l 1,16,-1
785 314 m 1,26,-1
 785 157 l 1,27,-1
 628 157 l 1,28,-1
 628 314 l 1,29,-1
 785 314 l 1,26,-1
628 157 m 1,30,-1
 628 0 l 1,31,-1
 157 0 l 1,32,-1
 157 157 l 1,33,-1
 628 157 l 1,30,-1
EndSplineSet
Validated: 5
EndChar

StartChar: edieresis
Encoding: 235 235 173
Width: 942
VWidth: 2048
GlyphClass: 2
Flags: W
LayerCount: 2
Fore
SplineSet
157 1570 m 1,0,-1
 157 1413 l 1,1,-1
 0 1413 l 1,2,-1
 0 1570 l 1,3,-1
 157 1570 l 1,0,-1
785 1570 m 1,4,-1
 785 1413 l 1,5,-1
 628 1413 l 1,6,-1
 628 1570 l 1,7,-1
 785 1570 l 1,4,-1
628 1099 m 1,8,-1
 628 942 l 1,9,-1
 157 942 l 1,10,-1
 157 1099 l 1,11,-1
 628 1099 l 1,8,-1
157 942 m 1,12,-1
 157 628 l 1,13,-1
 628 628 l 1,14,-1
 628 942 l 1,15,-1
 785 942 l 1,16,-1
 785 471 l 1,17,-1
 157 471 l 1,18,-1
 157 157 l 1,19,-1
 0 157 l 1,20,-1
 0 942 l 1,21,-1
 157 942 l 1,12,-1
785 314 m 1,22,-1
 785 157 l 1,23,-1
 628 157 l 1,24,-1
 628 314 l 1,25,-1
 785 314 l 1,22,-1
628 157 m 1,26,-1
 628 0 l 1,27,-1
 157 0 l 1,28,-1
 157 157 l 1,29,-1
 628 157 l 1,26,-1
EndSplineSet
Validated: 5
EndChar

StartChar: igrave
Encoding: 236 236 174
Width: 628
VWidth: 2048
GlyphClass: 2
Flags: W
LayerCount: 2
Fore
SplineSet
314 1570 m 1,0,-1
 314 1413 l 1,1,-1
 0 1413 l 1,2,-1
 0 1570 l 1,3,-1
 314 1570 l 1,0,-1
471 1413 m 1,4,-1
 471 1256 l 1,5,-1
 314 1256 l 1,6,-1
 314 1413 l 1,7,-1
 471 1413 l 1,4,-1
314 1099 m 1,8,-1
 314 0 l 1,9,-1
 157 0 l 1,10,-1
 157 1099 l 1,11,-1
 314 1099 l 1,8,-1
EndSplineSet
Validated: 5
EndChar

StartChar: iacute
Encoding: 237 237 175
Width: 628
VWidth: 2048
GlyphClass: 2
Flags: W
LayerCount: 2
Fore
SplineSet
471 1570 m 1,0,-1
 471 1413 l 1,1,-1
 157 1413 l 1,2,-1
 157 1570 l 1,3,-1
 471 1570 l 1,0,-1
157 1413 m 1,4,-1
 157 1256 l 1,5,-1
 0 1256 l 1,6,-1
 0 1413 l 1,7,-1
 157 1413 l 1,4,-1
314 1099 m 1,8,-1
 314 0 l 1,9,-1
 157 0 l 1,10,-1
 157 1099 l 1,11,-1
 314 1099 l 1,8,-1
EndSplineSet
Validated: 5
EndChar

StartChar: icircumflex
Encoding: 238 238 176
Width: 628
VWidth: 2048
GlyphClass: 2
Flags: W
LayerCount: 2
Fore
SplineSet
314 1570 m 1,0,-1
 314 1413 l 1,1,-1
 157 1413 l 1,2,-1
 157 1570 l 1,3,-1
 314 1570 l 1,0,-1
157 1413 m 1,4,-1
 157 1256 l 1,5,-1
 0 1256 l 1,6,-1
 0 1413 l 1,7,-1
 157 1413 l 1,4,-1
471 1413 m 1,8,-1
 471 1256 l 1,9,-1
 314 1256 l 1,10,-1
 314 1413 l 1,11,-1
 471 1413 l 1,8,-1
314 1099 m 1,12,-1
 314 0 l 1,13,-1
 157 0 l 1,14,-1
 157 1099 l 1,15,-1
 314 1099 l 1,12,-1
EndSplineSet
Validated: 5
EndChar

StartChar: idieresis
Encoding: 239 239 177
Width: 942
VWidth: 2048
GlyphClass: 2
Flags: W
LayerCount: 2
Fore
SplineSet
157 1570 m 1,0,-1
 157 1413 l 1,1,-1
 0 1413 l 1,2,-1
 0 1570 l 1,3,-1
 157 1570 l 1,0,-1
785 1570 m 1,4,-1
 785 1413 l 1,5,-1
 628 1413 l 1,6,-1
 628 1570 l 1,7,-1
 785 1570 l 1,4,-1
471 1099 m 1,8,-1
 471 0 l 1,9,-1
 314 0 l 1,10,-1
 314 1099 l 1,11,-1
 471 1099 l 1,8,-1
EndSplineSet
Validated: 1
EndChar

StartChar: eth
Encoding: 240 240 178
Width: 942
VWidth: 2048
GlyphClass: 2
Flags: W
LayerCount: 2
Fore
SplineSet
157 1727 m 1,0,-1
 157 1570 l 1,1,-1
 0 1570 l 1,2,-1
 0 1727 l 1,3,-1
 157 1727 l 1,0,-1
471 1727 m 1,4,-1
 471 1570 l 1,5,-1
 314 1570 l 1,6,-1
 314 1727 l 1,7,-1
 471 1727 l 1,4,-1
314 1570 m 1,8,-1
 314 1413 l 1,9,-1
 157 1413 l 1,10,-1
 157 1570 l 1,11,-1
 314 1570 l 1,8,-1
157 1413 m 1,12,-1
 157 1256 l 1,13,-1
 0 1256 l 1,14,-1
 0 1413 l 1,15,-1
 157 1413 l 1,12,-1
471 1413 m 1,16,-1
 471 1256 l 1,17,-1
 314 1256 l 1,18,-1
 314 1413 l 1,19,-1
 471 1413 l 1,16,-1
628 1256 m 1,20,-1
 628 785 l 1,21,-1
 157 785 l 1,22,-1
 157 942 l 1,23,-1
 471 942 l 1,24,-1
 471 1256 l 1,25,-1
 628 1256 l 1,20,-1
157 785 m 1,26,-1
 157 157 l 1,27,-1
 0 157 l 1,28,-1
 0 785 l 1,29,-1
 157 785 l 1,26,-1
785 785 m 1,30,-1
 785 157 l 1,31,-1
 628 157 l 1,32,-1
 628 785 l 1,33,-1
 785 785 l 1,30,-1
628 157 m 1,34,-1
 628 0 l 1,35,-1
 157 0 l 1,36,-1
 157 157 l 1,37,-1
 628 157 l 1,34,-1
EndSplineSet
Validated: 5
EndChar

StartChar: ntilde
Encoding: 241 241 179
Width: 1099
VWidth: 2048
GlyphClass: 2
Flags: W
LayerCount: 2
Fore
SplineSet
471 1570 m 1,0,-1
 471 1413 l 1,1,-1
 157 1413 l 1,2,-1
 157 1570 l 1,3,-1
 471 1570 l 1,0,-1
942 1570 m 1,4,-1
 942 1413 l 1,5,-1
 785 1413 l 1,6,-1
 785 1570 l 1,7,-1
 942 1570 l 1,4,-1
157 1413 m 1,8,-1
 157 1256 l 1,9,-1
 0 1256 l 1,10,-1
 0 1413 l 1,11,-1
 157 1413 l 1,8,-1
785 1413 m 1,12,-1
 785 1256 l 1,13,-1
 471 1256 l 1,14,-1
 471 1413 l 1,15,-1
 785 1413 l 1,12,-1
628 1099 m 1,16,-1
 628 942 l 1,17,-1
 157 942 l 1,18,-1
 157 0 l 1,19,-1
 0 0 l 1,20,-1
 0 1099 l 1,21,-1
 628 1099 l 1,16,-1
785 942 m 1,22,-1
 785 0 l 1,23,-1
 628 0 l 1,24,-1
 628 942 l 1,25,-1
 785 942 l 1,22,-1
EndSplineSet
Validated: 5
EndChar

StartChar: ograve
Encoding: 242 242 180
Width: 942
VWidth: 2048
GlyphClass: 2
Flags: W
LayerCount: 2
Fore
SplineSet
471 1570 m 1,0,-1
 471 1413 l 1,1,-1
 157 1413 l 1,2,-1
 157 1570 l 1,3,-1
 471 1570 l 1,0,-1
628 1413 m 1,4,-1
 628 1256 l 1,5,-1
 471 1256 l 1,6,-1
 471 1413 l 1,7,-1
 628 1413 l 1,4,-1
628 1099 m 1,8,-1
 628 942 l 1,9,-1
 157 942 l 1,10,-1
 157 1099 l 1,11,-1
 628 1099 l 1,8,-1
157 942 m 1,12,-1
 157 157 l 1,13,-1
 0 157 l 1,14,-1
 0 942 l 1,15,-1
 157 942 l 1,12,-1
785 942 m 1,16,-1
 785 157 l 1,17,-1
 628 157 l 1,18,-1
 628 942 l 1,19,-1
 785 942 l 1,16,-1
628 157 m 1,20,-1
 628 0 l 1,21,-1
 157 0 l 1,22,-1
 157 157 l 1,23,-1
 628 157 l 1,20,-1
EndSplineSet
Validated: 5
EndChar

StartChar: oacute
Encoding: 243 243 181
Width: 942
VWidth: 2048
GlyphClass: 2
Flags: W
LayerCount: 2
Fore
SplineSet
628 1570 m 1,0,-1
 628 1413 l 1,1,-1
 314 1413 l 1,2,-1
 314 1570 l 1,3,-1
 628 1570 l 1,0,-1
314 1413 m 1,4,-1
 314 1256 l 1,5,-1
 157 1256 l 1,6,-1
 157 1413 l 1,7,-1
 314 1413 l 1,4,-1
628 1099 m 1,8,-1
 628 942 l 1,9,-1
 157 942 l 1,10,-1
 157 1099 l 1,11,-1
 628 1099 l 1,8,-1
157 942 m 1,12,-1
 157 157 l 1,13,-1
 0 157 l 1,14,-1
 0 942 l 1,15,-1
 157 942 l 1,12,-1
785 942 m 1,16,-1
 785 157 l 1,17,-1
 628 157 l 1,18,-1
 628 942 l 1,19,-1
 785 942 l 1,16,-1
628 157 m 1,20,-1
 628 0 l 1,21,-1
 157 0 l 1,22,-1
 157 157 l 1,23,-1
 628 157 l 1,20,-1
EndSplineSet
Validated: 5
EndChar

StartChar: ocircumflex
Encoding: 244 244 182
Width: 942
VWidth: 2048
GlyphClass: 2
Flags: W
LayerCount: 2
Fore
SplineSet
471 1570 m 1,0,-1
 471 1413 l 1,1,-1
 314 1413 l 1,2,-1
 314 1570 l 1,3,-1
 471 1570 l 1,0,-1
314 1413 m 1,4,-1
 314 1256 l 1,5,-1
 157 1256 l 1,6,-1
 157 1413 l 1,7,-1
 314 1413 l 1,4,-1
628 1413 m 1,8,-1
 628 1256 l 1,9,-1
 471 1256 l 1,10,-1
 471 1413 l 1,11,-1
 628 1413 l 1,8,-1
628 1099 m 1,12,-1
 628 942 l 1,13,-1
 157 942 l 1,14,-1
 157 1099 l 1,15,-1
 628 1099 l 1,12,-1
157 942 m 1,16,-1
 157 157 l 1,17,-1
 0 157 l 1,18,-1
 0 942 l 1,19,-1
 157 942 l 1,16,-1
785 942 m 1,20,-1
 785 157 l 1,21,-1
 628 157 l 1,22,-1
 628 942 l 1,23,-1
 785 942 l 1,20,-1
628 157 m 1,24,-1
 628 0 l 1,25,-1
 157 0 l 1,26,-1
 157 157 l 1,27,-1
 628 157 l 1,24,-1
EndSplineSet
Validated: 5
EndChar

StartChar: otilde
Encoding: 245 245 183
Width: 1099
VWidth: 2048
GlyphClass: 2
Flags: W
LayerCount: 2
Fore
SplineSet
471 1570 m 1,0,-1
 471 1413 l 1,1,-1
 157 1413 l 1,2,-1
 157 1570 l 1,3,-1
 471 1570 l 1,0,-1
942 1570 m 1,4,-1
 942 1413 l 1,5,-1
 785 1413 l 1,6,-1
 785 1570 l 1,7,-1
 942 1570 l 1,4,-1
157 1413 m 1,8,-1
 157 1256 l 1,9,-1
 0 1256 l 1,10,-1
 0 1413 l 1,11,-1
 157 1413 l 1,8,-1
785 1413 m 1,12,-1
 785 1256 l 1,13,-1
 471 1256 l 1,14,-1
 471 1413 l 1,15,-1
 785 1413 l 1,12,-1
628 1099 m 1,16,-1
 628 942 l 1,17,-1
 157 942 l 1,18,-1
 157 1099 l 1,19,-1
 628 1099 l 1,16,-1
157 942 m 1,20,-1
 157 157 l 1,21,-1
 0 157 l 1,22,-1
 0 942 l 1,23,-1
 157 942 l 1,20,-1
785 942 m 1,24,-1
 785 157 l 1,25,-1
 628 157 l 1,26,-1
 628 942 l 1,27,-1
 785 942 l 1,24,-1
628 157 m 1,28,-1
 628 0 l 1,29,-1
 157 0 l 1,30,-1
 157 157 l 1,31,-1
 628 157 l 1,28,-1
EndSplineSet
Validated: 5
EndChar

StartChar: odieresis
Encoding: 246 246 184
Width: 942
VWidth: 2048
GlyphClass: 2
Flags: W
LayerCount: 2
Fore
SplineSet
157 1570 m 1,0,-1
 157 1413 l 1,1,-1
 0 1413 l 1,2,-1
 0 1570 l 1,3,-1
 157 1570 l 1,0,-1
785 1570 m 1,4,-1
 785 1413 l 1,5,-1
 628 1413 l 1,6,-1
 628 1570 l 1,7,-1
 785 1570 l 1,4,-1
628 1099 m 1,8,-1
 628 942 l 1,9,-1
 157 942 l 1,10,-1
 157 1099 l 1,11,-1
 628 1099 l 1,8,-1
157 942 m 1,12,-1
 157 157 l 1,13,-1
 0 157 l 1,14,-1
 0 942 l 1,15,-1
 157 942 l 1,12,-1
785 942 m 1,16,-1
 785 157 l 1,17,-1
 628 157 l 1,18,-1
 628 942 l 1,19,-1
 785 942 l 1,16,-1
628 157 m 1,20,-1
 628 0 l 1,21,-1
 157 0 l 1,22,-1
 157 157 l 1,23,-1
 628 157 l 1,20,-1
EndSplineSet
Validated: 5
EndChar

StartChar: divide
Encoding: 247 247 185
Width: 942
VWidth: 2048
GlyphClass: 2
Flags: W
LayerCount: 2
Fore
SplineSet
471 1256 m 1,0,-1
 471 1099 l 1,1,-1
 314 1099 l 1,2,-1
 314 1256 l 1,3,-1
 471 1256 l 1,0,-1
785 942 m 1,4,-1
 785 785 l 1,5,-1
 0 785 l 1,6,-1
 0 942 l 1,7,-1
 785 942 l 1,4,-1
471 628 m 1,8,-1
 471 471 l 1,9,-1
 314 471 l 1,10,-1
 314 628 l 1,11,-1
 471 628 l 1,8,-1
EndSplineSet
Validated: 1
EndChar

StartChar: oslash
Encoding: 248 248 186
Width: 1256
VWidth: 2048
GlyphClass: 2
Flags: W
LayerCount: 2
Fore
SplineSet
785 1099 m 1,0,-1
 785 942 l 1,1,-1
 314 942 l 1,2,-1
 314 1099 l 1,3,-1
 785 1099 l 1,0,-1
1099 1099 m 1,4,-1
 1099 942 l 1,5,-1
 942 942 l 1,6,-1
 942 1099 l 1,7,-1
 1099 1099 l 1,4,-1
314 942 m 1,8,-1
 314 471 l 1,9,-1
 471 471 l 1,10,-1
 471 314 l 1,11,-1
 314 314 l 1,12,-1
 314 157 l 1,13,-1
 157 157 l 1,14,-1
 157 942 l 1,15,-1
 314 942 l 1,8,-1
942 942 m 1,16,-1
 942 157 l 1,17,-1
 785 157 l 1,18,-1
 785 628 l 1,19,-1
 628 628 l 1,20,-1
 628 785 l 1,21,-1
 785 785 l 1,22,-1
 785 942 l 1,23,-1
 942 942 l 1,16,-1
628 628 m 1,24,-1
 628 471 l 1,25,-1
 471 471 l 1,26,-1
 471 628 l 1,27,-1
 628 628 l 1,24,-1
157 157 m 1,28,-1
 157 0 l 1,29,-1
 0 0 l 1,30,-1
 0 157 l 1,31,-1
 157 157 l 1,28,-1
785 157 m 1,32,-1
 785 0 l 1,33,-1
 314 0 l 1,34,-1
 314 157 l 1,35,-1
 785 157 l 1,32,-1
EndSplineSet
Validated: 5
EndChar

StartChar: ugrave
Encoding: 249 249 187
Width: 942
VWidth: 2048
GlyphClass: 2
Flags: W
LayerCount: 2
Fore
SplineSet
471 1570 m 1,0,-1
 471 1413 l 1,1,-1
 157 1413 l 1,2,-1
 157 1570 l 1,3,-1
 471 1570 l 1,0,-1
628 1413 m 1,4,-1
 628 1256 l 1,5,-1
 471 1256 l 1,6,-1
 471 1413 l 1,7,-1
 628 1413 l 1,4,-1
157 1099 m 1,8,-1
 157 157 l 1,9,-1
 0 157 l 1,10,-1
 0 1099 l 1,11,-1
 157 1099 l 1,8,-1
785 1099 m 1,12,-1
 785 0 l 1,13,-1
 157 0 l 1,14,-1
 157 157 l 1,15,-1
 628 157 l 1,16,-1
 628 1099 l 1,17,-1
 785 1099 l 1,12,-1
EndSplineSet
Validated: 5
EndChar

StartChar: uacute
Encoding: 250 250 188
Width: 942
VWidth: 2048
GlyphClass: 2
Flags: W
LayerCount: 2
Fore
SplineSet
628 1570 m 1,0,-1
 628 1413 l 1,1,-1
 314 1413 l 1,2,-1
 314 1570 l 1,3,-1
 628 1570 l 1,0,-1
314 1413 m 1,4,-1
 314 1256 l 1,5,-1
 157 1256 l 1,6,-1
 157 1413 l 1,7,-1
 314 1413 l 1,4,-1
157 1099 m 1,8,-1
 157 157 l 1,9,-1
 0 157 l 1,10,-1
 0 1099 l 1,11,-1
 157 1099 l 1,8,-1
785 1099 m 1,12,-1
 785 0 l 1,13,-1
 157 0 l 1,14,-1
 157 157 l 1,15,-1
 628 157 l 1,16,-1
 628 1099 l 1,17,-1
 785 1099 l 1,12,-1
EndSplineSet
Validated: 5
EndChar

StartChar: ucircumflex
Encoding: 251 251 189
Width: 942
VWidth: 2048
GlyphClass: 2
Flags: W
LayerCount: 2
Fore
SplineSet
471 1570 m 1,0,-1
 471 1413 l 1,1,-1
 314 1413 l 1,2,-1
 314 1570 l 1,3,-1
 471 1570 l 1,0,-1
314 1413 m 1,4,-1
 314 1256 l 1,5,-1
 157 1256 l 1,6,-1
 157 1413 l 1,7,-1
 314 1413 l 1,4,-1
628 1413 m 1,8,-1
 628 1256 l 1,9,-1
 471 1256 l 1,10,-1
 471 1413 l 1,11,-1
 628 1413 l 1,8,-1
157 1099 m 1,12,-1
 157 157 l 1,13,-1
 0 157 l 1,14,-1
 0 1099 l 1,15,-1
 157 1099 l 1,12,-1
785 1099 m 1,16,-1
 785 0 l 1,17,-1
 157 0 l 1,18,-1
 157 157 l 1,19,-1
 628 157 l 1,20,-1
 628 1099 l 1,21,-1
 785 1099 l 1,16,-1
EndSplineSet
Validated: 5
EndChar

StartChar: udieresis
Encoding: 252 252 190
Width: 942
VWidth: 2048
GlyphClass: 2
Flags: W
LayerCount: 2
Fore
SplineSet
157 1570 m 1,0,-1
 157 1413 l 1,1,-1
 0 1413 l 1,2,-1
 0 1570 l 1,3,-1
 157 1570 l 1,0,-1
785 1570 m 1,4,-1
 785 1413 l 1,5,-1
 628 1413 l 1,6,-1
 628 1570 l 1,7,-1
 785 1570 l 1,4,-1
157 1099 m 1,8,-1
 157 157 l 1,9,-1
 0 157 l 1,10,-1
 0 1099 l 1,11,-1
 157 1099 l 1,8,-1
785 1099 m 1,12,-1
 785 0 l 1,13,-1
 157 0 l 1,14,-1
 157 157 l 1,15,-1
 628 157 l 1,16,-1
 628 1099 l 1,17,-1
 785 1099 l 1,12,-1
EndSplineSet
Validated: 5
EndChar

StartChar: yacute
Encoding: 253 253 191
Width: 942
VWidth: 2048
GlyphClass: 2
Flags: W
LayerCount: 2
Fore
SplineSet
628 1570 m 1,0,-1
 628 1413 l 1,1,-1
 314 1413 l 1,2,-1
 314 1570 l 1,3,-1
 628 1570 l 1,0,-1
314 1413 m 1,4,-1
 314 1256 l 1,5,-1
 157 1256 l 1,6,-1
 157 1413 l 1,7,-1
 314 1413 l 1,4,-1
157 1099 m 1,8,-1
 157 471 l 1,9,-1
 0 471 l 1,10,-1
 0 1099 l 1,11,-1
 157 1099 l 1,8,-1
785 1099 m 1,12,-1
 785 0 l 1,13,-1
 628 0 l 1,14,-1
 628 314 l 1,15,-1
 157 314 l 1,16,-1
 157 471 l 1,17,-1
 628 471 l 1,18,-1
 628 1099 l 1,19,-1
 785 1099 l 1,12,-1
628 0 m 1,20,-1
 628 -157 l 1,21,-1
 0 -157 l 1,22,-1
 0 0 l 1,23,-1
 628 0 l 1,20,-1
EndSplineSet
Validated: 5
EndChar

StartChar: thorn
Encoding: 254 254 192
Width: 942
VWidth: 2048
GlyphClass: 2
Flags: W
LayerCount: 2
Fore
SplineSet
157 1570 m 1,0,-1
 157 1099 l 1,1,-1
 628 1099 l 1,2,-1
 628 942 l 1,3,-1
 157 942 l 1,4,-1
 157 314 l 1,5,-1
 628 314 l 1,6,-1
 628 157 l 1,7,-1
 157 157 l 1,8,-1
 157 -157 l 1,9,-1
 0 -157 l 1,10,-1
 0 1570 l 1,11,-1
 157 1570 l 1,0,-1
785 942 m 1,12,-1
 785 314 l 1,13,-1
 628 314 l 1,14,-1
 628 942 l 1,15,-1
 785 942 l 1,12,-1
EndSplineSet
Validated: 5
EndChar

StartChar: ydieresis
Encoding: 255 255 193
Width: 942
VWidth: 2048
GlyphClass: 2
Flags: W
LayerCount: 2
Fore
SplineSet
157 1570 m 1,0,-1
 157 1413 l 1,1,-1
 0 1413 l 1,2,-1
 0 1570 l 1,3,-1
 157 1570 l 1,0,-1
785 1570 m 1,4,-1
 785 1413 l 1,5,-1
 628 1413 l 1,6,-1
 628 1570 l 1,7,-1
 785 1570 l 1,4,-1
157 1099 m 1,8,-1
 157 471 l 1,9,-1
 0 471 l 1,10,-1
 0 1099 l 1,11,-1
 157 1099 l 1,8,-1
785 1099 m 1,12,-1
 785 0 l 1,13,-1
 628 0 l 1,14,-1
 628 314 l 1,15,-1
 157 314 l 1,16,-1
 157 471 l 1,17,-1
 628 471 l 1,18,-1
 628 1099 l 1,19,-1
 785 1099 l 1,12,-1
628 0 m 1,20,-1
 628 -157 l 1,21,-1
 0 -157 l 1,22,-1
 0 0 l 1,23,-1
 628 0 l 1,20,-1
EndSplineSet
Validated: 5
EndChar

StartChar: female
Encoding: 9792 9792 194
Width: 942
VWidth: 2048
GlyphClass: 2
Flags: W
LayerCount: 2
Fore
SplineSet
157 1727 m 1,0,-1
 628 1727 l 1,1,-1
 628 1570 l 1,2,-1
 157 1570 l 1,3,-1
 157 1727 l 1,4,-1
 157 1727 l 1,0,-1
0 1570 m 1,5,-1
 157 1570 l 1,6,-1
 157 1099 l 1,7,-1
 0 1099 l 1,8,-1
 0 1570 l 1,9,-1
 0 1570 l 1,5,-1
628 1570 m 1,10,-1
 785 1570 l 1,11,-1
 785 1099 l 1,12,-1
 628 1099 l 1,13,-1
 628 1570 l 1,14,-1
 628 1570 l 1,10,-1
157 1099 m 1,15,-1
 628 1099 l 1,16,-1
 628 942 l 1,17,-1
 471 942 l 1,18,-1
 471 785 l 1,19,-1
 785 785 l 1,20,-1
 785 628 l 1,21,-1
 471 628 l 1,22,-1
 471 0 l 1,23,-1
 314 0 l 1,24,-1
 314 628 l 1,25,-1
 0 628 l 1,26,-1
 0 785 l 1,27,-1
 314 785 l 1,28,-1
 314 942 l 1,29,-1
 157 942 l 1,30,-1
 157 1099 l 1,31,-1
 157 1099 l 1,15,-1
EndSplineSet
Validated: 5
EndChar

StartChar: male
Encoding: 9794 9794 195
Width: 942
VWidth: 2048
GlyphClass: 2
Flags: W
LayerCount: 2
Fore
SplineSet
314 1727 m 1,0,-1
 471 1727 l 1,1,-1
 471 1570 l 1,2,-1
 628 1570 l 1,3,-1
 628 1413 l 1,4,-1
 471 1413 l 1,5,-1
 471 785 l 1,6,-1
 628 785 l 1,7,-1
 628 628 l 1,8,-1
 157 628 l 1,9,-1
 157 785 l 1,10,-1
 314 785 l 1,11,-1
 314 1413 l 1,12,-1
 157 1413 l 1,13,-1
 157 1570 l 1,14,-1
 314 1570 l 1,15,-1
 314 1727 l 1,16,-1
 314 1727 l 1,0,-1
0 1413 m 1,17,-1
 157 1413 l 1,18,-1
 157 1256 l 1,19,-1
 0 1256 l 1,20,-1
 0 1413 l 1,21,-1
 0 1413 l 1,17,-1
628 1413 m 1,22,-1
 785 1413 l 1,23,-1
 785 1256 l 1,24,-1
 628 1256 l 1,25,-1
 628 1413 l 1,26,-1
 628 1413 l 1,22,-1
0 628 m 1,27,-1
 157 628 l 1,28,-1
 157 157 l 1,29,-1
 0 157 l 1,30,-1
 0 628 l 1,31,-1
 0 628 l 1,27,-1
628 628 m 1,32,-1
 785 628 l 1,33,-1
 785 157 l 1,34,-1
 628 157 l 1,35,-1
 628 628 l 1,36,-1
 628 628 l 1,32,-1
157 157 m 1,37,-1
 628 157 l 1,38,-1
 628 0 l 1,39,-1
 157 0 l 1,40,-1
 157 157 l 1,41,-1
 157 157 l 1,37,-1
EndSplineSet
Validated: 5
EndChar

StartChar: uniE000
Encoding: 57344 57344 196
Width: 1300
VWidth: 0
Flags: W
LayerCount: 2
Fore
SplineSet
104 98 m 1,0,-1
 104 990 l 1,1,-1
 996 990 l 1,2,-1
 996 98 l 1,3,-1
 104 98 l 1,0,-1
6 0 m 1,4,-1
 1094 0 l 1,5,-1
 1094 1088 l 1,6,-1
 6 1088 l 1,7,-1
 6 0 l 1,4,-1
EndSplineSet
Validated: 9
EndChar

StartChar: uniE001
Encoding: 57345 57345 197
Width: 1300
VWidth: 0
Flags: W
LayerCount: 2
Fore
SplineSet
471 942.5 m 1,0,-1
 314.5 942.5 l 1,1,-1
 314 785.5 l 1,2,-1
 157.5 785.5 l 2,3,4
 157 785.5 157 785.5 157 785 c 2,5,-1
 157 628.5 l 1,6,-1
 0.5 628.5 l 1,7,-1
 0 471 l 2,8,9
 0 470.5 0 470.5 0.5 470.5 c 2,10,-1
 314 470.5 l 1,11,-1
 314 0 l 1,12,-1
 785.5 -0.5 l 2,13,14
 786 -0.5 786 -0.5 786 0 c 2,15,-1
 786 470.5 l 1,16,-1
 1099.5 470.5 l 2,17,18
 1100 470.5 1100 470.5 1100 471 c 2,19,-1
 1100 628 l 2,20,21
 1100 628.5 1100 628.5 1099.5 628.5 c 2,22,-1
 943 628.5 l 1,23,-1
 943 785 l 2,24,25
 943 785.5 943 785.5 942.5 785.5 c 2,26,-1
 786 785.5 l 1,27,-1
 786 942 l 2,28,29
 786 942.5 786 942.5 785.5 942.5 c 2,30,-1
 629 942.5 l 1,31,-1
 629 1099 l 2,32,33
 629 1099.5 629 1099.5 628.5 1099.5 c 2,34,-1
 471.5 1099.5 l 2,35,36
 471 1099.5 471 1099.5 471 1099 c 2,37,-1
 471 942.5 l 1,0,-1
472 942 m 2,38,-1
 472 1098.5 l 1,39,-1
 628 1098.5 l 1,40,-1
 628 942 l 1,41,-1
 785 941.5 l 1,42,-1
 785 785 l 2,43,44
 785 784.5 785 784.5 785.5 784.5 c 2,45,-1
 942 784.5 l 1,46,-1
 942 628 l 1,47,-1
 1099 627.5 l 1,48,-1
 1099 471.5 l 1,49,-1
 785.5 471.5 l 2,50,51
 785 471.5 785 471.5 785 471 c 2,52,-1
 785 0.5 l 1,53,-1
 315 0.5 l 1,54,-1
 315 471 l 2,55,56
 315 471.5 315 471.5 314.5 471.5 c 2,57,-1
 1 471.5 l 1,58,-1
 1 627.5 l 1,59,-1
 157.5 627.5 l 2,60,61
 158 627.5 158 627.5 158 628 c 2,62,-1
 158 784.5 l 1,63,-1
 314.5 784.5 l 2,64,65
 315 784.5 315 784.5 315 785 c 2,66,-1
 315 941.5 l 1,67,-1
 471.5 941.5 l 2,68,69
 472 941.5 472 941.5 472 942 c 2,38,-1
471.5 942 m 1,70,-1
 471.5 1099 l 1,71,-1
 628.5 1099 l 1,72,-1
 628.5 942 l 1,73,-1
 785.5 942 l 1,74,-1
 785.5 785 l 1,75,-1
 942.5 785 l 1,76,-1
 942.5 628 l 1,77,-1
 1099.5 628 l 1,78,-1
 1099.5 471 l 1,79,-1
 785.5 471 l 1,80,-1
 785.5 0 l 1,81,-1
 314.5 0 l 1,82,-1
 314.5 471 l 1,83,-1
 0.5 471 l 1,84,-1
 0.5 628 l 1,85,-1
 157.5 628 l 1,86,-1
 157.5 785 l 1,87,-1
 314.5 785 l 1,88,-1
 314.5 942 l 1,89,-1
 471.5 942 l 1,70,-1
EndSplineSet
Validated: 1033
EndChar

StartChar: uniE002
Encoding: 57346 57346 198
Width: 1300
VWidth: 0
Flags: W
LayerCount: 2
Fore
SplineSet
157 626.5 m 5,0,-1
 157 783 l 5,1,-1
 314 783.5 l 5,2,-1
 314 940 l 6,3,4
 314 940.5 314 940.5 314.5 940.5 c 6,5,-1
 471 940.5 l 5,6,-1
 471 1097 l 5,7,-1
 628.5 1097.5 l 6,8,9
 629 1097.5 629 1097.5 629 1097 c 6,10,-1
 629 783.5 l 5,11,-1
 1099.5 783.5 l 5,12,-1
 1100 312 l 6,13,14
 1100 311.5 1100 311.5 1099.5 311.5 c 6,15,-1
 629 311.5 l 5,16,-1
 629 -2 l 6,17,18
 629 -2.5 629 -2.5 628.5 -2.5 c 6,19,-1
 471.5 -2.5 l 6,20,21
 471 -2.5 471 -2.5 471 -2 c 6,22,-1
 471 154.5 l 5,23,-1
 314.5 154.5 l 6,24,25
 314 154.5 314 154.5 314 155 c 6,26,-1
 314 311.5 l 5,27,-1
 157.5 311.5 l 6,28,29
 157 311.5 157 311.5 157 312 c 6,30,-1
 157 468.5 l 5,31,-1
 0.5 468.5 l 6,32,33
 0 468.5 0 468.5 0 469 c 6,34,-1
 0 626 l 6,35,36
 0 626.5 0 626.5 0.5 626.5 c 6,37,-1
 157 626.5 l 5,0,-1
157.5 625.5 m 6,38,-1
 1 625.5 l 5,39,-1
 1 469.5 l 5,40,-1
 157.5 469.5 l 5,41,-1
 158 312.5 l 5,42,-1
 314.5 312.5 l 6,43,44
 315 312.5 315 312.5 315 312 c 6,45,-1
 315 155.5 l 5,46,-1
 471.5 155.5 l 5,47,-1
 472 -1.5 l 5,48,-1
 628 -1.5 l 5,49,-1
 628 312 l 6,50,51
 628 312.5 628 312.5 628.5 312.5 c 6,52,-1
 1099 312.5 l 5,53,-1
 1099 782.5 l 5,54,-1
 628.5 782.5 l 6,55,56
 628 782.5 628 782.5 628 783 c 6,57,-1
 628 1096.5 l 5,58,-1
 472 1096.5 l 5,59,-1
 472 940 l 6,60,61
 472 939.5 472 939.5 471.5 939.5 c 6,62,-1
 315 939.5 l 5,63,-1
 315 783 l 6,64,65
 315 782.5 315 782.5 314.5 782.5 c 6,66,-1
 158 782.5 l 5,67,-1
 158 626 l 6,68,69
 158 625.5 158 625.5 157.5 625.5 c 6,38,-1
157.5 626 m 5,70,-1
 0.5 626 l 5,71,-1
 0.5 469 l 5,72,-1
 157.5 469 l 5,73,-1
 157.5 312 l 5,74,-1
 314.5 312 l 5,75,-1
 314.5 155 l 5,76,-1
 471.5 155 l 5,77,-1
 471.5 -2 l 5,78,-1
 628.5 -2 l 5,79,-1
 628.5 312 l 5,80,-1
 1099.5 312 l 5,81,-1
 1099.5 783 l 5,82,-1
 628.5 783 l 5,83,-1
 628.5 1097 l 5,84,-1
 471.5 1097 l 5,85,-1
 471.5 940 l 5,86,-1
 314.5 940 l 5,87,-1
 314.5 783 l 5,88,-1
 157.5 783 l 5,89,-1
 157.5 626 l 5,70,-1
EndSplineSet
Validated: 1033
EndChar

StartChar: uniE003
Encoding: 57347 57347 199
Width: 1300
VWidth: 0
Flags: W
LayerCount: 2
Fore
SplineSet
470.5 156.5 m 5,0,-1
 314 156.5 l 5,1,-1
 313.5 313.5 l 5,2,-1
 157 313.5 l 6,3,4
 156.5 313.5 156.5 313.5 156.5 314 c 6,5,-1
 156.5 470.5 l 5,6,-1
 0 470.5 l 5,7,-1
 -0.5 628 l 6,8,9
 -0.5 628.5 -0.5 628.5 0 628.5 c 6,10,-1
 313.5 628.5 l 5,11,-1
 313.5 1099 l 5,12,-1
 785 1099.5 l 6,13,14
 785.5 1099.5 785.5 1099.5 785.5 1099 c 6,15,-1
 785.5 628.5 l 5,16,-1
 1099 628.5 l 6,17,18
 1099.5 628.5 1099.5 628.5 1099.5 628 c 6,19,-1
 1099.5 471 l 6,20,21
 1099.5 470.5 1099.5 470.5 1099 470.5 c 6,22,-1
 942.5 470.5 l 5,23,-1
 942.5 314 l 6,24,25
 942.5 313.5 942.5 313.5 942 313.5 c 6,26,-1
 785.5 313.5 l 5,27,-1
 785.5 157 l 6,28,29
 785.5 156.5 785.5 156.5 785 156.5 c 6,30,-1
 628.5 156.5 l 5,31,-1
 628.5 0 l 6,32,33
 628.5 -0.5 628.5 -0.5 628 -0.5 c 6,34,-1
 471 -0.5 l 6,35,36
 470.5 -0.5 470.5 -0.5 470.5 0 c 6,37,-1
 470.5 156.5 l 5,0,-1
471.5 157 m 6,38,-1
 471.5 0.5 l 5,39,-1
 627.5 0.5 l 5,40,-1
 627.5 157 l 5,41,-1
 784.5 157.5 l 5,42,-1
 784.5 314 l 6,43,44
 784.5 314.5 784.5 314.5 785 314.5 c 6,45,-1
 941.5 314.5 l 5,46,-1
 941.5 471 l 5,47,-1
 1098.5 471.5 l 5,48,-1
 1098.5 627.5 l 5,49,-1
 785 627.5 l 6,50,51
 784.5 627.5 784.5 627.5 784.5 628 c 6,52,-1
 784.5 1098.5 l 5,53,-1
 314.5 1098.5 l 5,54,-1
 314.5 628 l 6,55,56
 314.5 627.5 314.5 627.5 314 627.5 c 6,57,-1
 0.5 627.5 l 5,58,-1
 0.5 471.5 l 5,59,-1
 157 471.5 l 6,60,61
 157.5 471.5 157.5 471.5 157.5 471 c 6,62,-1
 157.5 314.5 l 5,63,-1
 314 314.5 l 6,64,65
 314.5 314.5 314.5 314.5 314.5 314 c 6,66,-1
 314.5 157.5 l 5,67,-1
 471 157.5 l 6,68,69
 471.5 157.5 471.5 157.5 471.5 157 c 6,38,-1
471 157 m 5,70,-1
 471 0 l 5,71,-1
 628 0 l 5,72,-1
 628 157 l 5,73,-1
 785 157 l 5,74,-1
 785 314 l 5,75,-1
 942 314 l 5,76,-1
 942 471 l 5,77,-1
 1099 471 l 5,78,-1
 1099 628 l 5,79,-1
 785 628 l 5,80,-1
 785 1099 l 5,81,-1
 314 1099 l 5,82,-1
 314 628 l 5,83,-1
 0 628 l 5,84,-1
 0 471 l 5,85,-1
 157 471 l 5,86,-1
 157 314 l 5,87,-1
 314 314 l 5,88,-1
 314 157 l 5,89,-1
 471 157 l 5,70,-1
EndSplineSet
Validated: 1033
EndChar

StartChar: uniE004
Encoding: 57348 57348 200
Width: 1300
VWidth: 0
Flags: W
LayerCount: 2
Fore
SplineSet
943 626.5 m 1,0,-1
 943 783 l 1,1,-1
 786 783.5 l 1,2,-1
 786 940 l 2,3,4
 786 940.5 786 940.5 785.5 940.5 c 2,5,-1
 629 940.5 l 1,6,-1
 629 1097 l 1,7,-1
 471.5 1097.5 l 2,8,9
 471 1097.5 471 1097.5 471 1097 c 2,10,-1
 471 783.5 l 1,11,-1
 0.5 783.5 l 1,12,-1
 0 312 l 2,13,14
 0 311.5 0 311.5 0.5 311.5 c 2,15,-1
 471 311.5 l 1,16,-1
 471 -2 l 2,17,18
 471 -2.5 471 -2.5 471.5 -2.5 c 2,19,-1
 628.5 -2.5 l 2,20,21
 629 -2.5 629 -2.5 629 -2 c 2,22,-1
 629 154.5 l 1,23,-1
 785.5 154.5 l 2,24,25
 786 154.5 786 154.5 786 155 c 2,26,-1
 786 311.5 l 1,27,-1
 942.5 311.5 l 2,28,29
 943 311.5 943 311.5 943 312 c 2,30,-1
 943 468.5 l 1,31,-1
 1099.5 468.5 l 2,32,33
 1100 468.5 1100 468.5 1100 469 c 2,34,-1
 1100 626 l 2,35,36
 1100 626.5 1100 626.5 1099.5 626.5 c 2,37,-1
 943 626.5 l 1,0,-1
942.5 625.5 m 2,38,-1
 1099 625.5 l 1,39,-1
 1099 469.5 l 1,40,-1
 942.5 469.5 l 1,41,-1
 942 312.5 l 1,42,-1
 785.5 312.5 l 2,43,44
 785 312.5 785 312.5 785 312 c 2,45,-1
 785 155.5 l 1,46,-1
 628.5 155.5 l 1,47,-1
 628 -1.5 l 1,48,-1
 472 -1.5 l 1,49,-1
 472 312 l 2,50,51
 472 312.5 472 312.5 471.5 312.5 c 2,52,-1
 1 312.5 l 1,53,-1
 1 782.5 l 1,54,-1
 471.5 782.5 l 2,55,56
 472 782.5 472 782.5 472 783 c 2,57,-1
 472 1096.5 l 1,58,-1
 628 1096.5 l 1,59,-1
 628 940 l 2,60,61
 628 939.5 628 939.5 628.5 939.5 c 2,62,-1
 785 939.5 l 1,63,-1
 785 783 l 2,64,65
 785 782.5 785 782.5 785.5 782.5 c 2,66,-1
 942 782.5 l 1,67,-1
 942 626 l 2,68,69
 942 625.5 942 625.5 942.5 625.5 c 2,38,-1
942.5 626 m 1,70,-1
 1099.5 626 l 1,71,-1
 1099.5 469 l 1,72,-1
 942.5 469 l 1,73,-1
 942.5 312 l 1,74,-1
 785.5 312 l 1,75,-1
 785.5 155 l 1,76,-1
 628.5 155 l 1,77,-1
 628.5 -2 l 1,78,-1
 471.5 -2 l 1,79,-1
 471.5 312 l 1,80,-1
 0.5 312 l 1,81,-1
 0.5 783 l 1,82,-1
 471.5 783 l 1,83,-1
 471.5 1097 l 1,84,-1
 628.5 1097 l 1,85,-1
 628.5 940 l 1,86,-1
 785.5 940 l 1,87,-1
 785.5 783 l 1,88,-1
 942.5 783 l 1,89,-1
 942.5 626 l 1,70,-1
EndSplineSet
Validated: 1033
EndChar
